<svg xmlns="http://www.w3.org/2000/svg" xmlns:xlink="http://www.w3.org/1999/xlink" width="124" height="124" viewBox="0 0 124 124">
  <defs>
    <clipPath id="clip-path">
      <path id="path9616" d="M0-682.665H99.96v99.96H0Z" transform="translate(0 682.665)"/>
    </clipPath>
  </defs>
  <g id="Grupo_99776" data-name="Grupo 99776" transform="translate(-388 -1736)">
    <rect id="Rectángulo_33883" data-name="Rectángulo 33883" width="124" height="124" rx="17" transform="translate(388 1736)" fill="#a9ebf4"/>
    <g id="g9594" transform="translate(400 2430.665)">
      <g id="g9596" transform="translate(29.215 -601.357)">
        <path id="path9598" d="M-22.762,0l-3.9,11.172H-8.736L-12.641,0Z" transform="translate(26.667)" fill="#ddebfd"/>
      </g>
      <g id="g9600" transform="translate(31.167 -601.357)">
        <path id="path9602" d="M-81.762-32.563l-1.952-5.586H-93.835l-1.952,5.586Z" transform="translate(95.788 38.149)" fill="#bed9fd"/>
      </g>
      <g id="g9604" transform="translate(41.776 -602.822)">
        <path id="path9606" d="M-31.3-72.2a1.465,1.465,0,0,1-1.382-.982l-3.9-11.172a1.464,1.464,0,0,1,.9-1.865,1.464,1.464,0,0,1,1.865.9l3.9,11.172a1.464,1.464,0,0,1-.9,1.865A1.462,1.462,0,0,1-31.3-72.2Z" transform="translate(36.669 86.302)"/>
      </g>
      <g id="g9608" transform="translate(27.75 -602.822)">
        <path id="path9610" d="M-35.2,4.1a1.462,1.462,0,0,1-.483-.082,1.464,1.464,0,0,1-.9-1.865l3.9-11.172a1.464,1.464,0,0,1,1.865-.9,1.464,1.464,0,0,1,.9,1.865l-3.9,11.172A1.465,1.465,0,0,1-35.2,4.1Z" transform="translate(36.669 10.003)"/>
      </g>
      <g id="g9612" transform="translate(0 -682.665)">
        <g id="g9614" clip-path="url(#clip-path)">
          <g id="g9620" transform="translate(22.029 92.48)">
            <path id="path9622" d="M0-17.452v2.07a.708.708,0,0,0,.708.708H31.594a.708.708,0,0,0,.708-.708v-2.07a2.994,2.994,0,0,0-2.994-2.994H2.994A2.994,2.994,0,0,0,0-17.452" transform="translate(0 20.445)" fill="#bed9fd"/>
          </g>
          <g id="g9624" transform="translate(20.565 91.016)">
            <path id="path9626" d="M23.058-21.745H-7.828A2.174,2.174,0,0,1-10-23.917v-2.07a4.463,4.463,0,0,1,4.458-4.458H20.772a4.463,4.463,0,0,1,4.458,4.458v2.07A2.175,2.175,0,0,1,23.058-21.745Zm-30.13-2.929H22.3v-1.314a1.531,1.531,0,0,0-1.53-1.529H-5.542a1.531,1.531,0,0,0-1.529,1.529Z" transform="translate(10 30.445)"/>
          </g>
          <g id="g9628" transform="translate(71.19 51.973)">
            <path id="path9630" d="M-122.179-137.232a1.464,1.464,0,0,1-1.464-1.464v-18.133a2.734,2.734,0,0,0-2.731-2.731,2.734,2.734,0,0,0-2.731,2.731v9.529a5.666,5.666,0,0,1-5.66,5.66h-6.908a1.464,1.464,0,0,1-1.464-1.464,1.464,1.464,0,0,1,1.464-1.464h6.908a2.734,2.734,0,0,0,2.731-2.731v-9.529a5.666,5.666,0,0,1,5.66-5.66,5.666,5.666,0,0,1,5.66,5.66V-138.7A1.464,1.464,0,0,1-122.179-137.232Z" transform="translate(143.138 162.489)"/>
          </g>
          <g id="g9632" transform="translate(1.464 25.511)">
            <path id="path9634" d="M0-313.877v-51.891a1.952,1.952,0,0,1,1.952-1.952H71.479a1.952,1.952,0,0,1,1.952,1.952v51.891a1.952,1.952,0,0,1-1.952,1.952H1.952A1.952,1.952,0,0,1,0-313.877" transform="translate(0 367.72)" fill="#ddebfd"/>
          </g>
          <g id="g9636" transform="translate(1.464 25.511)">
            <path id="path9638" d="M-416.681-283.147h-69.527a1.952,1.952,0,0,1-1.952-1.952v-44.668a1.952,1.952,0,0,1,1.952-1.952h69.527a1.952,1.952,0,0,1,1.952,1.952V-285.1a1.952,1.952,0,0,1-1.952,1.952" transform="translate(488.16 331.719)" fill="#655e67"/>
          </g>
          <g id="g9640" transform="translate(0 43.177)">
            <path id="path9642" d="M-438.55-165.369h-69.527a3.42,3.42,0,0,1-3.417-3.417v-27.49a1.464,1.464,0,0,1,1.464-1.464,1.464,1.464,0,0,1,1.464,1.464v27.49a.489.489,0,0,0,.488.488h69.527a.489.489,0,0,0,.488-.488,1.464,1.464,0,0,1,1.464-1.464,1.464,1.464,0,0,1,1.464,1.464A3.42,3.42,0,0,1-438.55-165.369Z" transform="translate(511.493 197.739)"/>
          </g>
          <g id="g9644" transform="translate(0 24.047)">
            <path id="path9646" d="M-8.536-78.754A1.464,1.464,0,0,1-10-80.219V-90.563A3.42,3.42,0,0,1-6.583-93.98a1.464,1.464,0,0,1,1.464,1.464,1.464,1.464,0,0,1-1.464,1.464.489.489,0,0,0-.488.488v10.344A1.464,1.464,0,0,1-8.536-78.754Z" transform="translate(10 93.98)"/>
          </g>
          <g id="g9648" transform="translate(6.931 30.978)">
            <path id="path9650" d="M0-4.552V31.525a.781.781,0,0,0,.781.781H61.718a.781.781,0,0,0,.781-.781V-4.552a.781.781,0,0,0-.781-.781H.781A.781.781,0,0,0,0-4.552" transform="translate(0 5.333)" fill="#80b6fc"/>
          </g>
          <g id="g9652" transform="translate(5.466 29.514)">
            <path id="path9654" d="M-121.9,30.568h-60.937a2.248,2.248,0,0,1-2.245-2.245V-7.755A2.248,2.248,0,0,1-182.836-10h24.855a1.464,1.464,0,0,1,1.464,1.464,1.464,1.464,0,0,1-1.464,1.464h-24.172V27.639h59.57V-7.071h-24.172a1.464,1.464,0,0,1-1.464-1.464A1.464,1.464,0,0,1-146.754-10H-121.9a2.248,2.248,0,0,1,2.245,2.245V28.323A2.248,2.248,0,0,1-121.9,30.568Z" transform="translate(185.081 10)"/>
          </g>
          <g id="g9656" transform="translate(0 60.315)">
            <path id="path9658" d="M-360.458-120.908h-58.436a3.4,3.4,0,0,1-3.4-3.4V-141.9a1.464,1.464,0,0,1,1.464-1.464,1.464,1.464,0,0,1,1.464,1.464v17.594a.47.47,0,0,0,.47.47h58.436a1.464,1.464,0,0,1,1.464,1.464A1.464,1.464,0,0,1-360.458-120.908Z" transform="translate(422.292 143.365)"/>
          </g>
          <g id="g9660" transform="translate(42.329 24.047)">
            <path id="path9662" d="M20.615,48.725H16.339a1.464,1.464,0,0,1,0-2.929h4.276a.489.489,0,0,0,.488-.488V-6.583a.489.489,0,0,0-.488-.488H-8.536A1.464,1.464,0,0,1-10-8.536,1.464,1.464,0,0,1-8.536-10H20.615a3.42,3.42,0,0,1,3.417,3.417V45.308A3.42,3.42,0,0,1,20.615,48.725Z" transform="translate(10 10)"/>
          </g>
          <g id="g9664" transform="translate(0 24.047)">
            <path id="path9666" d="M-8.536-49.347A1.464,1.464,0,0,1-10-50.811v-5.3a3.42,3.42,0,0,1,3.417-3.417H22.567a1.464,1.464,0,0,1,1.464,1.464A1.464,1.464,0,0,1,22.567-56.6H-6.583a.489.489,0,0,0-.488.488v5.3A1.464,1.464,0,0,1-8.536-49.347Z" transform="translate(10 59.528)"/>
          </g>
          <g id="g9668" transform="translate(85.802 75.766)">
            <path id="path9670" d="M-43.614,0h-2.27A5.212,5.212,0,0,0-51.1,5.212v10.11a5.212,5.212,0,0,0,5.212,5.212h2.27A5.212,5.212,0,0,0-38.4,15.322V5.212A5.212,5.212,0,0,0-43.614,0" transform="translate(51.096)" fill="#ddebfd"/>
          </g>
          <g id="g9672" transform="translate(90.156 75.766)">
            <path id="path9674" d="M-18.236,0h-2.27a5.264,5.264,0,0,0-.858.071,5.212,5.212,0,0,1,4.353,5.14v10.11a5.212,5.212,0,0,1-4.353,5.14,5.264,5.264,0,0,0,.858.071h2.27a5.212,5.212,0,0,0,5.212-5.212V5.212A5.212,5.212,0,0,0-18.236,0" transform="translate(21.364)" fill="#bed9fd"/>
          </g>
          <g id="g9676" transform="translate(84.338 74.301)">
            <path id="path9678" d="M-54.42-10h2.27a6.683,6.683,0,0,1,6.676,6.676V6.786a6.683,6.683,0,0,1-6.676,6.676h-2.27A6.683,6.683,0,0,1-61.1,6.786V-3.324A6.683,6.683,0,0,1-54.42-10Zm2.27,20.534A3.752,3.752,0,0,0-48.4,6.786V-3.324A3.752,3.752,0,0,0-52.15-7.071h-2.27a3.752,3.752,0,0,0-3.747,3.747V6.786a3.752,3.752,0,0,0,3.747,3.748Z" transform="translate(61.096 10)"/>
          </g>
          <g id="g9680" transform="translate(90.685 79.383)">
            <path id="path9682" d="M-8.536-5.517A1.464,1.464,0,0,1-10-6.981V-8.536A1.464,1.464,0,0,1-8.536-10,1.464,1.464,0,0,1-7.071-8.536v1.554A1.464,1.464,0,0,1-8.536-5.517Z" transform="translate(10 10)"/>
          </g>
          <g id="g9684" transform="translate(60.127 18.859)">
            <path id="path9686" d="M-10.974,0h34.6a1.882,1.882,0,0,1,1.882,1.882V14.99a1.883,1.883,0,0,1-1.882,1.882H1.314A1.758,1.758,0,0,0,.2,17.266l-6.623,5.381a1,1,0,0,1-1.622-.605l-.806-4.566a.731.731,0,0,0-.719-.6h-1.408a1.883,1.883,0,0,1-1.882-1.882V1.882A1.882,1.882,0,0,1-10.974,0" transform="translate(12.856)" fill="#e27c48"/>
          </g>
          <g id="g9688" transform="translate(88.095 23.748)">
            <path id="path9690" d="M-8.536-4.768A1.464,1.464,0,0,1-10-6.232v-2.3A1.464,1.464,0,0,1-8.536-10,1.464,1.464,0,0,1-7.071-8.536v2.3A1.464,1.464,0,0,1-8.536-4.768Z" transform="translate(10 10)"/>
          </g>
          <g id="g9692" transform="translate(88.094 25.339)">
            <path id="path9694" d="M-23.5-6.362a1.465,1.465,0,0,1-1.392-1.012,1.464,1.464,0,0,1,.94-1.845l2.191-.712a1.464,1.464,0,0,1,1.845.94,1.464,1.464,0,0,1-.94,1.845l-2.191.712A1.463,1.463,0,0,1-23.5-6.362Z" transform="translate(24.964 10.003)"/>
          </g>
          <g id="g9696" transform="translate(88.094 26.051)">
            <path id="path9698" d="M-16.428-17.935a1.462,1.462,0,0,1-1.186-.6L-18.968-20.4a1.464,1.464,0,0,1,.324-2.045,1.464,1.464,0,0,1,2.045.324l1.354,1.864a1.464,1.464,0,0,1-.324,2.045A1.458,1.458,0,0,1-16.428-17.935Z" transform="translate(19.247 22.727)"/>
          </g>
          <g id="g9700" transform="translate(86.741 26.051)">
            <path id="path9702" d="M-8.538-17.935a1.458,1.458,0,0,1-.859-.28,1.464,1.464,0,0,1-.324-2.045l1.354-1.864a1.464,1.464,0,0,1,2.045-.324A1.464,1.464,0,0,1-6-20.4l-1.354,1.864A1.462,1.462,0,0,1-8.538-17.935Z" transform="translate(10.001 22.727)"/>
          </g>
          <g id="g9704" transform="translate(85.904 25.339)">
            <path id="path9706" d="M-6.347-6.362A1.463,1.463,0,0,1-6.8-6.434l-2.191-.712a1.464,1.464,0,0,1-.94-1.845,1.464,1.464,0,0,1,1.845-.94l2.191.712a1.464,1.464,0,0,1,.94,1.845A1.465,1.465,0,0,1-6.347-6.362Z" transform="translate(10.003 10.003)"/>
          </g>
          <g id="g9708" transform="translate(77.847 23.748)">
            <path id="path9710" d="M-8.536-4.768A1.464,1.464,0,0,1-10-6.232v-2.3A1.464,1.464,0,0,1-8.536-10,1.464,1.464,0,0,1-7.071-8.536v2.3A1.464,1.464,0,0,1-8.536-4.768Z" transform="translate(10 10)"/>
          </g>
          <g id="g9712" transform="translate(77.847 25.339)">
            <path id="path9714" d="M-23.5-6.362a1.465,1.465,0,0,1-1.392-1.012,1.464,1.464,0,0,1,.94-1.845l2.191-.712a1.464,1.464,0,0,1,1.845.94,1.464,1.464,0,0,1-.94,1.845l-2.191.712A1.463,1.463,0,0,1-23.5-6.362Z" transform="translate(24.963 10.003)"/>
          </g>
          <g id="g9716" transform="translate(77.847 26.051)">
            <path id="path9718" d="M-16.428-17.935a1.462,1.462,0,0,1-1.186-.6L-18.968-20.4a1.464,1.464,0,0,1,.324-2.045,1.464,1.464,0,0,1,2.045.324l1.354,1.864a1.464,1.464,0,0,1-.324,2.045A1.458,1.458,0,0,1-16.428-17.935Z" transform="translate(19.247 22.727)"/>
          </g>
          <g id="g9720" transform="translate(76.493 26.051)">
            <path id="path9722" d="M-8.538-17.935a1.458,1.458,0,0,1-.859-.28,1.464,1.464,0,0,1-.324-2.045l1.354-1.864a1.464,1.464,0,0,1,2.045-.324A1.464,1.464,0,0,1-6-20.4l-1.354,1.864A1.462,1.462,0,0,1-8.538-17.935Z" transform="translate(10.001 22.727)"/>
          </g>
          <g id="g9724" transform="translate(75.656 25.339)">
            <path id="path9726" d="M-6.347-6.362A1.463,1.463,0,0,1-6.8-6.434l-2.191-.712a1.464,1.464,0,0,1-.94-1.845,1.464,1.464,0,0,1,1.845-.94l2.191.712a1.464,1.464,0,0,1,.94,1.845A1.465,1.465,0,0,1-6.347-6.362Z" transform="translate(10.003 10.003)"/>
          </g>
          <g id="g9728" transform="translate(67.6 23.748)">
            <path id="path9730" d="M-8.536-4.768A1.464,1.464,0,0,1-10-6.232v-2.3A1.464,1.464,0,0,1-8.536-10,1.464,1.464,0,0,1-7.071-8.536v2.3A1.464,1.464,0,0,1-8.536-4.768Z" transform="translate(10 10)"/>
          </g>
          <g id="g9732" transform="translate(67.599 25.339)">
            <path id="path9734" d="M-23.5-6.362a1.465,1.465,0,0,1-1.392-1.012,1.464,1.464,0,0,1,.94-1.845l2.191-.712a1.464,1.464,0,0,1,1.845.94,1.464,1.464,0,0,1-.94,1.845l-2.191.712A1.463,1.463,0,0,1-23.5-6.362Z" transform="translate(24.964 10.003)"/>
          </g>
          <g id="g9736" transform="translate(67.6 26.051)">
            <path id="path9738" d="M-16.428-17.935a1.462,1.462,0,0,1-1.186-.6L-18.968-20.4a1.464,1.464,0,0,1,.324-2.045,1.464,1.464,0,0,1,2.045.324l1.354,1.864a1.464,1.464,0,0,1-.324,2.045A1.458,1.458,0,0,1-16.428-17.935Z" transform="translate(19.247 22.727)"/>
          </g>
          <g id="g9740" transform="translate(66.246 26.051)">
            <path id="path9742" d="M-8.538-17.935a1.458,1.458,0,0,1-.859-.28,1.464,1.464,0,0,1-.324-2.045l1.354-1.864a1.464,1.464,0,0,1,2.045-.324A1.464,1.464,0,0,1-6-20.4l-1.354,1.864A1.462,1.462,0,0,1-8.538-17.935Z" transform="translate(10.001 22.727)"/>
          </g>
          <g id="g9744" transform="translate(65.409 25.339)">
            <path id="path9746" d="M-6.347-6.362A1.463,1.463,0,0,1-6.8-6.434l-2.191-.712a1.464,1.464,0,0,1-.94-1.845,1.464,1.464,0,0,1,1.845-.94l2.191.712a1.464,1.464,0,0,1,.94,1.845A1.465,1.465,0,0,1-6.347-6.362Z" transform="translate(10.003 10.003)"/>
          </g>
          <g id="g9748" transform="translate(58.663 17.395)">
            <path id="path9750" d="M-19.509-10h34.6a3.351,3.351,0,0,1,3.347,3.347V6.455A3.35,3.35,0,0,1,15.094,9.8H-7.222a.3.3,0,0,0-.186.066l-6.623,5.381a2.471,2.471,0,0,1-1.553.554,2.468,2.468,0,0,1-2.435-2.041l-.7-3.96h-.792a3.35,3.35,0,0,1-3.347-3.347V-6.653A3.351,3.351,0,0,1-19.509-10Zm34.6,16.873a.419.419,0,0,0,.418-.418V-6.653a.419.419,0,0,0-.418-.418h-34.6a.419.419,0,0,0-.418.418V6.455a.419.419,0,0,0,.418.418H-18.1A2.192,2.192,0,0,1-15.94,8.686l.67,3.8,6.016-4.888a3.232,3.232,0,0,1,2.032-.721Z" transform="translate(22.856 10)"/>
          </g>
          <g id="g9752" transform="translate(24.449 1.708)">
            <path id="path9754" d="M-154.425-49.042a3.3,3.3,0,0,0-2.343-.971h-1.277a7.442,7.442,0,0,0-7.443-7.441,7.44,7.44,0,0,0-6.607,4.017c-.085-.006-.171-.01-.258-.01a3.436,3.436,0,0,0-3.436,3.435H-177.6a3.314,3.314,0,0,0-3.313,3.314,3.3,3.3,0,0,0,.97,2.343,3.3,3.3,0,0,0,2.343.971h20.835a3.315,3.315,0,0,0,3.314-3.314,3.3,3.3,0,0,0-.971-2.343" transform="translate(180.916 57.455)" fill="#ddebfd"/>
          </g>
          <g id="g9756" transform="translate(22.985 0.244)">
            <path id="path9758" d="M-149.3-89.092h-20.835a4.741,4.741,0,0,1-3.38-1.4,4.744,4.744,0,0,1-1.4-3.377,4.783,4.783,0,0,1,4.777-4.779h.573a4.914,4.914,0,0,1,4.08-3.4,8.876,8.876,0,0,1,7.462-4.042,8.921,8.921,0,0,1,8.787,7.442,4.74,4.74,0,0,1,3.313,1.4,4.746,4.746,0,0,1,1.4,3.377A4.784,4.784,0,0,1-149.3-89.092Zm-20.835-6.629a1.851,1.851,0,0,0-1.849,1.85,1.836,1.836,0,0,0,.541,1.308,1.834,1.834,0,0,0,1.308.543H-149.3a1.852,1.852,0,0,0,1.85-1.85,1.838,1.838,0,0,0-.542-1.308,1.833,1.833,0,0,0-1.308-.542h-1.277a1.464,1.464,0,0,1-1.464-1.464,5.985,5.985,0,0,0-5.979-5.977,5.962,5.962,0,0,0-5.308,3.227,1.464,1.464,0,0,1-1.407.786l-.151-.006a1.974,1.974,0,0,0-1.971,1.971,1.464,1.464,0,0,1-1.464,1.464Z" transform="translate(174.914 106.09)"/>
          </g>
          <g id="g9760" transform="translate(38.18 33.581)">
            <path id="path9762" transform="translate(0 0)"/>
          </g>
          <g id="g9764" transform="translate(36.716 26.136)">
            <path id="path9766" d="M-8.536-8.01A1.464,1.464,0,0,1-10-9.475v-.161A1.464,1.464,0,0,1-8.536-11.1,1.464,1.464,0,0,1-7.071-9.636v.161A1.464,1.464,0,0,1-8.536-8.01Z" transform="translate(10 11.1)"/>
          </g>
          <g id="g9768" transform="translate(38.18 21.942)">
            <path id="path9770" transform="translate(0 0)"/>
          </g>
          <g id="g9772" transform="translate(25.896 43.707)">
            <path id="path9774" d="M-119.509-47.426h-16.433a4.068,4.068,0,0,1-4.068-4.068,4.068,4.068,0,0,1,4.068-4.068h16.433a4.068,4.068,0,0,1,4.068,4.068,4.068,4.068,0,0,1-4.068,4.068" transform="translate(140.01 55.561)" fill="#fbf490"/>
          </g>
          <g id="g9776" transform="translate(24.431 42.243)">
            <path id="path9778" d="M-128.045-54.5h-16.433a5.538,5.538,0,0,1-5.532-5.532,5.538,5.538,0,0,1,5.532-5.532h16.433a5.538,5.538,0,0,1,5.532,5.532A5.538,5.538,0,0,1-128.045-54.5Zm-16.433-8.136a2.607,2.607,0,0,0-2.6,2.6,2.606,2.606,0,0,0,2.6,2.6h16.433a2.606,2.606,0,0,0,2.6-2.6,2.607,2.607,0,0,0-2.6-2.6Z" transform="translate(150.01 65.561)"/>
          </g>
          <g id="g9780" transform="translate(30.492 57.583)">
            <path id="path9782" d="M3.911-7.071H-8.536A1.464,1.464,0,0,1-10-8.536,1.464,1.464,0,0,1-8.536-10H3.911A1.464,1.464,0,0,1,5.375-8.536,1.464,1.464,0,0,1,3.911-7.071Z" transform="translate(10 10)"/>
          </g>
        </g>
      </g>
    </g>
  </g>
</svg>
