<svg xmlns="http://www.w3.org/2000/svg" width="124" height="124" viewBox="0 0 124 124">
  <g id="Grupo_99750" data-name="Grupo 99750" transform="translate(-1116 -1107)">
    <rect id="Rectángulo_33880" data-name="Rectángulo 33880" width="124" height="124" rx="17" transform="translate(1116 1107)" fill="#a9ebf4"/>
    <g id="html" transform="translate(1138 1084.78)">
      <g id="Grupo_99740" data-name="Grupo 99740" transform="translate(1.165 53.385)">
        <g id="Grupo_99739" data-name="Grupo 99739" transform="translate(0 0)">
          <path id="Trazado_106899" data-name="Trazado 106899" d="M83.741,123.36V171.7a2.534,2.534,0,0,1-2.535,2.535l-1.9.24H10.035A2.534,2.534,0,0,1,7.5,171.939V127.09l1.021-3.73Z" transform="translate(-7.5 -113.47)" fill="#a8d3d8"/>
          <path id="Trazado_106900" data-name="Trazado 106900" d="M84.733,109.692v48.579a2.534,2.534,0,0,1-2.535,2.535H78.78a2.534,2.534,0,0,0,2.535-2.535V116.529a3.108,3.108,0,0,0-3.108-3.108H7.5v-3.73l41.937-2.515Z" transform="translate(-7.5 -99.802)" fill="#8ebac5"/>
          <path id="Trazado_106901" data-name="Trazado 106901" d="M84.268,62.6l-.132,6.384-3.754.628H7.5V62.255a2.534,2.534,0,0,1,2.535-2.535H78.5l3.235.343A2.534,2.534,0,0,1,84.268,62.6Z" transform="translate(-7.5 -59.72)" fill="#947df6"/>
          <path id="Trazado_106902" data-name="Trazado 106902" d="M467.076,62.255V69.61h-4.351V62.255a2.534,2.534,0,0,0-2.535-2.535h4.351A2.534,2.534,0,0,1,467.076,62.255Z" transform="translate(-389.842 -59.72)" fill="#8769ef"/>
        </g>
      </g>
      <g id="Grupo_99749" data-name="Grupo 99749" transform="translate(0 52.22)">
        <g id="Grupo_99741" data-name="Grupo 99741" transform="translate(0 0)">
          <path id="Trazado_106903" data-name="Trazado 106903" d="M75.869,115.555H3.7a3.7,3.7,0,0,1-3.7-3.7V55.92a3.7,3.7,0,0,1,3.7-3.7H75.869a3.7,3.7,0,0,1,3.7,3.7V98.97a1.165,1.165,0,0,1-2.331,0V55.92a1.368,1.368,0,0,0-1.364-1.369H3.7A1.368,1.368,0,0,0,2.331,55.92v55.934A1.368,1.368,0,0,0,3.7,113.224H75.869a1.368,1.368,0,0,0,1.364-1.369v-7.445a1.165,1.165,0,1,1,2.331,0v7.445A3.7,3.7,0,0,1,75.869,115.555Z" transform="translate(0 -52.22)"/>
          <path id="Línea_107" data-name="Línea 107" d="M30.621-5.169H-6.335A1.165,1.165,0,0,1-7.5-6.335,1.165,1.165,0,0,1-6.335-7.5H30.621a1.165,1.165,0,0,1,1.165,1.165A1.165,1.165,0,0,1,30.621-5.169Z" transform="translate(7.921 17.39)"/>
          <path id="Línea_108" data-name="Línea 108" d="M27.662-5.169h-34A1.165,1.165,0,0,1-7.5-6.335,1.165,1.165,0,0,1-6.335-7.5h34a1.165,1.165,0,0,1,1.165,1.165A1.165,1.165,0,0,1,27.662-5.169Z" transform="translate(50.316 17.39)"/>
          <path id="Línea_109" data-name="Línea 109" transform="translate(17.11 6.11)"/>
          <path id="Línea_110" data-name="Línea 110" transform="translate(11.818 6.11)"/>
          <path id="Línea_111" data-name="Línea 111" transform="translate(6.527 6.11)"/>
        </g>
        <g id="Grupo_99748" data-name="Grupo 99748" transform="translate(6.838 19.283)">
          <g id="Grupo_99746" data-name="Grupo 99746" transform="translate(28.553)">
            <g id="Grupo_99742" data-name="Grupo 99742" transform="translate(19.649)">
              <path id="Trazado_106904" data-name="Trazado 106904" d="M362.726,185.439a1.166,1.166,0,0,1-1.143-.946l-.5-2.621-.732,2.575a1.365,1.365,0,0,1-2.623.012l-.759-2.579-.471,2.6a1.165,1.165,0,0,1-2.294-.415l1.2-6.641a1.358,1.358,0,0,1,2.639-.143l.976,3.317.939-3.3a1.359,1.359,0,0,1,2.641.116l1.273,6.643a1.166,1.166,0,0,1-1.146,1.385Z" transform="translate(-354.183 -176.308)"/>
            </g>
            <g id="Grupo_99743" data-name="Grupo 99743" transform="translate(32.622)">
              <path id="Trazado_106905" data-name="Trazado 106905" d="M441.214,185.439H438.83a1.166,1.166,0,0,1-1.165-1.165v-6.8a1.165,1.165,0,1,1,2.331,0v5.634h1.218a1.165,1.165,0,0,1,0,2.331Z" transform="translate(-437.665 -176.308)"/>
            </g>
            <g id="Grupo_99744" data-name="Grupo 99744">
              <path id="Línea_112" data-name="Línea 112" d="M-6.335,1.631A1.165,1.165,0,0,1-7.5.465v-6.8A1.165,1.165,0,0,1-6.335-7.5,1.165,1.165,0,0,1-5.169-6.335v6.8A1.165,1.165,0,0,1-6.335,1.631Z" transform="translate(7.5 7.5)"/>
              <path id="Línea_113" data-name="Línea 113" d="M-6.335,1.631A1.165,1.165,0,0,1-7.5.465v-6.8A1.165,1.165,0,0,1-6.335-7.5,1.165,1.165,0,0,1-5.169-6.335v6.8A1.165,1.165,0,0,1-6.335,1.631Z" transform="translate(12.206 7.5)"/>
              <path id="Línea_114" data-name="Línea 114" d="M-1.629-5.169H-6.335A1.165,1.165,0,0,1-7.5-6.335,1.165,1.165,0,0,1-6.335-7.5h4.706A1.165,1.165,0,0,1-.463-6.335,1.165,1.165,0,0,1-1.629-5.169Z" transform="translate(7.5 10.783)"/>
            </g>
            <g id="Grupo_99745" data-name="Grupo 99745" transform="translate(10.3 0)">
              <path id="Línea_115" data-name="Línea 115" d="M-2.579-5.169H-6.335A1.165,1.165,0,0,1-7.5-6.335,1.165,1.165,0,0,1-6.335-7.5h3.755A1.165,1.165,0,0,1-1.414-6.335,1.165,1.165,0,0,1-2.579-5.169Z" transform="translate(7.5 7.5)"/>
              <path id="Línea_116" data-name="Línea 116" d="M-6.335,1.413A1.165,1.165,0,0,1-7.5.248V-6.335A1.165,1.165,0,0,1-6.335-7.5,1.165,1.165,0,0,1-5.169-6.335V.248A1.165,1.165,0,0,1-6.335,1.413Z" transform="translate(9.37 7.717)"/>
            </g>
          </g>
          <path id="Trazado_106906" data-name="Trazado 106906" d="M49.274,186.857a1.162,1.162,0,0,1-.824-.341l-4.109-4.109a1.166,1.166,0,0,1,0-1.648l4.109-4.109A1.165,1.165,0,0,1,50.1,178.3l-3.285,3.285,3.285,3.285a1.165,1.165,0,0,1-.824,1.99Z" transform="translate(-44 -176.308)"/>
          <path id="Trazado_106907" data-name="Trazado 106907" d="M427.725,342a1.166,1.166,0,0,1-.824-1.99l3.285-3.285-3.285-3.285a1.165,1.165,0,0,1,1.648-1.648l4.109,4.109a1.165,1.165,0,0,1,0,1.648l-4.109,4.109A1.162,1.162,0,0,1,427.725,342Z" transform="translate(-367.11 -307.343)"/>
          <path id="Línea_117" data-name="Línea 117" d="M6.428-5.169H-6.335A1.165,1.165,0,0,1-7.5-6.335,1.165,1.165,0,0,1-6.335-7.5H6.428A1.165,1.165,0,0,1,7.593-6.335,1.165,1.165,0,0,1,6.428-5.169Z" transform="translate(16.607 7.717)"/>
          <path id="Línea_118" data-name="Línea 118" d="M-2.673-5.169H-6.335A1.165,1.165,0,0,1-7.5-6.335,1.165,1.165,0,0,1-6.335-7.5h3.661A1.165,1.165,0,0,1-1.508-6.335,1.165,1.165,0,0,1-2.673-5.169Z" transform="translate(25.708 15.718)"/>
          <path id="Línea_119" data-name="Línea 119" d="M-2.672-5.169H-6.335A1.165,1.165,0,0,1-7.5-6.335,1.165,1.165,0,0,1-6.335-7.5h3.663A1.165,1.165,0,0,1-1.506-6.335,1.165,1.165,0,0,1-2.672-5.169Z" transform="translate(16.606 15.718)"/>
          <path id="Línea_120" data-name="Línea 120" d="M4.585-5.169H-6.335A1.165,1.165,0,0,1-7.5-6.335,1.165,1.165,0,0,1-6.335-7.5H4.585A1.165,1.165,0,0,1,5.751-6.335,1.165,1.165,0,0,1,4.585-5.169Z" transform="translate(20.766 23.717)"/>
          <path id="Línea_121" data-name="Línea 121" d="M1.623-5.169H-6.335A1.165,1.165,0,0,1-7.5-6.335,1.165,1.165,0,0,1-6.335-7.5H1.623A1.165,1.165,0,0,1,2.789-6.335,1.165,1.165,0,0,1,1.623-5.169Z" transform="translate(63.1 23.717)"/>
          <path id="Línea_122" data-name="Línea 122" d="M14.2-5.169H-6.335A1.165,1.165,0,0,1-7.5-6.335,1.165,1.165,0,0,1-6.335-7.5H14.2a1.165,1.165,0,0,1,1.165,1.165A1.165,1.165,0,0,1,14.2-5.169Z" transform="translate(37.125 23.717)"/>
          <path id="Línea_123" data-name="Línea 123" d="M1.493-5.169H-6.335A1.165,1.165,0,0,1-7.5-6.335,1.165,1.165,0,0,1-6.335-7.5H1.493A1.165,1.165,0,0,1,2.658-6.335,1.165,1.165,0,0,1,1.493-5.169Z" transform="translate(7.5 23.717)"/>
          <g id="Grupo_99747" data-name="Grupo 99747" transform="translate(0 24.217)">
            <path id="Línea_124" data-name="Línea 124" d="M3.342-5.169H-6.335A1.165,1.165,0,0,1-7.5-6.335,1.165,1.165,0,0,1-6.335-7.5H3.342A1.165,1.165,0,0,1,4.508-6.335,1.165,1.165,0,0,1,3.342-5.169Z" transform="translate(46.198 7.5)"/>
            <path id="Línea_125" data-name="Línea 125" d="M5.221-5.169H-6.335A1.165,1.165,0,0,1-7.5-6.335,1.165,1.165,0,0,1-6.335-7.5H5.221A1.165,1.165,0,0,1,6.386-6.335,1.165,1.165,0,0,1,5.221-5.169Z" transform="translate(7.5 7.5)"/>
            <path id="Línea_126" data-name="Línea 126" d="M9.93-5.169H-6.335A1.165,1.165,0,0,1-7.5-6.335,1.165,1.165,0,0,1-6.335-7.5H9.93A1.165,1.165,0,0,1,11.1-6.335,1.165,1.165,0,0,1,9.93-5.169Z" transform="translate(24.494 7.5)"/>
            <path id="Línea_127" data-name="Línea 127" d="M18.5-5.169H-6.335A1.165,1.165,0,0,1-7.5-6.335,1.165,1.165,0,0,1-6.335-7.5H18.5a1.165,1.165,0,0,1,1.165,1.165A1.165,1.165,0,0,1,18.5-5.169Z" transform="translate(20.039 15.5)"/>
            <path id="Línea_128" data-name="Línea 128" d="M-2.947-5.169H-6.335A1.165,1.165,0,0,1-7.5-6.335,1.165,1.165,0,0,1-6.335-7.5h3.388A1.165,1.165,0,0,1-1.781-6.335,1.165,1.165,0,0,1-2.947-5.169Z" transform="translate(50.311 15.5)"/>
            <path id="Línea_129" data-name="Línea 129" d="M.766-5.169h-7.1A1.165,1.165,0,0,1-7.5-6.335,1.165,1.165,0,0,1-6.335-7.5h7.1A1.165,1.165,0,0,1,1.931-6.335,1.165,1.165,0,0,1,.766-5.169Z" transform="translate(7.5 15.5)"/>
          </g>
          <path id="Línea_130" data-name="Línea 130" d="M-6.335,6.4a1.168,1.168,0,0,1-.272-.032,1.165,1.165,0,0,1-.863-1.4L-4.707-6.607A1.166,1.166,0,0,1-3.3-7.47a1.165,1.165,0,0,1,.863,1.4L-5.2,5.507A1.166,1.166,0,0,1-6.335,6.4Z" transform="translate(59.904 28.255)"/>
        </g>
      </g>
    </g>
  </g>
</svg>
