<svg xmlns="http://www.w3.org/2000/svg" width="124" height="124" viewBox="0 0 124 124">
  <g id="Grupo_99762" data-name="Grupo 99762" transform="translate(-388 -1307)">
    <rect id="Rectángulo_33881" data-name="Rectángulo 33881" width="124" height="124" rx="17" transform="translate(388 1307)" fill="#a9ebf4"/>
    <g id="tablero-de-humor" transform="translate(413 1332)">
      <g id="Grupo_99757" data-name="Grupo 99757" transform="translate(1.082 1.082)">
        <path id="Trazado_106903" data-name="Trazado 106903" d="M79.19,55.293H7.5V10.123A2.623,2.623,0,0,1,10.123,7.5H76.567a2.623,2.623,0,0,1,2.623,2.623v45.17Z" transform="translate(-7.5 -7.5)" fill="#eaf6ff"/>
        <path id="Trazado_106904" data-name="Trazado 106904" d="M57,46.528V41.574a1.749,1.749,0,0,1,1.749-1.749H112.66a1.748,1.748,0,0,1,1.749,1.749v4.954a1.748,1.748,0,0,1-1.749,1.749H58.747A1.749,1.749,0,0,1,57,46.528Z" transform="translate(-49.858 -35.162)" fill="#60b7ff"/>
        <path id="Trazado_106905" data-name="Trazado 106905" d="M420.4,39.825h-3.788a1.749,1.749,0,0,1,1.749,1.749v4.954a1.749,1.749,0,0,1-1.749,1.749H420.4a1.749,1.749,0,0,0,1.749-1.749V41.574A1.749,1.749,0,0,0,420.4,39.825Z" transform="translate(-357.603 -35.162)" fill="#26a6fe"/>
        <path id="Trazado_106906" data-name="Trazado 106906" d="M463.841,7.5h-3.788a2.623,2.623,0,0,1,2.623,2.623v45.17h3.788V10.123A2.623,2.623,0,0,0,463.841,7.5Z" transform="translate(-394.774 -7.5)" fill="#d8ecfe"/>
        <path id="Trazado_106907" data-name="Trazado 106907" d="M76.567,343.5H10.123A2.623,2.623,0,0,1,7.5,340.874v-2.04H79.19v2.04A2.623,2.623,0,0,1,76.567,343.5Z" transform="translate(-7.5 -291.041)" fill="#918291"/>
        <path id="Trazado_106908" data-name="Trazado 106908" d="M139.836,476.838H95.54a1.166,1.166,0,0,1-1.166-1.166v-2.331a1.166,1.166,0,0,1,1.166-1.166h44.3A1.166,1.166,0,0,1,141,473.341v2.331A1.165,1.165,0,0,1,139.836,476.838Z" transform="translate(-81.843 -405.148)" fill="#918291"/>
        <path id="Trazado_106909" data-name="Trazado 106909" d="M387.934,472.175h-3.643a1.166,1.166,0,0,1,1.166,1.166v2.331a1.166,1.166,0,0,1-1.166,1.166h3.643a1.166,1.166,0,0,0,1.166-1.166v-2.331A1.166,1.166,0,0,0,387.934,472.175Z" transform="translate(-329.941 -405.148)" fill="#7a6d79"/>
        <path id="Trazado_106910" data-name="Trazado 106910" d="M184.126,385.73H154.984a10.544,10.544,0,0,0,5.828-9.431v-5.14H178.3v5.14a10.544,10.544,0,0,0,5.828,9.431Z" transform="translate(-133.71 -318.703)" fill="#685e68"/>
        <path id="Trazado_106911" data-name="Trazado 106911" d="M462.676,338.833v2.04a2.623,2.623,0,0,1-2.623,2.623h3.788a2.623,2.623,0,0,0,2.623-2.623v-2.04Z" transform="translate(-394.774 -291.04)" fill="#7a6d79"/>
        <g id="Grupo_99751" data-name="Grupo 99751" transform="translate(7.14 27.102)">
          <path id="Trazado_106912" data-name="Trazado 106912" d="M70.986,211.419H59.038a2.04,2.04,0,0,1-2.04-2.04V197.431a2.04,2.04,0,0,1,2.04-2.04H70.986a2.04,2.04,0,0,1,2.04,2.04v11.948A2.04,2.04,0,0,1,70.986,211.419Z" transform="translate(-56.998 -195.391)" fill="#fd8087"/>
        </g>
        <g id="Grupo_99752" data-name="Grupo 99752" transform="translate(27.831 27.102)">
          <path id="Trazado_106913" data-name="Trazado 106913" d="M214.43,211.419H202.482a2.04,2.04,0,0,1-2.04-2.04V197.431a2.04,2.04,0,0,1,2.04-2.04H214.43a2.04,2.04,0,0,1,2.04,2.04v11.948A2.04,2.04,0,0,1,214.43,211.419Z" transform="translate(-200.442 -195.391)" fill="#00f2a6"/>
        </g>
        <g id="Grupo_99753" data-name="Grupo 99753" transform="translate(48.522 27.102)">
          <path id="Trazado_106914" data-name="Trazado 106914" d="M357.873,211.419H345.925a2.04,2.04,0,0,1-2.04-2.04V197.431a2.04,2.04,0,0,1,2.04-2.04h11.948a2.04,2.04,0,0,1,2.04,2.04v11.948A2.04,2.04,0,0,1,357.873,211.419Z" transform="translate(-343.885 -195.391)" fill="#ffe177"/>
        </g>
        <path id="Trazado_106915" data-name="Trazado 106915" d="M418.384,195.39H414.6a2.04,2.04,0,0,1,2.04,2.04v11.948a2.04,2.04,0,0,1-2.04,2.04h3.788a2.04,2.04,0,0,0,2.04-2.04V197.43A2.04,2.04,0,0,0,418.384,195.39Z" transform="translate(-355.874 -168.288)" fill="#ffd15b"/>
        <path id="Trazado_106916" data-name="Trazado 106916" d="M274.941,195.39h-3.788a2.04,2.04,0,0,1,2.04,2.04v11.948a2.04,2.04,0,0,1-2.04,2.04h3.788a2.04,2.04,0,0,0,2.04-2.04V197.43A2.04,2.04,0,0,0,274.941,195.39Z" transform="translate(-233.122 -168.288)" fill="#0ed290"/>
        <path id="Trazado_106917" data-name="Trazado 106917" d="M131.5,195.39H127.71a2.04,2.04,0,0,1,2.04,2.04v11.948a2.04,2.04,0,0,1-2.04,2.04H131.5a2.04,2.04,0,0,0,2.04-2.04V197.43A2.04,2.04,0,0,0,131.5,195.39Z" transform="translate(-110.37 -168.288)" fill="#fe646f"/>
        <g id="Grupo_99754" data-name="Grupo 99754" transform="translate(7.14 17.777)">
          <circle id="Elipse_2" data-name="Elipse 2" cx="2.331" cy="2.331" r="2.331" fill="#fd8087"/>
        </g>
        <g id="Grupo_99755" data-name="Grupo 99755" transform="translate(27.831 17.777)">
          <circle id="Elipse_3" data-name="Elipse 3" cx="2.331" cy="2.331" r="2.331" fill="#00f2a6"/>
        </g>
        <g id="Grupo_99756" data-name="Grupo 99756" transform="translate(48.522 17.777)">
          <circle id="Elipse_4" data-name="Elipse 4" cx="2.331" cy="2.331" r="2.331" fill="#ffe177"/>
        </g>
      </g>
      <g id="Grupo_99761" data-name="Grupo 99761" transform="translate(0 0)">
        <path id="Trazado_106918" data-name="Trazado 106918" d="M106.241,42.94H52.328a2.834,2.834,0,0,1-2.83-2.83V35.155a2.834,2.834,0,0,1,2.83-2.83h53.913a2.834,2.834,0,0,1,2.83,2.83V40.11A2.834,2.834,0,0,1,106.241,42.94ZM52.328,34.489a.667.667,0,0,0-.667.667V40.11a.667.667,0,0,0,.667.667h53.913a.667.667,0,0,0,.667-.667V35.155a.667.667,0,0,0-.667-.667Z" transform="translate(-42.358 -27.662)"/>
        <path id="Trazado_106919" data-name="Trazado 106919" d="M148.565,380.394a1.082,1.082,0,0,1-.485-2.05,9.41,9.41,0,0,0,5.23-8.463v-5.14a1.082,1.082,0,1,1,2.164,0v5.14a11.562,11.562,0,0,1-6.426,10.4A1.078,1.078,0,0,1,148.565,380.394Z" transform="translate(-126.209 -311.203)"/>
        <path id="Trazado_106920" data-name="Trazado 106920" d="M316.019,380.394a1.077,1.077,0,0,1-.483-.114,11.562,11.562,0,0,1-6.426-10.4v-5.14a1.082,1.082,0,0,1,2.164,0v5.14a9.41,9.41,0,0,0,5.23,8.463,1.082,1.082,0,0,1-.485,2.05Z" transform="translate(-264.522 -311.203)"/>
        <path id="Trazado_106921" data-name="Trazado 106921" d="M70.149,54.62H3.7a3.708,3.708,0,0,1-3.7-3.7V3.7A3.708,3.708,0,0,1,3.7,0h7.359a1.082,1.082,0,1,1,0,2.164H3.7A1.542,1.542,0,0,0,2.164,3.7V50.916A1.542,1.542,0,0,0,3.7,52.456H70.149a1.542,1.542,0,0,0,1.541-1.541V3.7a1.542,1.542,0,0,0-1.541-1.541H16.112a1.082,1.082,0,1,1,0-2.164H70.149a3.708,3.708,0,0,1,3.7,3.7V50.916A3.708,3.708,0,0,1,70.149,54.62Z" transform="translate(0 0)"/>
        <path id="Línea_107" data-name="Línea 107" d="M65.272-5.336H-6.418A1.082,1.082,0,0,1-7.5-6.418,1.082,1.082,0,0,1-6.418-7.5h71.69a1.082,1.082,0,0,1,1.082,1.082A1.082,1.082,0,0,1,65.272-5.336Z" transform="translate(7.5 55.293)"/>
        <path id="Trazado_106922" data-name="Trazado 106922" d="M133.414,471.5h-32.3a1.082,1.082,0,1,1,0-2.164h32.3l.085-2.415-44.38-.085-.085,2.416,7.032.084a1.082,1.082,0,1,1,0,2.164H89.119a2.251,2.251,0,0,1-2.249-2.247v-2.331a2.251,2.251,0,0,1,2.249-2.249h44.295a2.251,2.251,0,0,1,2.249,2.249v2.331A2.251,2.251,0,0,1,133.414,471.5Z" transform="translate(-74.339 -397.644)"/>
        <g id="Grupo_99758" data-name="Grupo 99758" transform="translate(7.14 27.102)">
          <path id="Trazado_106923" data-name="Trazado 106923" d="M64.568,206.083H52.62a3.125,3.125,0,0,1-3.122-3.122V191.013a3.125,3.125,0,0,1,3.122-3.122H64.568a3.125,3.125,0,0,1,3.122,3.122v11.948a3.122,3.122,0,0,1-3.122,3.122ZM52.62,190.055a.959.959,0,0,0-.958.958v11.948a.959.959,0,0,0,.958.958H64.568a.958.958,0,0,0,.958-.958V191.013a.959.959,0,0,0-.958-.958Z" transform="translate(-49.498 -187.891)"/>
        </g>
        <g id="Grupo_99759" data-name="Grupo 99759" transform="translate(27.831 27.102)">
          <path id="Trazado_106924" data-name="Trazado 106924" d="M208.012,206.083H196.064a3.125,3.125,0,0,1-3.122-3.122V191.013a3.125,3.125,0,0,1,3.122-3.122h11.948a3.125,3.125,0,0,1,3.122,3.122v11.948A3.125,3.125,0,0,1,208.012,206.083Zm-11.948-16.028a.959.959,0,0,0-.958.958v11.948a.959.959,0,0,0,.958.958h11.948a.959.959,0,0,0,.958-.958V191.013a.959.959,0,0,0-.958-.958Z" transform="translate(-192.942 -187.891)"/>
        </g>
        <g id="Grupo_99760" data-name="Grupo 99760" transform="translate(48.521 27.102)">
          <path id="Trazado_106925" data-name="Trazado 106925" d="M351.451,206.082H348a1.082,1.082,0,1,1,0-2.164h3.45a.959.959,0,0,0,.958-.958V191.011a.959.959,0,0,0-.958-.958H339.5a.96.96,0,0,0-.959.958v11.949a.96.96,0,0,0,.959.958h3.449a1.082,1.082,0,1,1,0,2.164H339.5a3.126,3.126,0,0,1-3.123-3.121V191.011a3.126,3.126,0,0,1,3.123-3.121h11.948a3.125,3.125,0,0,1,3.121,3.121v11.949A3.125,3.125,0,0,1,351.451,206.082Z" transform="translate(-336.38 -187.89)"/>
        </g>
        <path id="Elipse_5" data-name="Elipse 5" d="M-4.087-7.5A3.417,3.417,0,0,1-.673-4.087,3.417,3.417,0,0,1-4.087-.673,3.417,3.417,0,0,1-7.5-4.087,3.417,3.417,0,0,1-4.087-7.5Zm0,4.663a1.251,1.251,0,0,0,1.25-1.25,1.251,1.251,0,0,0-1.25-1.25,1.251,1.251,0,0,0-1.25,1.25A1.251,1.251,0,0,0-4.087-2.837Z" transform="translate(14.64 25.277)"/>
        <path id="Línea_108" data-name="Línea 108" d="M-3.067-5.336H-6.418A1.082,1.082,0,0,1-7.5-6.418,1.082,1.082,0,0,1-6.418-7.5h3.351A1.082,1.082,0,0,1-1.985-6.418,1.082,1.082,0,0,1-3.067-5.336Z" transform="translate(23.965 29.94)"/>
        <path id="Línea_109" data-name="Línea 109" d="M.285-5.336h-6.7A1.082,1.082,0,0,1-7.5-6.418,1.082,1.082,0,0,1-6.418-7.5h6.7A1.082,1.082,0,0,1,1.366-6.418,1.082,1.082,0,0,1,.285-5.336Z" transform="translate(23.965 25.277)"/>
        <path id="Elipse_6" data-name="Elipse 6" d="M-4.087-7.5A3.417,3.417,0,0,1-.673-4.087,3.417,3.417,0,0,1-4.087-.673,3.417,3.417,0,0,1-7.5-4.087,3.417,3.417,0,0,1-4.087-7.5Zm0,4.663a1.251,1.251,0,0,0,1.25-1.25,1.251,1.251,0,0,0-1.25-1.25,1.251,1.251,0,0,0-1.25,1.25A1.251,1.251,0,0,0-4.087-2.837Z" transform="translate(35.331 25.277)"/>
        <path id="Línea_110" data-name="Línea 110" d="M-3.067-5.336H-6.418A1.082,1.082,0,0,1-7.5-6.418,1.082,1.082,0,0,1-6.418-7.5h3.351A1.082,1.082,0,0,1-1.985-6.418,1.082,1.082,0,0,1-3.067-5.336Z" transform="translate(44.656 29.94)"/>
        <path id="Línea_111" data-name="Línea 111" d="M.285-5.336h-6.7A1.082,1.082,0,0,1-7.5-6.418,1.082,1.082,0,0,1-6.418-7.5h6.7A1.082,1.082,0,0,1,1.366-6.418,1.082,1.082,0,0,1,.285-5.336Z" transform="translate(44.656 25.277)"/>
        <path id="Elipse_7" data-name="Elipse 7" d="M-4.087-7.5A3.417,3.417,0,0,1-.673-4.087,3.417,3.417,0,0,1-4.087-.673,3.417,3.417,0,0,1-7.5-4.087,3.417,3.417,0,0,1-4.087-7.5Zm0,4.663a1.251,1.251,0,0,0,1.25-1.25,1.251,1.251,0,0,0-1.25-1.25,1.251,1.251,0,0,0-1.25,1.25A1.251,1.251,0,0,0-4.087-2.837Z" transform="translate(56.022 25.277)"/>
        <path id="Línea_112" data-name="Línea 112" d="M-3.067-5.336H-6.418A1.082,1.082,0,0,1-7.5-6.418,1.082,1.082,0,0,1-6.418-7.5h3.351A1.082,1.082,0,0,1-1.985-6.418,1.082,1.082,0,0,1-3.067-5.336Z" transform="translate(65.347 29.94)"/>
        <path id="Línea_113" data-name="Línea 113" d="M.284-5.336h-6.7A1.082,1.082,0,0,1-7.5-6.418,1.082,1.082,0,0,1-6.418-7.5h6.7A1.082,1.082,0,0,1,1.366-6.418,1.082,1.082,0,0,1,.284-5.336Z" transform="translate(65.347 25.277)"/>
      </g>
    </g>
  </g>
</svg>
