<svg xmlns="http://www.w3.org/2000/svg" width="975" height="267" viewBox="0 0 975 267">
  <g id="Grupo_18" data-name="Grupo 18" transform="translate(10959 10059)">
    <path id="Trazado_106771" data-name="Trazado 106771" d="M10,0H965a10,10,0,0,1,10,10V257a10,10,0,0,1-10,10H10A10,10,0,0,1,0,257V10A10,10,0,0,1,10,0Z" transform="translate(-10959 -10059)" fill="#f3f9ff"/>
    <g id="app" transform="translate(-10805.479 -9989.393)">
      <g id="Grupo_92560" data-name="Grupo 92560" transform="translate(1.133 1.132)">
        <path id="Trazado_106464" data-name="Trazado 106464" d="M150.558,82.622H116.294a4.7,4.7,0,0,1-4.7-4.7V12.19a4.7,4.7,0,0,1,4.7-4.7h34.264a4.7,4.7,0,0,1,4.7,4.7V77.927a4.7,4.7,0,0,1-4.7,4.695Z" transform="translate(-111.599 -7.495)" fill="#eaf6ff"/>
      </g>
      <g id="Grupo_92561" data-name="Grupo 92561" transform="translate(37.804 1.132)">
        <path id="Trazado_106465" data-name="Trazado 106465" d="M361.186,12.186V77.928a4.693,4.693,0,0,1-4.693,4.693H354.2a3.041,3.041,0,0,0,3.041-3.041V10.534A3.041,3.041,0,0,0,354.2,7.493h2.291a4.693,4.693,0,0,1,4.693,4.693Z" transform="translate(-354.202 -7.493)" fill="#d8ecfe"/>
      </g>
      <g id="Grupo_92562" data-name="Grupo 92562" transform="translate(10.798 1.133)">
        <path id="Trazado_106466" data-name="Trazado 106466" d="M187.7,7.5H175.54l1.185,5.3a1.53,1.53,0,0,0,1.493,1.2h18.968a1.53,1.53,0,0,0,1.493-1.2l1.185-5.3Z" transform="translate(-175.54 -7.496)" fill="#537983"/>
      </g>
      <g id="Grupo_92563" data-name="Grupo 92563" transform="translate(29.502 1.132)">
        <path id="Trazado_106467" data-name="Trazado 106467" d="M304.9,7.493l-1.184,5.3a1.532,1.532,0,0,1-1.494,1.2h-2.943a1.529,1.529,0,0,0,1.493-1.2l1.186-5.3Z" transform="translate(-299.276 -7.493)" fill="#3e5959"/>
      </g>
      <g id="Grupo_92571" data-name="Grupo 92571">
        <g id="Grupo_92566" data-name="Grupo 92566" transform="translate(11.308 55.159)">
          <g id="Grupo_92564" data-name="Grupo 92564">
            <path id="Trazado_106468" data-name="Trazado 106468" d="M198.915,371.515h-16.7a3.3,3.3,0,0,1,0-6.6h16.7a3.3,3.3,0,1,1,0,6.6Z" transform="translate(-178.91 -364.914)" fill="#4dd0e1"/>
          </g>
          <g id="Grupo_92565" data-name="Grupo 92565" transform="translate(16.55)">
            <path id="Trazado_106469" data-name="Trazado 106469" d="M295.157,368.213a3.3,3.3,0,0,1-3.3,3.3H288.4a3.3,3.3,0,0,0,0-6.6h3.455a3.3,3.3,0,0,1,3.3,3.3Z" transform="translate(-288.401 -364.912)" fill="#4dd0e1"/>
          </g>
        </g>
        <g id="Grupo_92570" data-name="Grupo 92570">
          <g id="Grupo_92567" data-name="Grupo 92567" transform="translate(11.993 15.668)">
            <path id="Trazado_106470" data-name="Trazado 106470" d="M204.454,105.994a5.371,5.371,0,0,0-8.03-.963,7.56,7.56,0,0,0-2.011,3.208,7.56,7.56,0,0,0-2.011-3.208,5.371,5.371,0,0,0-8.03.963,5.787,5.787,0,0,0-.924,3.426,8.383,8.383,0,0,0,1.449,4.493,25.916,25.916,0,0,0,8.772,7.582,1.536,1.536,0,0,0,1.49,0,25.916,25.916,0,0,0,8.772-7.582,8.383,8.383,0,0,0,1.449-4.493,5.785,5.785,0,0,0-.924-3.426Z" transform="translate(-183.446 -103.65)" fill="#ffca28"/>
          </g>
          <g id="Grupo_92568" data-name="Grupo 92568" transform="translate(21.219 15.667)">
            <path id="Trazado_106471" data-name="Trazado 106471" d="M257.189,109.416a8.371,8.371,0,0,1-1.45,4.491,25.891,25.891,0,0,1-8.771,7.582,1.531,1.531,0,0,1-1.489,0q-.513-.285-1-.579a25.863,25.863,0,0,0,8.682-7.531,8.381,8.381,0,0,0,1.448-4.493,5.784,5.784,0,0,0-.924-3.427,5.263,5.263,0,0,0-2.095-1.81,5.344,5.344,0,0,1,4.669,2.339,5.792,5.792,0,0,1,.93,3.428Z" transform="translate(-244.483 -103.645)" fill="#fe2aa8"/>
          </g>
          <g id="Grupo_92569" data-name="Grupo 92569">
            <path id="Trazado_106472" data-name="Trazado 106472" d="M148.891,14.77a1.133,1.133,0,0,0,1.133-1.133V5.825A5.832,5.832,0,0,0,144.2,0H109.93a5.832,5.832,0,0,0-5.83,5.825V71.567a5.832,5.832,0,0,0,5.825,5.825H144.2a5.832,5.832,0,0,0,5.825-5.825V18.848a1.133,1.133,0,0,0-2.266,0V71.567a3.563,3.563,0,0,1-3.559,3.559H109.93a3.563,3.563,0,0,1-3.559-3.559V5.825a3.563,3.563,0,0,1,3.559-3.559h4.065l.987,4.411a2.648,2.648,0,0,0,2.6,2.082H136.55a2.648,2.648,0,0,0,2.6-2.082l.987-4.411H144.2a3.563,3.563,0,0,1,3.559,3.559v7.811a1.133,1.133,0,0,0,1.133,1.133ZM136.935,6.182a.4.4,0,0,1-.388.311H117.579a.4.4,0,0,1-.388-.311l-.876-3.916h21.5Z" transform="translate(-104.103)"/>
            <path id="Trazado_106473" data-name="Trazado 106473" d="M220.155,462.494a1.133,1.133,0,0,0,0,2.266h8.913a1.133,1.133,0,0,0,0-2.266Z" transform="translate(-201.651 -392.585)"/>
            <path id="Trazado_106474" data-name="Trazado 106474" d="M196.986,361.853a4.439,4.439,0,0,0-4.434-4.434H182.8a1.133,1.133,0,0,0,0,2.266h9.749a2.168,2.168,0,1,1,0,4.335h-16.7a2.168,2.168,0,1,1,0-4.336h1.7a1.133,1.133,0,1,0,0-2.266h-1.705a4.434,4.434,0,1,0,0,8.867h16.7A4.439,4.439,0,0,0,196.986,361.853Z" transform="translate(-161.24 -303.393)"/>
            <path id="Trazado_106475" data-name="Trazado 106475" d="M173.3,254.709a1.133,1.133,0,0,0,1.133,1.133h22.736a1.133,1.133,0,0,0,0-2.266H174.432a1.133,1.133,0,0,0-1.132,1.133Z" transform="translate(-162.84 -215.246)"/>
            <path id="Trazado_106476" data-name="Trazado 106476" d="M174.432,289.237h22.736a1.133,1.133,0,1,0,0-2.266H174.432a1.133,1.133,0,0,0,0,2.266Z" transform="translate(-162.84 -243.593)"/>
            <path id="Trazado_106477" data-name="Trazado 106477" d="M192.018,320.365a1.133,1.133,0,1,0,0,2.266h17.419a1.133,1.133,0,1,0,0-2.266Z" transform="translate(-177.767 -271.939)"/>
            <path id="Trazado_106478" data-name="Trazado 106478" d="M194.437,96.2a6.468,6.468,0,0,0-5.137,1.628,7.921,7.921,0,0,0-1.248,1.464,7.929,7.929,0,0,0-1.248-1.464A6.5,6.5,0,0,0,177.07,99a6.927,6.927,0,0,0-1.117,4.079,9.493,9.493,0,0,0,1.64,5.1,26.729,26.729,0,0,0,9.163,7.942,2.685,2.685,0,0,0,2.591,0,26.725,26.725,0,0,0,9.163-7.942,9.5,9.5,0,0,0,1.64-5.1A6.929,6.929,0,0,0,199.032,99a6.456,6.456,0,0,0-4.595-2.8Zm2.19,10.717a24.372,24.372,0,0,1-8.381,7.222.4.4,0,0,1-.389,0,24.378,24.378,0,0,1-8.381-7.222,7.234,7.234,0,0,1-1.257-3.883,4.713,4.713,0,0,1,.731-2.773,4.193,4.193,0,0,1,2.987-1.812,4.3,4.3,0,0,1,.516-.031,4.188,4.188,0,0,1,2.824,1.085,6.48,6.48,0,0,1,1.682,2.671,1.132,1.132,0,0,0,1.088.829h0a1.136,1.136,0,0,0,1.09-.825A6.483,6.483,0,0,1,190.82,99.5a4.238,4.238,0,0,1,6.327.758,4.713,4.713,0,0,1,.731,2.773,7.234,7.234,0,0,1-1.252,3.887Z" transform="translate(-165.091 -81.621)"/>
          </g>
        </g>
      </g>
    </g>
    <g id="navegador" transform="translate(-10889.93 -9989.393)">
      <g id="Grupo_92576" data-name="Grupo 92576" transform="translate(1.248 1.248)">
        <g id="Grupo_92572" data-name="Grupo 92572" transform="translate(15.404 16.689)">
          <path id="Trazado_106479" data-name="Trazado 106479" d="M69.825,28.639A30.069,30.069,0,0,0,53.86,15.37V46.115a2.5,2.5,0,0,1-2.5,2.5H14.34A29.942,29.942,0,0,0,69.8,58.6h.012a29.962,29.962,0,0,0,.012-29.958Z" transform="translate(-14.34 -15.37)" fill="#4dd0e1"/>
        </g>
        <g id="Grupo_92573" data-name="Grupo 92573">
          <path id="Trazado_106480" data-name="Trazado 106480" d="M2,11.986V4.5A2.5,2.5,0,0,1,4.5,2H54.427a2.5,2.5,0,0,1,2.5,2.5v7.49Z" transform="translate(-2 -2)" fill="#5cd6b3"/>
        </g>
        <g id="Grupo_92574" data-name="Grupo 92574" transform="translate(0 9.986)">
          <path id="Trazado_106481" data-name="Trazado 106481" d="M56.924,22.632V47.448a2.5,2.5,0,0,1-2.5,2.5H4.5a2.5,2.5,0,0,1-2.5-2.5V10H56.924Z" transform="translate(-2 -10)" fill="#e6e9ed"/>
        </g>
        <g id="Grupo_92575" data-name="Grupo 92575" transform="translate(4.993 14.979)">
          <path id="Trazado_106482" data-name="Trazado 106482" d="M6,14H28.469V26.483H6Z" transform="translate(-6 -14)" fill="#fcd770"/>
        </g>
      </g>
      <g id="Grupo_92577" data-name="Grupo 92577">
        <path id="Trazado_106483" data-name="Trazado 106483" d="M16.986,36.883a.105.105,0,0,1-.2.017l-.856-5.128a2.721,2.721,0,0,0-5.368,0L9.7,36.9c-.019.107-.206.091-.2-.017V27H7v9.883a2.6,2.6,0,0,0,5.164.428l.856-5.129a.232.232,0,0,1,.443,0l.856,5.128a2.6,2.6,0,0,0,5.163-.428V27h-2.5Z" transform="translate(0.49 5.455)"/>
        <path id="Trazado_106484" data-name="Trazado 106484" d="M28.986,36.883a.105.105,0,0,1-.2.017l-.856-5.128a2.721,2.721,0,0,0-5.368,0L21.7,36.9a.106.106,0,0,1-.2-.017V27H19v9.883a2.6,2.6,0,0,0,5.164.428l.856-5.129a.232.232,0,0,1,.443,0l.856,5.128a2.6,2.6,0,0,0,5.163-.428V27h-2.5Z" transform="translate(3.469 5.455)"/>
        <path id="Trazado_106485" data-name="Trazado 106485" d="M40.986,36.883a.105.105,0,0,1-.2.017l-.856-5.128a2.721,2.721,0,0,0-5.368,0L33.7,36.9a.106.106,0,0,1-.2-.017V27H31v9.883a2.6,2.6,0,0,0,5.164.428l.856-5.129a.232.232,0,0,1,.443,0l.856,5.128a2.6,2.6,0,0,0,5.163-.428V27h-2.5Z" transform="translate(6.448 5.455)"/>
        <path id="Trazado_106486" data-name="Trazado 106486" d="M13,5h2.5V7.5H13Z" transform="translate(1.979 -0.007)"/>
        <path id="Trazado_106487" data-name="Trazado 106487" d="M5,5H7.5V7.5H5Z" transform="translate(-0.007 -0.007)"/>
        <path id="Trazado_106488" data-name="Trazado 106488" d="M9,5h2.5V7.5H9Z" transform="translate(0.986 -0.007)"/>
        <path id="Trazado_106489" data-name="Trazado 106489" d="M29.965,13H5V27.979H29.965Zm-2.5,12.483H7.5V15.5H27.469Z" transform="translate(-0.007 1.979)"/>
        <path id="Trazado_106490" data-name="Trazado 106490" d="M27,13h2.5v2.5H27Z" transform="translate(5.455 1.979)"/>
        <path id="Trazado_106491" data-name="Trazado 106491" d="M31,13H45.979v2.5H31Z" transform="translate(6.448 1.979)"/>
        <path id="Trazado_106492" data-name="Trazado 106492" d="M27,17H46.972v2.5H27Z" transform="translate(5.455 2.972)"/>
        <path id="Trazado_106493" data-name="Trazado 106493" d="M27,21H46.972v2.5H27Z" transform="translate(5.455 3.965)"/>
        <path id="Trazado_106494" data-name="Trazado 106494" d="M58.42,18.1V4.745A3.749,3.749,0,0,0,54.675,1H4.745A3.749,3.749,0,0,0,1,4.745V49.682a3.749,3.749,0,0,0,3.745,3.745h11.9A31.19,31.19,0,1,0,58.42,18.1ZM47.186,75.9c-4.557,0-8.747-4.932-11.269-12.483H58.43C55.922,70.894,51.776,75.9,47.186,75.9ZM35.176,60.917a50.25,50.25,0,0,1-1.371-7.49h20.87a3.749,3.749,0,0,0,3.745-3.745V48.434H60.9a53.08,53.08,0,0,1-1.719,12.483ZM58.42,30.9a51.361,51.361,0,0,1,2.464,15.035H58.42ZM63.4,48.434H75.864a28.5,28.5,0,0,1-3.471,12.483H61.813A56.433,56.433,0,0,0,63.4,48.434Zm-.017-2.5a56.38,56.38,0,0,0-1.621-12.483h10.6a28.619,28.619,0,0,1,3.48,12.483Zm7.463-14.979H61.059A35.782,35.782,0,0,0,58.42,24.57V20.779A28.686,28.686,0,0,1,70.843,30.958ZM4.745,3.5h49.93a1.249,1.249,0,0,1,1.248,1.248v6.241H3.5V4.745A1.249,1.249,0,0,1,4.745,3.5ZM3.5,49.682v-36.2H55.924v36.2a1.249,1.249,0,0,1-1.248,1.248H4.745A1.249,1.249,0,0,1,3.5,49.682Zm27.8,3.745a53.3,53.3,0,0,0,1.3,7.49H21.975a28.671,28.671,0,0,1-2.781-7.49Zm-7.815,9.986H33.3a27.964,27.964,0,0,0,6.412,11.5,28.579,28.579,0,0,1-16.229-11.5Zm31.3,11.453a27.9,27.9,0,0,0,6.327-11.453h9.736A28.8,28.8,0,0,1,54.789,74.866Z" transform="translate(-1 -1)"/>
        <path id="Trazado_106495" data-name="Trazado 106495" d="M30,45h2.5v2.5H30Z" transform="translate(6.2 9.924)"/>
        <path id="Trazado_106496" data-name="Trazado 106496" d="M34,45h2.5v2.5H34Z" transform="translate(7.193 9.924)"/>
        <path id="Trazado_106497" data-name="Trazado 106497" d="M38,45h2.5v2.5H38Z" transform="translate(8.186 9.924)"/>
      </g>
    </g>
    <path id="Trazado_106498" data-name="Trazado 106498" d="M49.534,94.09l-5.443-4.846a5.272,5.272,0,1,1,7.023-7.866l15.8,14.046a5.267,5.267,0,0,1,0,7.866l-15.8,14.046a5.272,5.272,0,1,1-7.023-7.866l5.443-4.846H21.267a5.267,5.267,0,0,1,0-10.534Z" transform="translate(-10706.244 -10042.354)" fill="#ffc107"/>
    <path id="Trazado_106499" data-name="Trazado 106499" d="M33.359,106.169A7.023,7.023,0,0,1,28.682,93.9l2-1.777H7.023a7.023,7.023,0,1,1,0-14.046H30.676l-2-1.777a7.03,7.03,0,1,1,9.358-10.492l15.8,14.046a7.023,7.023,0,0,1,0,10.5L38.036,104.4a6.994,6.994,0,0,1-4.677,1.769ZM7.023,81.589a3.512,3.512,0,1,0,0,7.023H35.29a1.756,1.756,0,0,1,1.166,3.069l-5.439,4.842a3.511,3.511,0,0,0-.287,4.958l.01.011a3.648,3.648,0,0,0,4.962.281L51.5,87.727a3.529,3.529,0,0,0,0-5.236L35.7,68.445a3.511,3.511,0,1,0-4.688,5.229l5.443,4.846a1.756,1.756,0,0,1-1.166,3.069Z" transform="translate(-10692 -10028.097)"/>
    <path id="Trazado_106500" data-name="Trazado 106500" d="M103.643,84.6H67.016a6.976,6.976,0,0,0-6.042,3.489L42.66,119.812a6.976,6.976,0,0,0,0,6.977l18.314,31.72A6.976,6.976,0,0,0,67.016,162h36.628a6.977,6.977,0,0,0,6.042-3.488L128,126.789a6.978,6.978,0,0,0,0-6.977l-18.314-31.72a6.977,6.977,0,0,0-6.043-3.492Z" transform="translate(-10627.726 -10073.997)" fill="#4dd0e1" stroke="#21214b" stroke-miterlimit="10" stroke-width="2.3"/>
    <g id="Grupo_92579" data-name="Grupo 92579" transform="translate(-10574.53 -9971.632) rotate(30)">
      <path id="Trazado_106501" data-name="Trazado 106501" d="M38.174,130.1a4.274,4.274,0,0,1-4.274-4.274v-1.178H11.955A4.455,4.455,0,0,1,7.5,120.193V109.058a4.455,4.455,0,0,1,4.455-4.455H33.9v-1.179a4.271,4.271,0,0,1,6.931-3.344l14.09,11.2a4.272,4.272,0,0,1,0,6.688l-14.09,11.2a4.286,4.286,0,0,1-2.656.929Z" transform="translate(-7.5 -99.151)" fill="#f5f5f5"/>
    </g>
    <g id="Grupo_92580" data-name="Grupo 92580" transform="translate(-10573.146 -9966.466) rotate(30)">
      <path id="Trazado_106502" data-name="Trazado 106502" d="M87.123,148.8l-14.09-11.2a.49.49,0,0,0-.794.383v4.472a.49.49,0,0,1-.49.49H47.2a1.36,1.36,0,0,0-1.36,1.36v9.76a1.36,1.36,0,0,0,1.36,1.36H71.75a.49.49,0,0,1,.49.49v4.472a.49.49,0,0,0,.794.383l14.09-11.2a.49.49,0,0,0,0-.77Z" transform="translate(-45.839 -137.488)" fill="#fff"/>
    </g>
    <g id="Grupo_92581" data-name="Grupo 92581" transform="translate(-10549.253 -9957.038) rotate(30)">
      <path id="Trazado_106503" data-name="Trazado 106503" d="M321.584,111.281l-14.09-11.2a4.265,4.265,0,0,0-4.14-.663,4.282,4.282,0,0,1,1.181.663l14.09,11.2a4.272,4.272,0,0,1,0,6.688l-14.09,11.2a4.283,4.283,0,0,1-1.182.663,4.266,4.266,0,0,0,1.485.266h0a4.285,4.285,0,0,0,2.656-.929l14.09-11.2a4.272,4.272,0,0,0,0-6.688Z" transform="translate(-303.352 -99.151)" fill="#ebe5ed"/>
    </g>
    <g id="Grupo_92582" data-name="Grupo 92582" transform="translate(-10550.282 -9953.266) rotate(30)">
      <path id="Trazado_106504" data-name="Trazado 106504" d="M328.3,148.8l-14.09-11.2a.49.49,0,0,0-.794.383v1.338l11.925,9.48a.49.49,0,0,1,0,.767l-11.925,9.48v1.338a.49.49,0,0,0,.794.383l14.09-11.2a.49.49,0,0,0,0-.769Z" transform="translate(-313.421 -137.488)" fill="#fcce63"/>
    </g>
    <g id="Grupo_92583" data-name="Grupo 92583" transform="translate(-10574.801 -9972.644) rotate(30)">
      <path id="Trazado_106505" data-name="Trazado 106505" d="M31.414,124.08a5.02,5.02,0,0,1-5.014-5.014v-.438H20.526a.74.74,0,1,1,0-1.48h6.613a.74.74,0,0,1,.74.74v1.178a3.531,3.531,0,0,0,5.73,2.766l14.09-11.2a3.532,3.532,0,0,0,0-5.53L33.61,93.9a3.531,3.531,0,0,0-5.73,2.765v1.179a.74.74,0,0,1-.74.74H5.2A3.719,3.719,0,0,0,1.48,102.3v11.135A3.719,3.719,0,0,0,5.2,117.15H17.566a.74.74,0,1,1,0,1.48H5.2A5.2,5.2,0,0,1,0,113.433V102.3a5.2,5.2,0,0,1,5.2-5.2H26.4v-.439a5.011,5.011,0,0,1,8.131-3.923l14.09,11.2a5.012,5.012,0,0,1,0,7.846l-14.09,11.2a5.028,5.028,0,0,1-3.117,1.09Z" transform="translate(0 -91.651)" fill="#21214b"/>
    </g>
    <g id="Grupo_92584" data-name="Grupo 92584" transform="translate(-10573.417 -9967.477) rotate(30)">
      <path id="Trazado_106506" data-name="Trazado 106506" d="M65.969,154.848a1.234,1.234,0,0,1-.536-.124,1.221,1.221,0,0,1-.7-1.108v-4.222h-24.3a2.1,2.1,0,0,1-2.1-2.1v-9.76a2.1,2.1,0,0,1,2.1-2.1h5.1a.74.74,0,1,1,0,1.48h-5.1a.621.621,0,0,0-.62.62v9.76a.621.621,0,0,0,.62.62h24.55a1.231,1.231,0,0,1,1.23,1.23V153.1l13.438-10.683L66.217,131.732v3.953a1.231,1.231,0,0,1-1.23,1.23H48.5a.74.74,0,1,1,0-1.48H64.738v-4.222a1.23,1.23,0,0,1,2-.963l14.09,11.2a1.23,1.23,0,0,1,0,1.925l-14.09,11.2a1.224,1.224,0,0,1-.764.273Z" transform="translate(-38.338 -129.982)" fill="#21214b"/>
    </g>
    <path id="Trazado_106498-2" data-name="Trazado 106498" d="M49.534,94.09l-5.443-4.846a5.272,5.272,0,1,1,7.023-7.866l15.8,14.046a5.267,5.267,0,0,1,0,7.866l-15.8,14.046a5.272,5.272,0,1,1-7.023-7.866l5.443-4.846H21.267a5.267,5.267,0,0,1,0-10.534Z" transform="translate(-10474.244 -10042.354)" fill="#ffc107"/>
    <path id="Trazado_106499-2" data-name="Trazado 106499" d="M33.359,106.169A7.023,7.023,0,0,1,28.682,93.9l2-1.777H7.023a7.023,7.023,0,1,1,0-14.046H30.676l-2-1.777a7.03,7.03,0,1,1,9.358-10.492l15.8,14.046a7.023,7.023,0,0,1,0,10.5L38.036,104.4a6.994,6.994,0,0,1-4.677,1.769ZM7.023,81.589a3.512,3.512,0,1,0,0,7.023H35.29a1.756,1.756,0,0,1,1.166,3.069l-5.439,4.842a3.511,3.511,0,0,0-.287,4.958l.01.011a3.648,3.648,0,0,0,4.962.281L51.5,87.727a3.529,3.529,0,0,0,0-5.236L35.7,68.445a3.511,3.511,0,1,0-4.688,5.229l5.443,4.846a1.756,1.756,0,0,1-1.166,3.069Z" transform="translate(-10460 -10028.097)"/>
    <path id="Trazado_4" data-name="Trazado 4" d="M30,33H5a4,4,0,0,1-4-4V5A4,4,0,0,1,5,1H30a4,4,0,0,1,4,4V29A4,4,0,0,1,30,33Z" transform="translate(-10376 -9991)" fill="#fff"/>
    <path id="Trazado_5" data-name="Trazado 5" d="M5,2A3,3,0,0,0,2,5V29a3,3,0,0,0,3,3H30a3,3,0,0,0,3-3V5a3,3,0,0,0-3-3H5M5,0H30a5,5,0,0,1,5,5V29a5,5,0,0,1-5,5H5a5,5,0,0,1-5-5V5A5,5,0,0,1,5,0Z" transform="translate(-10376 -9991)" fill="#21214b"/>
    <path id="Trazado_106498-3" data-name="Trazado 106498" d="M49.534,94.09l-5.443-4.846a5.272,5.272,0,1,1,7.023-7.866l15.8,14.046a5.267,5.267,0,0,1,0,7.866l-15.8,14.046a5.272,5.272,0,1,1-7.023-7.866l5.443-4.846H21.267a5.267,5.267,0,0,1,0-10.534Z" transform="translate(-10284.439 -10042.354)" fill="#ffc107"/>
    <path id="Trazado_106499-3" data-name="Trazado 106499" d="M33.359,106.169A7.023,7.023,0,0,1,28.682,93.9l2-1.777H7.023a7.023,7.023,0,1,1,0-14.046H30.676l-2-1.777a7.03,7.03,0,1,1,9.358-10.492l15.8,14.046a7.023,7.023,0,0,1,0,10.5L38.036,104.4a6.994,6.994,0,0,1-4.677,1.769ZM7.023,81.589a3.512,3.512,0,1,0,0,7.023H35.29a1.756,1.756,0,0,1,1.166,3.069l-5.439,4.842a3.511,3.511,0,0,0-.287,4.958l.01.011a3.648,3.648,0,0,0,4.962.281L51.5,87.727a3.529,3.529,0,0,0,0-5.236L35.7,68.445a3.511,3.511,0,1,0-4.688,5.229l5.443,4.846a1.756,1.756,0,0,1-1.166,3.069Z" transform="translate(-10270.195 -10028.097)"/>
    <path id="Trazado_6" data-name="Trazado 6" d="M30,33H5a4,4,0,0,1-4-4V5A4,4,0,0,1,5,1H30a4,4,0,0,1,4,4V29A4,4,0,0,1,30,33Z" transform="translate(-10330 -9991)" fill="#fff"/>
    <path id="Trazado_7" data-name="Trazado 7" d="M5,2A3,3,0,0,0,2,5V29a3,3,0,0,0,3,3H30a3,3,0,0,0,3-3V5a3,3,0,0,0-3-3H5M5,0H30a5,5,0,0,1,5,5V29a5,5,0,0,1-5,5H5a5,5,0,0,1-5-5V5A5,5,0,0,1,5,0Z" transform="translate(-10330 -9991)" fill="#21214b"/>
    <path id="Trazado_8" data-name="Trazado 8" d="M30,33H5a4,4,0,0,1-4-4V5A4,4,0,0,1,5,1H30a4,4,0,0,1,4,4V29A4,4,0,0,1,30,33Z" transform="translate(-10376 -9949)" fill="#fff"/>
    <path id="Trazado_9" data-name="Trazado 9" d="M5,2A3,3,0,0,0,2,5V29a3,3,0,0,0,3,3H30a3,3,0,0,0,3-3V5a3,3,0,0,0-3-3H5M5,0H30a5,5,0,0,1,5,5V29a5,5,0,0,1-5,5H5a5,5,0,0,1-5-5V5A5,5,0,0,1,5,0Z" transform="translate(-10376 -9949)" fill="#21214b"/>
    <path id="Trazado_10" data-name="Trazado 10" d="M30,33H5a4,4,0,0,1-4-4V5A4,4,0,0,1,5,1H30a4,4,0,0,1,4,4V29A4,4,0,0,1,30,33Z" transform="translate(-10330 -9949)" fill="#fff"/>
    <path id="Trazado_11" data-name="Trazado 11" d="M5,2A3,3,0,0,0,2,5V29a3,3,0,0,0,3,3H30a3,3,0,0,0,3-3V5a3,3,0,0,0-3-3H5M5,0H30a5,5,0,0,1,5,5V29a5,5,0,0,1-5,5H5a5,5,0,0,1-5-5V5A5,5,0,0,1,5,0Z" transform="translate(-10330 -9949)" fill="#21214b"/>
    <path id="Trazado_106507" data-name="Trazado 106507" d="M44.74,74.968h4.2A12.34,12.34,0,0,1,56.41,69a4.328,4.328,0,0,0-5.294-2.482c0-.066,0-.131,0-.2a5.815,5.815,0,0,0-11.486-1.286,3.49,3.49,0,0,0-3.975,1.325,4.375,4.375,0,1,0-1.1,8.609h6.994" transform="translate(-10394.56 -10042.418)" fill="#9fdef7"/>
    <path id="Trazado_106508" data-name="Trazado 106508" d="M49.647,135.085a12.314,12.314,0,0,0-21.007,5.684,7.388,7.388,0,0,0-8.418,2.806,9.264,9.264,0,1,0-2.33,18.231H28.106a5.737,5.737,0,0,1,7.449-5.433c0-.087-.007-.174-.007-.262a7.711,7.711,0,0,1,15.232-1.706,4.626,4.626,0,0,1,5.271,1.758,5.807,5.807,0,0,1,6.433,2.63,9.159,9.159,0,0,0-9.53-14.881c0-.139.01-.278.01-.418a12.261,12.261,0,0,0-1.41-5.728" transform="translate(-10375.454 -10105.06)" fill="#beeafc"/>
    <path id="Trazado_106509" data-name="Trazado 106509" d="M202.916,301.906H185.75a5.733,5.733,0,1,1,1.717-11.2c0-.087-.007-.174-.007-.262a7.711,7.711,0,0,1,15.232-1.706,4.626,4.626,0,0,1,5.271,1.758,5.8,5.8,0,1,1,1.459,11.416H206.1" transform="translate(-10527.364 -10239.387)" fill="#e4f2f9"/>
    <path id="Trazado_106510" data-name="Trazado 106510" d="M191.865,291.255a14.288,14.288,0,0,1,1.228-5.813,7.713,7.713,0,0,0-5.633,7.426c0,.088,0,.175.007.262a5.734,5.734,0,1,0-1.717,11.2h14.569a14.341,14.341,0,0,1-8.454-13.08Z" transform="translate(-10527.364 -10241.793)" fill="#d7edf9"/>
    <path id="Trazado_106511" data-name="Trazado 106511" d="M18.454,240.043c-.185-.011-.371-.017-.558-.017a9.263,9.263,0,1,0,0,18.527H28.108a5.708,5.708,0,0,1,.71-2.726,28.745,28.745,0,0,1-10.364-15.784Z" transform="translate(-10375.456 -10201.537)" fill="#aee4ff"/>
    <path id="Trazado_106512" data-name="Trazado 106512" d="M37.657,111.353a28.718,28.718,0,0,1,1.317-8.623,3.49,3.49,0,0,0-2.233,1.446,4.375,4.375,0,1,0-1.1,8.609h2.051Q37.657,112.073,37.657,111.353Z" transform="translate(-10395.519 -10079.844)" fill="#83d4ed"/>
    <path id="Trazado_106513" data-name="Trazado 106513" d="M58.183,82.362A10.143,10.143,0,0,0,46.27,72.381a13.319,13.319,0,0,0-1.5-5.36.981.981,0,1,0-1.735.913,11.358,11.358,0,0,1,1.3,5.271c0,.1,0,.2-.007.3v.087a.98.98,0,0,0,1.273.967,8.177,8.177,0,0,1,9.25,12.34c-.034-.037-.071-.072-.106-.109s-.077-.08-.116-.119l-.081-.077q-.092-.088-.187-.173l-.031-.027a6.752,6.752,0,0,0-4.465-1.684,6.833,6.833,0,0,0-1.064.083,5.607,5.607,0,0,0-4.982-1.839A8.692,8.692,0,0,0,26.97,84.888a6.8,6.8,0,0,0-.78-.045c-.11,0-.219,0-.328.008l-.124.009c-.066,0-.132.009-.2.015s-.1.012-.157.018l-.157.02-.179.029-.127.023c-.067.013-.133.027-.2.042l-.1.022q-.111.027-.22.057l-.061.017c-.083.024-.166.049-.248.076h-.014a6.734,6.734,0,0,0-4.529,5.354h-9.31a8.283,8.283,0,1,1,2.084-16.3.981.981,0,0,0,1.051-.391,6.407,6.407,0,0,1,7.3-2.434.981.981,0,0,0,1.267-.714A11.459,11.459,0,0,1,22.961,67.9a.971.971,0,0,0,.075-.117A11.406,11.406,0,0,1,29.921,62.3a1,1,0,0,0,.1-.035A11.485,11.485,0,0,1,33,61.871a11.225,11.225,0,0,1,8.281,3.6.981.981,0,0,0,1.433-1.339,13.279,13.279,0,0,0-12.542-3.911A5.285,5.285,0,0,0,25.655,57.7q-.189,0-.378.013A6.8,6.8,0,0,0,12.2,56.248q-.212-.02-.426-.02a4.472,4.472,0,0,0-3.26,1.412A5.355,5.355,0,1,0,7.8,68.3h7a.98.98,0,1,0,0-1.961h-7a3.394,3.394,0,1,1,.855-6.679.981.981,0,0,0,1.051-.391,2.51,2.51,0,0,1,2.859-.954.98.98,0,0,0,1.266-.714,4.835,4.835,0,0,1,9.549,1.07v.166a.981.981,0,0,0,1.273.968,3.351,3.351,0,0,1,3.533,1l-.1.042-.185.077c-.1.04-.193.081-.289.123-.114.05-.227.1-.34.158l-.117.056a13.211,13.211,0,0,0-2.512,1.6,13.353,13.353,0,0,0-2.7,2.972c-.032.048-.063.1-.094.145q-.09.138-.177.279c-.017.027-.035.053-.051.081H17.984a.98.98,0,0,0,0,1.961h2.66c-.128.322-.245.649-.348.981a8.367,8.367,0,0,0-8.126,2.909A10.244,10.244,0,1,0,10.244,92.5h9.3a6.723,6.723,0,0,0,6.646,5.772H43.356a.98.98,0,0,0,0-1.961H26.19a4.758,4.758,0,0,1-4.753-4.753V91.49c0-.068,0-.136.006-.2v-.025a1.964,1.964,0,0,1,.018-.217h0a4.757,4.757,0,0,1,6.148-4.021.981.981,0,0,0,1.273-.967v-.23a6.731,6.731,0,0,1,13.3-1.49.981.981,0,0,0,1.267.714,3.645,3.645,0,0,1,4.156,1.38.98.98,0,0,0,1.052.391,4.839,4.839,0,0,1,1.213-.154c.1,0,.19,0,.285.009l.106.008.169.016.138.018.111.018a4.824,4.824,0,0,1,3.05,1.864l.009.012a4.817,4.817,0,0,1-3.867,7.695H46.542a.98.98,0,1,0,0,1.961h3.319a6.777,6.777,0,0,0,6.147-9.64A10.11,10.11,0,0,0,58.183,82.362Z" transform="translate(-10367.805 -10034.771)" fill="#21214b"/>
    <g id="Grupo_92595" data-name="Grupo 92595" transform="translate(-10168.48 -9984.48)">
      <g id="Grupo_92585" data-name="Grupo 92585" transform="translate(9.461 21.288)">
        <path id="Trazado_106514" data-name="Trazado 106514" d="M47.846,20v9.461c0,2.614-8.468,4.731-18.923,4.731S10,32.075,10,29.461V20c0,2.614,8.468,4.731,18.923,4.731S47.846,22.614,47.846,20Z" transform="translate(-10 -20)" fill="#4dd0e1"/>
      </g>
      <g id="Grupo_92586" data-name="Grupo 92586" transform="translate(29.165 40.211)">
        <path id="Trazado_106515" data-name="Trazado 106515" d="M44.8,36v9.461c0,2.2-6.032,4.045-14.192,4.577V46.644l-3.039-.769A14.085,14.085,0,0,0,26.66,43.7l1.608-2.708C37.718,40.731,44.8,38.436,44.8,36Z" transform="translate(-26.66 -36)" fill="#4dd0e1"/>
      </g>
      <g id="Grupo_92587" data-name="Grupo 92587" transform="translate(9.461 30.75)">
        <path id="Trazado_106516" data-name="Trazado 106516" d="M10,28c0,2.614,8.468,4.731,18.923,4.731S47.846,30.614,47.846,28v9.461c0,2.436-7.084,4.731-16.534,4.991L26.3,37.438l-2.708,1.608a14.085,14.085,0,0,0-2.176-.911L20.644,35.1h-7.1l-.769,3.039a14.085,14.085,0,0,0-2.176.911l-.6-.355Z" transform="translate(-10 -28)" fill="#dbfbff"/>
      </g>
      <g id="Grupo_92588" data-name="Grupo 92588" transform="translate(9.461 16.558)">
        <ellipse id="Elipse_1720" data-name="Elipse 1720" cx="19" cy="5" rx="19" ry="5" transform="translate(0.019 -0.077)" fill="#dbfbff"/>
      </g>
      <g id="Grupo_92589" data-name="Grupo 92589" transform="translate(0 37.846)">
        <path id="Trazado_106517" data-name="Trazado 106517" d="M35.115,50.4v3.7l-3.039.769a14.085,14.085,0,0,1-.911,2.176l1.608,2.708-5.015,5.015-2.708-1.6a14.085,14.085,0,0,1-2.176.911L22.1,67.115H15l-.769-3.039a14.086,14.086,0,0,1-2.176-.911l-2.7,1.608L4.342,59.759,5.95,57.05a14.085,14.085,0,0,1-.911-2.176L2,54.106v-7.1l3.039-.769a14.085,14.085,0,0,1,.911-2.176l-1.608-2.7,5.015-5.015,2.1,1.259.6.355a14.085,14.085,0,0,1,2.176-.911L15.009,34h7.1l.769,3.039a14.085,14.085,0,0,1,2.176.911l2.708-1.608,5.015,5.015-1.608,2.708a14.085,14.085,0,0,1,.911,2.176l3.039.769Zm-7.1.154a9.461,9.461,0,1,0-9.461,9.461,9.461,9.461,0,0,0,9.461-9.461Z" transform="translate(-2 -34)" fill="#ffc729"/>
      </g>
      <g id="Grupo_92590" data-name="Grupo 92590" transform="translate(7.096 44.942)">
        <path id="Trazado_106518" data-name="Trazado 106518" d="M17.461,40A9.461,9.461,0,1,1,8,49.461,9.461,9.461,0,0,1,17.461,40Zm4.731,9.461a4.731,4.731,0,1,0-4.731,4.731,4.731,4.731,0,0,0,4.731-4.731Z" transform="translate(-8 -40)" fill="#fcd770"/>
      </g>
      <g id="Grupo_92591" data-name="Grupo 92591" transform="translate(54.403)">
        <path id="Trazado_106519" data-name="Trazado 106519" d="M64.558,2V25.654H48V2Z" transform="translate(-48 -2)" fill="#e6e9ed"/>
      </g>
      <g id="Grupo_92592" data-name="Grupo 92592" transform="translate(54.403 47.307)">
        <path id="Trazado_106520" data-name="Trazado 106520" d="M64.558,42V65.654H48V42Z" transform="translate(-48 -42)" fill="#e6e9ed"/>
      </g>
      <g id="Grupo_92593" data-name="Grupo 92593" transform="translate(59.134 61.499)">
        <path id="Trazado_106521" data-name="Trazado 106521" d="M52,54h7.1v4.731H52Z" transform="translate(-52 -54)" fill="#b4dd7f"/>
      </g>
      <g id="Grupo_92594" data-name="Grupo 92594" transform="translate(59.134 31.932)">
        <ellipse id="Elipse_1721" data-name="Elipse 1721" cx="3.5" cy="4" rx="3.5" ry="4" transform="translate(0.347 -0.452)" fill="#ff826e"/>
      </g>
    </g>
    <g id="Grupo_92602" data-name="Grupo 92602" transform="translate(-10169.663 -9985.663)">
      <g id="Grupo_92596" data-name="Grupo 92596" transform="translate(9.461 22.471)">
        <path id="Trazado_106522" data-name="Trazado 106522" d="M9,20h2.365V40.148H9Z" transform="translate(-9 -20)" fill="#12263f"/>
      </g>
      <g id="Grupo_92597" data-name="Grupo 92597" transform="translate(34.221 22.471)">
        <path id="Trazado_106523" data-name="Trazado 106523" d="M30.088,54.14l-.153-2.361c9.193-.594,13.086-2.669,13.086-3.4V20h2.365V48.384C45.387,52.809,33.677,53.909,30.088,54.14Z" transform="translate(-29.935 -20)" fill="#12263f"/>
      </g>
      <g id="Grupo_92598" data-name="Grupo 92598" transform="translate(7.096 44.942)">
        <path id="Trazado_106524" data-name="Trazado 106524" d="M17.644,60.288A10.644,10.644,0,1,1,28.288,49.644,10.644,10.644,0,0,1,17.644,60.288Zm0-18.923a8.279,8.279,0,1,0,8.279,8.279,8.279,8.279,0,0,0-8.279-8.279Z" transform="translate(-7 -39)" fill="#12263f"/>
      </g>
      <g id="Grupo_92599" data-name="Grupo 92599" transform="translate(0 37.846)">
        <path id="Trazado_106525" data-name="Trazado 106525" d="M23.207,68.48H14.272l-.843-3.314c-.377-.141-.756-.3-1.131-.473l-2.944,1.75L3.037,60.125l1.75-2.944c-.174-.375-.332-.755-.473-1.131L1,55.207V46.272l3.314-.843c.141-.376.3-.756.473-1.131l-1.75-2.944,6.318-6.318,2.945,1.75c.375-.174.753-.332,1.131-.473L14.273,33h8.935l.843,3.314c.377.141.756.3,1.131.473l2.944-1.749,6.318,6.318L32.693,44.3c.174.375.332.755.473,1.131l3.314.843v8.935l-3.314.843c-.141.376-.3.756-.473,1.131l1.75,2.944-6.318,6.318L25.181,64.7c-.375.174-.753.332-1.131.473Zm-7.1-2.365h5.257l.708-2.784.624-.2a13.017,13.017,0,0,0,1.99-.833l.583-.3,2.479,1.474,3.717-3.717L30,57.276l.3-.582a12.983,12.983,0,0,0,.83-1.994l.2-.624,2.785-.706V48.112L31.331,47.4l-.2-.624a12.984,12.984,0,0,0-.833-1.994L30,44.2l1.474-2.478L27.755,38.01l-2.479,1.474-.583-.3a13.016,13.016,0,0,0-1.99-.833l-.624-.2-.708-2.784H16.112L15.4,38.149l-.624.2a13.017,13.017,0,0,0-1.99.833l-.583.3L9.727,38.01,6.01,41.727,7.483,44.2l-.3.582a12.983,12.983,0,0,0-.833,1.994l-.2.624-2.784.706v5.257l2.784.707.2.624a12.983,12.983,0,0,0,.833,1.994l.3.582L6.009,59.753,9.726,63.47,12.2,62l.583.3a13.016,13.016,0,0,0,1.99.833l.624.2Z" transform="translate(-1 -33)" fill="#12263f"/>
      </g>
      <g id="Grupo_92600" data-name="Grupo 92600" transform="translate(11.827 49.673)">
        <path id="Trazado_106526" data-name="Trazado 106526" d="M16.913,54.827a5.913,5.913,0,1,1,5.913-5.913,5.913,5.913,0,0,1-5.913,5.913Zm0-9.461a3.548,3.548,0,1,0,3.548,3.548,3.548,3.548,0,0,0-3.548-3.548Z" transform="translate(-11 -43)" fill="#12263f"/>
      </g>
      <g id="Grupo_92601" data-name="Grupo 92601" transform="translate(9.461)">
        <path id="Trazado_106527" data-name="Trazado 106527" d="M29.106,26.827c6.954,0,20.106-1.236,20.106-5.913S36.06,15,29.106,15,9,16.236,9,20.913,22.151,26.827,29.106,26.827Zm0-9.461c11.524,0,17.74,2.518,17.74,3.548s-6.216,3.548-17.74,3.548-17.74-2.518-17.74-3.548,6.216-3.549,17.74-3.549Z" transform="translate(-9 1.558)" fill="#12263f"/>
        <path id="Trazado_106528" data-name="Trazado 106528" d="M29.173,29.322c.784-.031,1.586-.076,2.4-.135l-.17-2.358c-.788.057-1.566.1-2.325.13Z" transform="translate(-5.332 3.718)" fill="#12263f"/>
        <path id="Trazado_106529" data-name="Trazado 106529" d="M33.256,29.048c.8-.088,1.6-.19,2.4-.312L35.293,26.4c-.76.117-1.528.215-2.294.3Z" transform="translate(-4.616 3.64)" fill="#12263f"/>
        <path id="Trazado_106530" data-name="Trazado 106530" d="M37.339,28.453c.828-.173,1.627-.37,2.38-.587l-.653-2.273c-.7.2-1.441.382-2.213.545Z" transform="translate(-3.912 3.493)" fill="#12263f"/>
        <path id="Trazado_106531" data-name="Trazado 106531" d="M33,42.755l.257,2.351c.8-.088,1.6-.19,2.4-.312L35.3,42.456c-.76.118-1.528.216-2.294.3Z" transform="translate(-4.616 6.573)" fill="#12263f"/>
        <path id="Trazado_106532" data-name="Trazado 106532" d="M36.853,42.2l.486,2.315c.837-.175,1.638-.373,2.38-.585l-.653-2.273C38.38,41.847,37.636,42.032,36.853,42.2Z" transform="translate(-3.912 6.426)" fill="#12263f"/>
        <path id="Trazado_106533" data-name="Trazado 106533" d="M49.211,28H46.846c0,1.03-6.216,3.548-17.74,3.548S11.365,29.03,11.365,28H9c0,4.678,13.151,5.913,20.106,5.913S49.211,32.678,49.211,28Z" transform="translate(-9 3.932)" fill="#12263f"/>
        <path id="Trazado_106534" data-name="Trazado 106534" d="M27.993,39.811l.066,2.365C36.576,41.937,45.741,39.9,45.741,36H43.376C43.376,37.01,38.143,39.526,27.993,39.811Z" transform="translate(-5.53 5.394)" fill="#12263f"/>
        <path id="Trazado_106535" data-name="Trazado 106535" d="M66.836,27.019V1H47.913V27.019h8.279V33.1a4.725,4.725,0,0,0-3.38,3.38H42v2.365H52.812a4.725,4.725,0,0,0,3.38,3.38v6.081H47.913v26.02H66.836V48.307H58.558V42.226a4.708,4.708,0,0,0,0-9.126V27.019ZM64.471,71.961H50.279V50.673H64.471Zm-4.731-34.3A2.365,2.365,0,1,1,57.375,35.3a2.365,2.365,0,0,1,2.365,2.361Zm-9.461-34.3H64.471V24.654H50.279Z" transform="translate(-2.972 -1)" fill="#12263f"/>
        <path id="Trazado_106536" data-name="Trazado 106536" d="M51,45h9.461v2.365H51Z" transform="translate(-1.327 7.038)" fill="#12263f"/>
        <path id="Trazado_106537" data-name="Trazado 106537" d="M60.461,53H51v7.1h9.461ZM58.1,57.731H53.365V55.365H58.1Z" transform="translate(-1.327 8.499)" fill="#12263f"/>
        <path id="Trazado_106538" data-name="Trazado 106538" d="M51,5h9.461V7.365H51Z" transform="translate(-1.327 -0.269)" fill="#12263f"/>
        <path id="Trazado_106539" data-name="Trazado 106539" d="M51,9h9.461v2.365H51Z" transform="translate(-1.327 0.461)" fill="#12263f"/>
        <path id="Trazado_106540" data-name="Trazado 106540" d="M51,13h9.461v2.365H51Z" transform="translate(-1.327 1.192)" fill="#12263f"/>
        <path id="Trazado_106541" data-name="Trazado 106541" d="M51,17h9.461v2.365H51Z" transform="translate(-1.327 1.923)" fill="#12263f"/>
        <path id="Trazado_106542" data-name="Trazado 106542" d="M51,49h9.461v2.365H51Z" transform="translate(-1.327 7.769)" fill="#12263f"/>
        <path id="Trazado_106543" data-name="Trazado 106543" d="M27,19h2.365v2.365H27Z" transform="translate(-5.712 2.288)" fill="#12263f"/>
        <path id="Trazado_106544" data-name="Trazado 106544" d="M31,19h2.365v2.365H31Z" transform="translate(-4.981 2.288)" fill="#12263f"/>
        <path id="Trazado_106545" data-name="Trazado 106545" d="M35,19h2.365v2.365H35Z" transform="translate(-4.25 2.288)" fill="#12263f"/>
        <path id="Trazado_106546" data-name="Trazado 106546" d="M15,19h2.365v2.365H15Z" transform="translate(-7.904 2.288)" fill="#12263f"/>
        <path id="Trazado_106547" data-name="Trazado 106547" d="M19,19h2.365v2.365H19Z" transform="translate(-7.173 2.288)" fill="#12263f"/>
        <path id="Trazado_106548" data-name="Trazado 106548" d="M23,19h2.365v2.365H23Z" transform="translate(-6.442 2.288)" fill="#12263f"/>
      </g>
    </g>
    <g id="Grupo_92579-2" data-name="Grupo 92579" transform="translate(-10510.54 -9929.563) rotate(-150)">
      <path id="Trazado_106501-2" data-name="Trazado 106501" d="M38.174,130.1a4.274,4.274,0,0,1-4.274-4.274v-1.178H11.955A4.455,4.455,0,0,1,7.5,120.193V109.058a4.455,4.455,0,0,1,4.455-4.455H33.9v-1.179a4.271,4.271,0,0,1,6.931-3.344l14.09,11.2a4.272,4.272,0,0,1,0,6.688l-14.09,11.2a4.286,4.286,0,0,1-2.656.929Z" transform="translate(-7.5 -99.151)" fill="#f5f5f5"/>
    </g>
    <g id="Grupo_92580-2" data-name="Grupo 92580" transform="translate(-10511.925 -9934.729) rotate(-150)">
      <path id="Trazado_106502-2" data-name="Trazado 106502" d="M87.123,148.8l-14.09-11.2a.49.49,0,0,0-.794.383v4.472a.49.49,0,0,1-.49.49H47.2a1.36,1.36,0,0,0-1.36,1.36v9.76a1.36,1.36,0,0,0,1.36,1.36H71.75a.49.49,0,0,1,.49.49v4.472a.49.49,0,0,0,.794.383l14.09-11.2a.49.49,0,0,0,0-.77Z" transform="translate(-45.839 -137.488)" fill="#fff"/>
    </g>
    <g id="Grupo_92581-2" data-name="Grupo 92581" transform="translate(-10535.817 -9944.157) rotate(-150)">
      <path id="Trazado_106503-2" data-name="Trazado 106503" d="M321.584,111.281l-14.09-11.2a4.265,4.265,0,0,0-4.14-.663,4.282,4.282,0,0,1,1.181.663l14.09,11.2a4.272,4.272,0,0,1,0,6.688l-14.09,11.2a4.283,4.283,0,0,1-1.182.663,4.266,4.266,0,0,0,1.485.266h0a4.285,4.285,0,0,0,2.656-.929l14.09-11.2a4.272,4.272,0,0,0,0-6.688Z" transform="translate(-303.352 -99.151)" fill="#ebe5ed"/>
    </g>
    <g id="Grupo_92582-2" data-name="Grupo 92582" transform="translate(-10534.788 -9947.93) rotate(-150)">
      <path id="Trazado_106504-2" data-name="Trazado 106504" d="M328.3,148.8l-14.09-11.2a.49.49,0,0,0-.794.383v1.338l11.925,9.48a.49.49,0,0,1,0,.767l-11.925,9.48v1.338a.49.49,0,0,0,.794.383l14.09-11.2a.49.49,0,0,0,0-.769Z" transform="translate(-313.421 -137.488)" fill="#fcce63"/>
    </g>
    <g id="Grupo_92583-2" data-name="Grupo 92583" transform="translate(-10510.27 -9928.552) rotate(-150)">
      <path id="Trazado_106505-2" data-name="Trazado 106505" d="M31.414,124.08a5.02,5.02,0,0,1-5.014-5.014v-.438H20.526a.74.74,0,1,1,0-1.48h6.613a.74.74,0,0,1,.74.74v1.178a3.531,3.531,0,0,0,5.73,2.766l14.09-11.2a3.532,3.532,0,0,0,0-5.53L33.61,93.9a3.531,3.531,0,0,0-5.73,2.765v1.179a.74.74,0,0,1-.74.74H5.2A3.719,3.719,0,0,0,1.48,102.3v11.135A3.719,3.719,0,0,0,5.2,117.15H17.566a.74.74,0,1,1,0,1.48H5.2A5.2,5.2,0,0,1,0,113.433V102.3a5.2,5.2,0,0,1,5.2-5.2H26.4v-.439a5.011,5.011,0,0,1,8.131-3.923l14.09,11.2a5.012,5.012,0,0,1,0,7.846l-14.09,11.2a5.028,5.028,0,0,1-3.117,1.09Z" transform="translate(0 -91.651)" fill="#21214b"/>
    </g>
    <g id="Grupo_92584-2" data-name="Grupo 92584" transform="translate(-10511.653 -9933.719) rotate(-150)">
      <path id="Trazado_106506-2" data-name="Trazado 106506" d="M65.969,154.848a1.234,1.234,0,0,1-.536-.124,1.221,1.221,0,0,1-.7-1.108v-4.222h-24.3a2.1,2.1,0,0,1-2.1-2.1v-9.76a2.1,2.1,0,0,1,2.1-2.1h5.1a.74.74,0,1,1,0,1.48h-5.1a.621.621,0,0,0-.62.62v9.76a.621.621,0,0,0,.62.62h24.55a1.231,1.231,0,0,1,1.23,1.23V153.1l13.438-10.683L66.217,131.732v3.953a1.231,1.231,0,0,1-1.23,1.23H48.5a.74.74,0,1,1,0-1.48H64.738v-4.222a1.23,1.23,0,0,1,2-.963l14.09,11.2a1.23,1.23,0,0,1,0,1.925l-14.09,11.2a1.224,1.224,0,0,1-.764.273Z" transform="translate(-38.338 -129.982)" fill="#21214b"/>
    </g>
    <path id="Trazado_15" data-name="Trazado 15" d="M-76.578,0l1.7-11.375h3.711a3.991,3.991,0,0,1,2.637.777,2.344,2.344,0,0,1,.7,2.3,2.5,2.5,0,0,1-.648,1.336,3.366,3.366,0,0,1-1.328.875,2.214,2.214,0,0,1,1.613.973,2.676,2.676,0,0,1,.371,1.9A3.45,3.45,0,0,1-69.187-.793,4.868,4.868,0,0,1-72.07,0Zm2.336-5.336L-74.859-1.2h2.969a2.7,2.7,0,0,0,1.7-.523,2.175,2.175,0,0,0,.82-1.469,1.822,1.822,0,0,0-.363-1.543,2.008,2.008,0,0,0-1.512-.6h-2.992Zm.18-1.2h2.5a2.33,2.33,0,0,0,1.453-.477,1.941,1.941,0,0,0,.75-1.312,1.452,1.452,0,0,0-.367-1.395,2.435,2.435,0,0,0-1.617-.441h-2.172Zm12.508-.555-.781-.047a1.9,1.9,0,0,0-1.062.3,2.49,2.49,0,0,0-.781.848L-65.078,0h-1.539l1.266-8.453h1.375l-.031,1.2a3.552,3.552,0,0,1,1.031-1A2.384,2.384,0,0,1-61.7-8.609a1.923,1.923,0,0,1,.324.027,1.787,1.787,0,0,1,.254.059Zm.672,2.789A5.387,5.387,0,0,1-59.41-7.43a4,4,0,0,1,2.941-1.18A2.942,2.942,0,0,1-53.91-7.387a4.1,4.1,0,0,1,.6,3.082l-.031.172A5.4,5.4,0,0,1-54.82-1,4.018,4.018,0,0,1-57.766.164a2.945,2.945,0,0,1-2.559-1.219,4.063,4.063,0,0,1-.59-3.078Zm1.508.172a3.681,3.681,0,0,0,.227,2.242,1.6,1.6,0,0,0,1.563.852,2.211,2.211,0,0,0,1.777-.887,4.5,4.5,0,0,0,.926-2.207l.031-.172a3.683,3.683,0,0,0-.238-2.234A1.6,1.6,0,0,0-56.648-7.4a2.212,2.212,0,0,0-1.785.895,4.425,4.425,0,0,0-.91,2.2Zm9.922,1.055L-49.422-2l.039.008.375-1.086,2.492-5.375h1.234l.891,5.375.039,1.211.047.008.43-1.219,2.055-5.375h1.609L-43.93,0h-1.242l-.9-5.148-.117-1.336-.047-.008-.5,1.344L-49.148,0h-1.242l-1.187-8.453h1.6Zm14.758.8a.908.908,0,0,0-.266-.836,3.27,3.27,0,0,0-1.391-.555,5.344,5.344,0,0,1-2.176-.9,1.562,1.562,0,0,1-.582-1.547A2.6,2.6,0,0,1-37.988-7.9,3.935,3.935,0,0,1-35.6-8.609a3.006,3.006,0,0,1,2.188.789,1.943,1.943,0,0,1,.633,1.813l-.016.047h-1.477a1.162,1.162,0,0,0-.336-1A1.515,1.515,0,0,0-35.766-7.4a1.974,1.974,0,0,0-1.254.371,1.334,1.334,0,0,0-.543.871.821.821,0,0,0,.234.781,3.446,3.446,0,0,0,1.375.492,5.217,5.217,0,0,1,2.227.93,1.632,1.632,0,0,1,.586,1.57A2.62,2.62,0,0,1-34.3-.527a4.265,4.265,0,0,1-2.484.691,3.283,3.283,0,0,1-2.395-.828,2.033,2.033,0,0,1-.652-1.906l.016-.047h1.477a1.245,1.245,0,0,0,.445,1.2,2.1,2.1,0,0,0,1.281.379A2.3,2.3,0,0,0-35.3-1.391,1.3,1.3,0,0,0-34.7-2.273Zm6.57,2.438a3.069,3.069,0,0,1-2.629-1.18,3.934,3.934,0,0,1-.6-3.047l.055-.344a5.061,5.061,0,0,1,1.488-3.047,3.89,3.89,0,0,1,2.754-1.156A2.624,2.624,0,0,1-24.7-7.539a3.846,3.846,0,0,1,.461,2.789l-.117.813h-5.469a3.355,3.355,0,0,0,.266,2.121,1.7,1.7,0,0,0,1.617.777,4.177,4.177,0,0,0,1.395-.227,3.661,3.661,0,0,0,1.113-.609l.453,1a4.447,4.447,0,0,1-1.3.738A5.139,5.139,0,0,1-28.125.164Zm.891-7.562a1.948,1.948,0,0,0-1.4.625,3.561,3.561,0,0,0-.9,1.578l.016.047h3.8l.016-.125a2.257,2.257,0,0,0-.219-1.535A1.41,1.41,0,0,0-27.234-7.4Zm9.07.3-.781-.047a1.9,1.9,0,0,0-1.062.3,2.49,2.49,0,0,0-.781.848L-21.687,0h-1.539l1.266-8.453h1.375l-.031,1.2a3.552,3.552,0,0,1,1.031-1,2.384,2.384,0,0,1,1.273-.355,1.923,1.923,0,0,1,.324.027,1.787,1.787,0,0,1,.254.059Zm4.688,8.07h-1.312l6.6-12.352h1.3ZM3.141-2.133l.047.008L8.2-11.375h1.914L8.414,0H6.875L8.148-8.516,8.1-8.531,3.383,0H2.313L.086-8.812H.039L-1.281,0H-2.82l1.7-11.375H.906ZM11.156-4.3A5.387,5.387,0,0,1,12.629-7.43a4,4,0,0,1,2.941-1.18,2.942,2.942,0,0,1,2.559,1.223,4.1,4.1,0,0,1,.6,3.082l-.031.172A5.4,5.4,0,0,1,17.219-1,4.018,4.018,0,0,1,14.273.164a2.945,2.945,0,0,1-2.559-1.219,4.063,4.063,0,0,1-.59-3.078Zm1.508.172a3.681,3.681,0,0,0,.227,2.242,1.6,1.6,0,0,0,1.563.852,2.211,2.211,0,0,0,1.777-.887,4.5,4.5,0,0,0,.926-2.207l.031-.172a3.683,3.683,0,0,0-.238-2.234A1.6,1.6,0,0,0,15.391-7.4a2.212,2.212,0,0,0-1.785.895,4.425,4.425,0,0,0-.91,2.2Zm15.1.227a5.388,5.388,0,0,1-1.32,2.984A3.417,3.417,0,0,1,23.859.164,2.647,2.647,0,0,1,22.469-.18a2.313,2.313,0,0,1-.891-1.008L21.141,0h-1.18l1.828-12.187h1.539l-.711,4.734a3.416,3.416,0,0,1,1.125-.859,3.289,3.289,0,0,1,1.414-.3,2.373,2.373,0,0,1,2.215,1.262,5.062,5.062,0,0,1,.418,3.277ZM26.25-4.07a4.356,4.356,0,0,0-.172-2.4,1.491,1.491,0,0,0-1.5-.891A2.234,2.234,0,0,0,23.34-7a3.1,3.1,0,0,0-.934.957l-.547,3.641a2.012,2.012,0,0,0,.633.973,1.8,1.8,0,0,0,1.164.348,2.149,2.149,0,0,0,1.715-.785,3.978,3.978,0,0,0,.855-2.035ZM30.719,0H29.18l1.266-8.453h1.539Zm1.594-10.617H30.773l.234-1.57h1.539ZM34.75,0H33.211l1.828-12.187h1.539Zm5.844.164a3.069,3.069,0,0,1-2.629-1.18,3.934,3.934,0,0,1-.6-3.047l.055-.344A5.061,5.061,0,0,1,38.91-7.453a3.89,3.89,0,0,1,2.754-1.156,2.624,2.624,0,0,1,2.352,1.07,3.846,3.846,0,0,1,.461,2.789l-.117.813H38.891a3.355,3.355,0,0,0,.266,2.121,1.7,1.7,0,0,0,1.617.777,4.177,4.177,0,0,0,1.395-.227,3.661,3.661,0,0,0,1.113-.609l.453,1a4.447,4.447,0,0,1-1.3.738A5.139,5.139,0,0,1,40.594.164ZM41.484-7.4a1.948,1.948,0,0,0-1.4.625,3.561,3.561,0,0,0-.9,1.578l.016.047H43l.016-.125A2.257,2.257,0,0,0,42.8-6.809,1.41,1.41,0,0,0,41.484-7.4ZM56-2.93H51.711L50.258,0h-1.57l5.8-11.375h1.32L58.125,0h-1.57ZM52.352-4.219h3.4L54.828-9.1l-.047-.008Zm15.023.313A5.4,5.4,0,0,1,66.059-.922,3.4,3.4,0,0,1,63.477.164a2.9,2.9,0,0,1-1.312-.277,2.238,2.238,0,0,1-.9-.816l-.625,4.18H59.1l1.75-11.7h1.18l.078,1.094a3.5,3.5,0,0,1,1.172-.93,3.372,3.372,0,0,1,1.484-.32,2.371,2.371,0,0,1,2.219,1.262A5.081,5.081,0,0,1,67.4-4.07ZM65.859-4.07a4.127,4.127,0,0,0-.2-2.391,1.558,1.558,0,0,0-1.539-.9,2.229,2.229,0,0,0-1.16.309,3,3,0,0,0-.9.84l-.609,4.063a1.819,1.819,0,0,0,.641.816,1.893,1.893,0,0,0,1.1.293,2.237,2.237,0,0,0,1.754-.809,3.935,3.935,0,0,0,.895-2.059Zm10.609.164A5.4,5.4,0,0,1,75.152-.922,3.4,3.4,0,0,1,72.57.164a2.9,2.9,0,0,1-1.312-.277,2.238,2.238,0,0,1-.9-.816l-.625,4.18H68.2l1.75-11.7h1.18L71.2-7.359a3.5,3.5,0,0,1,1.172-.93,3.372,3.372,0,0,1,1.484-.32,2.371,2.371,0,0,1,2.219,1.262,5.081,5.081,0,0,1,.414,3.277ZM74.953-4.07a4.127,4.127,0,0,0-.2-2.391,1.558,1.558,0,0,0-1.539-.9,2.229,2.229,0,0,0-1.16.309,3,3,0,0,0-.9.84l-.609,4.063a1.819,1.819,0,0,0,.641.816,1.893,1.893,0,0,0,1.1.293,2.237,2.237,0,0,0,1.754-.809,3.935,3.935,0,0,0,.895-2.059Z" transform="translate(-10818 -9881)" fill="#12263f"/>
    <path id="Trazado_14" data-name="Trazado 14" d="M-40.508-2.93H-44.8L-46.25,0h-1.57l5.8-11.375h1.32L-38.383,0h-1.57Zm-3.648-1.289h3.4L-41.68-9.1l-.047-.008Zm9,2.977.016.039h4.828l-.18,1.2h-6.719l.164-1.078L-31.594-7.2l-.016-.039H-36.07l.18-1.219h6.4l-.156,1.047ZM-23.312,0l.086-1.211A3.446,3.446,0,0,1-24.4-.187a3.209,3.209,0,0,1-1.5.352,2.33,2.33,0,0,1-2-.895,3.643,3.643,0,0,1-.383-2.738l.742-4.984h1.539l-.75,5a2.963,2.963,0,0,0,.109,1.883,1.311,1.311,0,0,0,1.18.484,2.718,2.718,0,0,0,1.4-.348,2.712,2.712,0,0,0,.969-.98l.9-6.039h1.539L-21.93,0Zm8.688-7.094-.781-.047a1.9,1.9,0,0,0-1.062.3,2.49,2.49,0,0,0-.781.848L-18.148,0h-1.539l1.266-8.453h1.375l-.031,1.2a3.552,3.552,0,0,1,1.031-1,2.384,2.384,0,0,1,1.273-.355,1.923,1.923,0,0,1,.324.027,1.787,1.787,0,0,1,.254.059ZM-10.758.164a3.069,3.069,0,0,1-2.629-1.18,3.934,3.934,0,0,1-.6-3.047l.055-.344a5.061,5.061,0,0,1,1.488-3.047A3.89,3.89,0,0,1-9.687-8.609a2.624,2.624,0,0,1,2.352,1.07A3.846,3.846,0,0,1-6.875-4.75l-.117.813h-5.469A3.355,3.355,0,0,0-12.2-1.816a1.7,1.7,0,0,0,1.617.777,4.177,4.177,0,0,0,1.395-.227A3.661,3.661,0,0,0-8.07-1.875l.453,1a4.447,4.447,0,0,1-1.3.738A5.139,5.139,0,0,1-10.758.164ZM-9.867-7.4a1.948,1.948,0,0,0-1.4.625,3.561,3.561,0,0,0-.9,1.578l.016.047h3.8l.016-.125a2.257,2.257,0,0,0-.219-1.535A1.41,1.41,0,0,0-9.867-7.4ZM7.8-10.164H4.055L2.531,0H.992L2.516-10.164h-3.7l.18-1.211H7.984Zm4.359,3.07-.781-.047a1.9,1.9,0,0,0-1.062.3,2.49,2.49,0,0,0-.781.848L8.641,0H7.1L8.367-8.453H9.742l-.031,1.2a3.552,3.552,0,0,1,1.031-1,2.384,2.384,0,0,1,1.273-.355,1.923,1.923,0,0,1,.324.027,1.787,1.787,0,0,1,.254.059ZM17.9,0q-.016-.438-.016-.707a4.986,4.986,0,0,1,.031-.551A4.564,4.564,0,0,1,16.637-.246a3.193,3.193,0,0,1-1.543.41A2.41,2.41,0,0,1,13.207-.52a2.155,2.155,0,0,1-.434-1.855,2.584,2.584,0,0,1,1.25-1.914A5.194,5.194,0,0,1,16.8-4.953h1.672l.125-.836a1.369,1.369,0,0,0-.27-1.191A1.593,1.593,0,0,0,17.1-7.4a2.134,2.134,0,0,0-1.25.375,1.3,1.3,0,0,0-.609.9l-1.469.016-.008-.047a2.422,2.422,0,0,1,1.117-1.707,4.1,4.1,0,0,1,2.484-.746,3.053,3.053,0,0,1,2.172.738,2.258,2.258,0,0,1,.594,2.1L19.523-1.7a6.686,6.686,0,0,0-.09.887A4.511,4.511,0,0,0,19.484,0ZM15.516-1.125a3.032,3.032,0,0,0,1.547-.437A2.613,2.613,0,0,0,18.1-2.547l.211-1.367H16.586a2.54,2.54,0,0,0-1.547.477A1.651,1.651,0,0,0,14.3-2.344a1.011,1.011,0,0,0,.207.9A1.341,1.341,0,0,0,15.516-1.125ZM22.141,0l1.094-7.312h-1.32l.172-1.141h1.32l.164-1.07a3.383,3.383,0,0,1,1.016-2.117,3.034,3.034,0,0,1,2.086-.711,3.143,3.143,0,0,1,.531.047q.273.047.578.117l-.359,1.172q-.141-.031-.34-.055a3.509,3.509,0,0,0-.41-.023,1.406,1.406,0,0,0-1.051.41,2.024,2.024,0,0,0-.512,1.16l-.164,1.07h1.531L26.3-7.312H24.773L23.68,0ZM27.2,0l1.094-7.312H26.961l.172-1.141h1.328l.141-.914a3.361,3.361,0,0,1,1.156-2.23,3.757,3.757,0,0,1,2.43-.754,4.252,4.252,0,0,1,1.012.125,11.614,11.614,0,0,1,1.145.352l-.453,1.25a6.225,6.225,0,0,0-.84-.281,3.715,3.715,0,0,0-.941-.117,2.042,2.042,0,0,0-1.367.414,1.918,1.918,0,0,0-.6,1.242L30-8.453h1.68l-.172,1.141h-1.68L28.734,0Zm6.117,0H31.766l1.266-8.453h1.547Zm5.875-1.039a2.076,2.076,0,0,0,1.293-.477A1.8,1.8,0,0,0,41.2-2.672h1.391l.016.047A2.885,2.885,0,0,1,41.387-.66a3.838,3.838,0,0,1-2.379.824A2.837,2.837,0,0,1,36.48-1.059a4.112,4.112,0,0,1-.559-3l.047-.328a5.417,5.417,0,0,1,1.422-3.035,3.89,3.89,0,0,1,2.93-1.184,2.769,2.769,0,0,1,2.164.883,2.407,2.407,0,0,1,.57,2.148l-.016.039H41.633a1.676,1.676,0,0,0-.3-1.332,1.429,1.429,0,0,0-1.2-.527,2.118,2.118,0,0,0-1.766.895,4.517,4.517,0,0,0-.859,2.113l-.047.328a3.852,3.852,0,0,0,.18,2.168A1.514,1.514,0,0,0,39.188-1.039ZM-25.164,21.867l.047.008,5.016-9.25h1.914L-19.891,24H-21.43l1.273-8.516-.047-.016L-24.922,24h-1.07l-2.227-8.812h-.047L-29.586,24h-1.539l1.7-11.375H-27.4ZM-12.242,24q-.016-.437-.016-.707a4.986,4.986,0,0,1,.031-.551A4.564,4.564,0,0,1-13.5,23.754a3.193,3.193,0,0,1-1.543.41,2.41,2.41,0,0,1-1.887-.684,2.155,2.155,0,0,1-.434-1.855,2.584,2.584,0,0,1,1.25-1.914,5.194,5.194,0,0,1,2.773-.664h1.672l.125-.836a1.369,1.369,0,0,0-.27-1.191,1.593,1.593,0,0,0-1.223-.418,2.134,2.134,0,0,0-1.25.375,1.3,1.3,0,0,0-.609.9l-1.469.016-.008-.047a2.422,2.422,0,0,1,1.117-1.707,4.1,4.1,0,0,1,2.484-.746,3.053,3.053,0,0,1,2.172.738,2.258,2.258,0,0,1,.594,2.1l-.609,4.07a6.686,6.686,0,0,0-.09.887,4.511,4.511,0,0,0,.051.816Zm-2.383-1.125a3.032,3.032,0,0,0,1.547-.437,2.613,2.613,0,0,0,1.039-.984l.211-1.367h-1.727a2.54,2.54,0,0,0-1.547.477,1.651,1.651,0,0,0-.734,1.094,1.011,1.011,0,0,0,.207.9A1.341,1.341,0,0,0-14.625,22.875Zm8.555-6.117a3.653,3.653,0,0,1,1.207-1.012,3.241,3.241,0,0,1,1.5-.355,2.384,2.384,0,0,1,1.973.809,3.111,3.111,0,0,1,.4,2.465L-1.781,24H-3.32l.8-5.3a2.11,2.11,0,0,0-.2-1.605,1.585,1.585,0,0,0-1.289-.449,2.518,2.518,0,0,0-1.234.3,2.729,2.729,0,0,0-.922.832L-7.1,24H-8.641l1.266-8.453H-6ZM5.648,24q-.016-.437-.016-.707a4.986,4.986,0,0,1,.031-.551,4.564,4.564,0,0,1-1.277,1.012,3.193,3.193,0,0,1-1.543.41A2.41,2.41,0,0,1,.957,23.48a2.155,2.155,0,0,1-.434-1.855,2.584,2.584,0,0,1,1.25-1.914,5.194,5.194,0,0,1,2.773-.664H6.219l.125-.836a1.369,1.369,0,0,0-.27-1.191A1.593,1.593,0,0,0,4.852,16.6a2.134,2.134,0,0,0-1.25.375,1.3,1.3,0,0,0-.609.9l-1.469.016-.008-.047a2.422,2.422,0,0,1,1.117-1.707,4.1,4.1,0,0,1,2.484-.746,3.053,3.053,0,0,1,2.172.738,2.258,2.258,0,0,1,.594,2.1L7.273,22.3a6.686,6.686,0,0,0-.09.887A4.511,4.511,0,0,0,7.234,24ZM3.266,22.875a3.032,3.032,0,0,0,1.547-.437,2.613,2.613,0,0,0,1.039-.984l.211-1.367H4.336a2.54,2.54,0,0,0-1.547.477,1.651,1.651,0,0,0-.734,1.094,1.011,1.011,0,0,0,.207.9A1.341,1.341,0,0,0,3.266,22.875Zm6.32-2.945A6.411,6.411,0,0,1,10.945,16.6a3.326,3.326,0,0,1,2.625-1.211,2.589,2.589,0,0,1,1.352.336,2.364,2.364,0,0,1,.891.969l.359-1.148H17.4l-1.273,8.5a3.807,3.807,0,0,1-1.316,2.527,4.483,4.483,0,0,1-2.863.84,5.369,5.369,0,0,1-1.281-.172,4.632,4.632,0,0,1-1.187-.453l.414-1.2a3.921,3.921,0,0,0,1.02.379,5.216,5.216,0,0,0,1.215.145,2.536,2.536,0,0,0,1.691-.52,2.421,2.421,0,0,0,.77-1.551l.141-.961a3.255,3.255,0,0,1-2.484,1.078,2.466,2.466,0,0,1-2.219-1.133,4.13,4.13,0,0,1-.461-2.937Zm1.516.164a3.283,3.283,0,0,0,.207,2.07,1.568,1.568,0,0,0,1.512.75,2.223,2.223,0,0,0,1.2-.324,3.092,3.092,0,0,0,.922-.91l.586-3.867a2.008,2.008,0,0,0-.652-.855,1.793,1.793,0,0,0-1.1-.316,2.1,2.1,0,0,0-1.746.93,5.147,5.147,0,0,0-.9,2.359Zm10.719,4.07a3.069,3.069,0,0,1-2.629-1.18,3.934,3.934,0,0,1-.6-3.047l.055-.344a5.061,5.061,0,0,1,1.488-3.047,3.89,3.89,0,0,1,2.754-1.156,2.624,2.624,0,0,1,2.352,1.07A3.846,3.846,0,0,1,25.7,19.25l-.117.813H20.117a3.355,3.355,0,0,0,.266,2.121A1.7,1.7,0,0,0,22,22.961a4.177,4.177,0,0,0,1.395-.227,3.661,3.661,0,0,0,1.113-.609l.453,1a4.447,4.447,0,0,1-1.3.738A5.139,5.139,0,0,1,21.82,24.164Zm.891-7.562a1.948,1.948,0,0,0-1.4.625,3.561,3.561,0,0,0-.9,1.578l.016.047h3.8l.016-.125a2.257,2.257,0,0,0-.219-1.535A1.41,1.41,0,0,0,22.711,16.6Zm9.07.3L31,16.859a1.9,1.9,0,0,0-1.062.3,2.49,2.49,0,0,0-.781.848L28.258,24H26.719l1.266-8.453h1.375l-.031,1.2a3.552,3.552,0,0,1,1.031-1,2.384,2.384,0,0,1,1.273-.355,1.923,1.923,0,0,1,.324.027,1.787,1.787,0,0,1,.254.059Z" transform="translate(-10535 -9885)" fill="#12263f"/>
    <path id="Trazado_13" data-name="Trazado 13" d="M-31.7-2.93h-4.289L-37.437,0h-1.57l5.8-11.375h1.32L-29.57,0h-1.57Zm-3.648-1.289h3.4L-32.867-9.1l-.047-.008Zm9,2.977.016.039H-21.5L-21.68,0H-28.4l.164-1.078L-22.781-7.2l-.016-.039h-4.461l.18-1.219h6.4l-.156,1.047ZM-14.5,0l.086-1.211A3.446,3.446,0,0,1-15.59-.187a3.209,3.209,0,0,1-1.5.352,2.33,2.33,0,0,1-2-.895,3.643,3.643,0,0,1-.383-2.738l.742-4.984H-17.2l-.75,5a2.963,2.963,0,0,0,.109,1.883,1.311,1.311,0,0,0,1.18.484,2.718,2.718,0,0,0,1.4-.348,2.712,2.712,0,0,0,.969-.98l.9-6.039h1.539L-13.117,0Zm8.688-7.094-.781-.047a1.9,1.9,0,0,0-1.062.3,2.49,2.49,0,0,0-.781.848L-9.336,0h-1.539l1.266-8.453h1.375l-.031,1.2a3.552,3.552,0,0,1,1.031-1,2.384,2.384,0,0,1,1.273-.355,1.923,1.923,0,0,1,.324.027,1.787,1.787,0,0,1,.254.059ZM-1.945.164a3.069,3.069,0,0,1-2.629-1.18,3.934,3.934,0,0,1-.6-3.047l.055-.344A5.061,5.061,0,0,1-3.629-7.453,3.89,3.89,0,0,1-.875-8.609a2.624,2.624,0,0,1,2.352,1.07A3.846,3.846,0,0,1,1.938-4.75l-.117.813H-3.648a3.355,3.355,0,0,0,.266,2.121,1.7,1.7,0,0,0,1.617.777A4.177,4.177,0,0,0-.371-1.266,3.661,3.661,0,0,0,.742-1.875l.453,1a4.447,4.447,0,0,1-1.3.738A5.139,5.139,0,0,1-1.945.164ZM-1.055-7.4a1.948,1.948,0,0,0-1.4.625,3.561,3.561,0,0,0-.9,1.578l.016.047h3.8l.016-.125A2.257,2.257,0,0,0,.258-6.809,1.41,1.41,0,0,0-1.055-7.4ZM13.461-2.93H9.172L7.719,0H6.148l5.8-11.375h1.32L15.586,0h-1.57ZM9.813-4.219h3.4L12.289-9.1l-.047-.008Zm15.023.313A5.4,5.4,0,0,1,23.52-.922,3.4,3.4,0,0,1,20.938.164a2.9,2.9,0,0,1-1.312-.277,2.238,2.238,0,0,1-.9-.816L18.1,3.25H16.563l1.75-11.7h1.18l.078,1.094a3.5,3.5,0,0,1,1.172-.93,3.372,3.372,0,0,1,1.484-.32,2.371,2.371,0,0,1,2.219,1.262,5.081,5.081,0,0,1,.414,3.277ZM23.32-4.07a4.127,4.127,0,0,0-.2-2.391,1.558,1.558,0,0,0-1.539-.9,2.229,2.229,0,0,0-1.16.309,3,3,0,0,0-.9.84l-.609,4.063a1.819,1.819,0,0,0,.641.816,1.893,1.893,0,0,0,1.1.293A2.237,2.237,0,0,0,22.4-1.848,3.935,3.935,0,0,0,23.3-3.906Zm10.609.164A5.4,5.4,0,0,1,32.613-.922,3.4,3.4,0,0,1,30.031.164a2.9,2.9,0,0,1-1.312-.277,2.238,2.238,0,0,1-.9-.816L27.2,3.25H25.656l1.75-11.7h1.18l.078,1.094a3.5,3.5,0,0,1,1.172-.93,3.372,3.372,0,0,1,1.484-.32,2.371,2.371,0,0,1,2.219,1.262,5.081,5.081,0,0,1,.414,3.277ZM32.414-4.07a4.127,4.127,0,0,0-.2-2.391,1.558,1.558,0,0,0-1.539-.9,2.229,2.229,0,0,0-1.16.309,3,3,0,0,0-.9.84L28-2.148a1.819,1.819,0,0,0,.641.816,1.893,1.893,0,0,0,1.1.293A2.237,2.237,0,0,0,31.5-1.848a3.935,3.935,0,0,0,.895-2.059ZM-23.129,21.391a1.6,1.6,0,0,0-.4-1.414,5.115,5.115,0,0,0-2-1.023,6.163,6.163,0,0,1-2.605-1.367,2.6,2.6,0,0,1-.582-2.336,2.88,2.88,0,0,1,1.277-2.059,4.66,4.66,0,0,1,2.668-.73,4.1,4.1,0,0,1,2.859.93,2.609,2.609,0,0,1,.742,2.547l-.016.047H-22.66a1.878,1.878,0,0,0-.477-1.668,2.421,2.421,0,0,0-1.82-.645,2.5,2.5,0,0,0-1.5.449,1.631,1.631,0,0,0-.715,1.113,1.6,1.6,0,0,0,.332,1.426A5.659,5.659,0,0,0-24.8,17.672a6.7,6.7,0,0,1,2.637,1.4,2.539,2.539,0,0,1,.574,2.3,2.857,2.857,0,0,1-1.316,2.086,5.067,5.067,0,0,1-2.77.7,5.32,5.32,0,0,1-3.066-.844,2.409,2.409,0,0,1-.934-2.625l.023-.047h1.469a1.64,1.64,0,0,0,.633,1.781,3.707,3.707,0,0,0,2.055.531,2.832,2.832,0,0,0,1.578-.441A1.632,1.632,0,0,0-23.129,21.391Zm6.3,2.773a3.069,3.069,0,0,1-2.629-1.18,3.934,3.934,0,0,1-.6-3.047l.055-.344a5.061,5.061,0,0,1,1.488-3.047,3.89,3.89,0,0,1,2.754-1.156,2.624,2.624,0,0,1,2.352,1.07,3.846,3.846,0,0,1,.461,2.789l-.117.813h-5.469a3.355,3.355,0,0,0,.266,2.121,1.7,1.7,0,0,0,1.617.777,4.177,4.177,0,0,0,1.395-.227,3.661,3.661,0,0,0,1.113-.609l.453,1a4.447,4.447,0,0,1-1.3.738A5.139,5.139,0,0,1-16.832,24.164Zm.891-7.562a1.948,1.948,0,0,0-1.4.625,3.561,3.561,0,0,0-.9,1.578l.016.047h3.8l.016-.125a2.257,2.257,0,0,0-.219-1.535A1.41,1.41,0,0,0-15.941,16.6Zm9.07.3-.781-.047a1.9,1.9,0,0,0-1.062.3,2.49,2.49,0,0,0-.781.848l-.9,5.992h-1.539l1.266-8.453h1.375l-.031,1.2a3.552,3.552,0,0,1,1.031-1,2.384,2.384,0,0,1,1.273-.355,1.923,1.923,0,0,1,.324.027,1.787,1.787,0,0,1,.254.059ZM-3,21.508l.047.594.047.008.234-.6L.168,15.547h1.57L-2.637,24H-3.8l-1.883-8.453h1.578ZM3.52,24H1.98l1.266-8.453H4.785ZM5.113,13.383H3.574l.234-1.57H5.348ZM9.4,22.961a2.076,2.076,0,0,0,1.293-.477,1.8,1.8,0,0,0,.723-1.156h1.391l.016.047A2.885,2.885,0,0,1,11.6,23.34a3.838,3.838,0,0,1-2.379.824A2.837,2.837,0,0,1,6.7,22.941a4.112,4.112,0,0,1-.559-3l.047-.328a5.417,5.417,0,0,1,1.422-3.035,3.89,3.89,0,0,1,2.93-1.184,2.769,2.769,0,0,1,2.164.883,2.407,2.407,0,0,1,.57,2.148l-.016.039H11.848a1.676,1.676,0,0,0-.3-1.332,1.429,1.429,0,0,0-1.2-.527A2.118,2.118,0,0,0,8.59,17.5a4.517,4.517,0,0,0-.859,2.113l-.047.328a3.852,3.852,0,0,0,.18,2.168A1.514,1.514,0,0,0,9.4,22.961Zm8.336,1.2a3.069,3.069,0,0,1-2.629-1.18,3.934,3.934,0,0,1-.6-3.047l.055-.344a5.061,5.061,0,0,1,1.488-3.047,3.89,3.89,0,0,1,2.754-1.156,2.624,2.624,0,0,1,2.352,1.07,3.846,3.846,0,0,1,.461,2.789l-.117.813H16.035a3.355,3.355,0,0,0,.266,2.121,1.7,1.7,0,0,0,1.617.777,4.177,4.177,0,0,0,1.395-.227,3.661,3.661,0,0,0,1.113-.609l.453,1a4.447,4.447,0,0,1-1.3.738A5.139,5.139,0,0,1,17.738,24.164Zm.891-7.562a1.948,1.948,0,0,0-1.4.625,3.561,3.561,0,0,0-.9,1.578l.016.047h3.8l.016-.125a2.257,2.257,0,0,0-.219-1.535A1.41,1.41,0,0,0,18.629,16.6Zm9.281,5.125a.908.908,0,0,0-.266-.836,3.27,3.27,0,0,0-1.391-.555,5.344,5.344,0,0,1-2.176-.9,1.562,1.562,0,0,1-.582-1.547A2.6,2.6,0,0,1,24.617,16.1,3.935,3.935,0,0,1,27,15.391a3.006,3.006,0,0,1,2.188.789,1.943,1.943,0,0,1,.633,1.813l-.016.047H28.332a1.162,1.162,0,0,0-.336-1A1.515,1.515,0,0,0,26.84,16.6a1.974,1.974,0,0,0-1.254.371,1.334,1.334,0,0,0-.543.871.821.821,0,0,0,.234.781,3.446,3.446,0,0,0,1.375.492,5.217,5.217,0,0,1,2.227.93,1.632,1.632,0,0,1,.586,1.57A2.62,2.62,0,0,1,28.3,23.473a4.265,4.265,0,0,1-2.484.691,3.283,3.283,0,0,1-2.395-.828,2.033,2.033,0,0,1-.652-1.906l.016-.047h1.477a1.245,1.245,0,0,0,.445,1.2,2.1,2.1,0,0,0,1.281.379,2.3,2.3,0,0,0,1.313-.352A1.3,1.3,0,0,0,27.91,21.727Z" transform="translate(-10332 -9885)" fill="#12263f"/>
    <path id="Trazado_12" data-name="Trazado 12" d="M-51.77-2.93h-4.289L-57.512,0h-1.57l5.8-11.375h1.32L-49.645,0h-1.57Zm-3.648-1.289h3.4L-52.941-9.1l-.047-.008Zm9,2.977.016.039h4.828l-.18,1.2h-6.719l.164-1.078L-42.855-7.2l-.016-.039h-4.461l.18-1.219h6.4l-.156,1.047ZM-34.574,0l.086-1.211A3.446,3.446,0,0,1-35.664-.187a3.209,3.209,0,0,1-1.5.352,2.33,2.33,0,0,1-2-.895,3.643,3.643,0,0,1-.383-2.738l.742-4.984h1.539l-.75,5A2.963,2.963,0,0,0-37.91-1.57a1.311,1.311,0,0,0,1.18.484,2.718,2.718,0,0,0,1.4-.348,2.712,2.712,0,0,0,.969-.98l.9-6.039h1.539L-33.191,0Zm8.688-7.094-.781-.047a1.9,1.9,0,0,0-1.062.3,2.49,2.49,0,0,0-.781.848L-29.41,0h-1.539l1.266-8.453h1.375l-.031,1.2a3.552,3.552,0,0,1,1.031-1,2.384,2.384,0,0,1,1.273-.355,1.923,1.923,0,0,1,.324.027,1.787,1.787,0,0,1,.254.059ZM-22.02.164a3.069,3.069,0,0,1-2.629-1.18,3.934,3.934,0,0,1-.6-3.047l.055-.344A5.061,5.061,0,0,1-23.7-7.453a3.89,3.89,0,0,1,2.754-1.156A2.624,2.624,0,0,1-18.6-7.539a3.846,3.846,0,0,1,.461,2.789l-.117.813h-5.469a3.355,3.355,0,0,0,.266,2.121,1.7,1.7,0,0,0,1.617.777,4.177,4.177,0,0,0,1.395-.227,3.661,3.661,0,0,0,1.113-.609l.453,1a4.447,4.447,0,0,1-1.3.738A5.139,5.139,0,0,1-22.02.164Zm.891-7.562a1.948,1.948,0,0,0-1.4.625,3.561,3.561,0,0,0-.9,1.578l.016.047h3.8l.016-.125a2.257,2.257,0,0,0-.219-1.535A1.41,1.41,0,0,0-21.129-7.4Zm8.2,7.4,1.7-11.375h3.578A4.154,4.154,0,0,1-4.316-9.988a4.208,4.208,0,0,1,.867,3.527l-.234,1.555A5.675,5.675,0,0,1-5.562-1.324,5.6,5.6,0,0,1-9.355,0Zm3.063-10.164L-11.215-1.2h2.039A3.649,3.649,0,0,0-6.562-2.254a4.488,4.488,0,0,0,1.34-2.652l.234-1.57a3.476,3.476,0,0,0-.5-2.676,2.725,2.725,0,0,0-2.344-1.012ZM2.887,0q-.016-.438-.016-.707A4.986,4.986,0,0,1,2.9-1.258,4.564,4.564,0,0,1,1.625-.246,3.193,3.193,0,0,1,.082.164,2.41,2.41,0,0,1-1.8-.52a2.155,2.155,0,0,1-.434-1.855A2.584,2.584,0,0,1-.988-4.289a5.194,5.194,0,0,1,2.773-.664H3.457l.125-.836a1.369,1.369,0,0,0-.27-1.191A1.593,1.593,0,0,0,2.09-7.4a2.134,2.134,0,0,0-1.25.375,1.3,1.3,0,0,0-.609.9l-1.469.016-.008-.047A2.422,2.422,0,0,1-.129-7.863a4.1,4.1,0,0,1,2.484-.746,3.053,3.053,0,0,1,2.172.738,2.258,2.258,0,0,1,.594,2.1L4.512-1.7a6.686,6.686,0,0,0-.09.887A4.511,4.511,0,0,0,4.473,0ZM.5-1.125a3.032,3.032,0,0,0,1.547-.437A2.613,2.613,0,0,0,3.09-2.547L3.3-3.914H1.574a2.54,2.54,0,0,0-1.547.477A1.651,1.651,0,0,0-.707-2.344a1.011,1.011,0,0,0,.207.9A1.341,1.341,0,0,0,.5-1.125Zm9.7-9.367-.3,2.039h1.6l-.172,1.141h-1.6L8.957-2.18a1.052,1.052,0,0,0,.113.848.793.793,0,0,0,.621.23,1.571,1.571,0,0,0,.3-.035,2.1,2.1,0,0,0,.285-.074l.055,1.055a1.634,1.634,0,0,1-.543.23,2.7,2.7,0,0,1-.676.09,1.735,1.735,0,0,1-1.395-.57,2.153,2.153,0,0,1-.3-1.773l.766-5.133H6.84l.172-1.141H8.355l.3-2.039ZM17.074,0q-.016-.438-.016-.707a4.986,4.986,0,0,1,.031-.551A4.564,4.564,0,0,1,15.813-.246a3.193,3.193,0,0,1-1.543.41A2.41,2.41,0,0,1,12.383-.52a2.155,2.155,0,0,1-.434-1.855A2.584,2.584,0,0,1,13.2-4.289a5.194,5.194,0,0,1,2.773-.664h1.672l.125-.836A1.369,1.369,0,0,0,17.5-6.98,1.593,1.593,0,0,0,16.277-7.4a2.134,2.134,0,0,0-1.25.375,1.3,1.3,0,0,0-.609.9l-1.469.016-.008-.047a2.422,2.422,0,0,1,1.117-1.707,4.1,4.1,0,0,1,2.484-.746,3.053,3.053,0,0,1,2.172.738,2.258,2.258,0,0,1,.594,2.1L18.7-1.7a6.686,6.686,0,0,0-.09.887A4.511,4.511,0,0,0,18.66,0ZM14.691-1.125a3.032,3.032,0,0,0,1.547-.437,2.613,2.613,0,0,0,1.039-.984l.211-1.367H15.762a2.54,2.54,0,0,0-1.547.477,1.651,1.651,0,0,0-.734,1.094,1.011,1.011,0,0,0,.207.9A1.341,1.341,0,0,0,14.691-1.125ZM28.48-3.906A5.388,5.388,0,0,1,27.16-.922,3.417,3.417,0,0,1,24.574.164,2.647,2.647,0,0,1,23.184-.18a2.313,2.313,0,0,1-.891-1.008L21.855,0h-1.18L22.5-12.187h1.539l-.711,4.734a3.416,3.416,0,0,1,1.125-.859,3.289,3.289,0,0,1,1.414-.3,2.373,2.373,0,0,1,2.215,1.262A5.062,5.062,0,0,1,28.5-4.07ZM26.965-4.07a4.356,4.356,0,0,0-.172-2.4,1.491,1.491,0,0,0-1.5-.891A2.234,2.234,0,0,0,24.055-7a3.1,3.1,0,0,0-.934.957l-.547,3.641a2.012,2.012,0,0,0,.633.973,1.8,1.8,0,0,0,1.164.348,2.149,2.149,0,0,0,1.715-.785,3.978,3.978,0,0,0,.855-2.035Zm8,4.07q-.016-.438-.016-.707a4.987,4.987,0,0,1,.031-.551A4.564,4.564,0,0,1,33.7-.246a3.193,3.193,0,0,1-1.543.41A2.41,2.41,0,0,1,30.273-.52a2.155,2.155,0,0,1-.434-1.855,2.584,2.584,0,0,1,1.25-1.914,5.194,5.194,0,0,1,2.773-.664h1.672l.125-.836a1.369,1.369,0,0,0-.27-1.191A1.593,1.593,0,0,0,34.168-7.4a2.134,2.134,0,0,0-1.25.375,1.3,1.3,0,0,0-.609.9l-1.469.016-.008-.047a2.422,2.422,0,0,1,1.117-1.707,4.1,4.1,0,0,1,2.484-.746,3.053,3.053,0,0,1,2.172.738,2.258,2.258,0,0,1,.594,2.1L36.59-1.7a6.686,6.686,0,0,0-.09.887A4.511,4.511,0,0,0,36.551,0ZM32.582-1.125a3.032,3.032,0,0,0,1.547-.437,2.613,2.613,0,0,0,1.039-.984l.211-1.367H33.652a2.54,2.54,0,0,0-1.547.477,1.651,1.651,0,0,0-.734,1.094,1.011,1.011,0,0,0,.207.9A1.341,1.341,0,0,0,32.582-1.125ZM43.84-2.273a.908.908,0,0,0-.266-.836,3.27,3.27,0,0,0-1.391-.555,5.344,5.344,0,0,1-2.176-.9,1.562,1.562,0,0,1-.582-1.547A2.6,2.6,0,0,1,40.547-7.9a3.935,3.935,0,0,1,2.387-.711,3.006,3.006,0,0,1,2.188.789,1.943,1.943,0,0,1,.633,1.813l-.016.047H44.262a1.162,1.162,0,0,0-.336-1A1.515,1.515,0,0,0,42.77-7.4a1.974,1.974,0,0,0-1.254.371,1.334,1.334,0,0,0-.543.871.821.821,0,0,0,.234.781,3.446,3.446,0,0,0,1.375.492,5.217,5.217,0,0,1,2.227.93,1.632,1.632,0,0,1,.586,1.57A2.62,2.62,0,0,1,44.23-.527a4.265,4.265,0,0,1-2.484.691,3.283,3.283,0,0,1-2.395-.828A2.033,2.033,0,0,1,38.7-2.57l.016-.047h1.477a1.245,1.245,0,0,0,.445,1.2,2.1,2.1,0,0,0,1.281.379,2.3,2.3,0,0,0,1.313-.352A1.3,1.3,0,0,0,43.84-2.273ZM50.41.164a3.069,3.069,0,0,1-2.629-1.18,3.934,3.934,0,0,1-.6-3.047l.055-.344a5.061,5.061,0,0,1,1.488-3.047A3.89,3.89,0,0,1,51.48-8.609a2.624,2.624,0,0,1,2.352,1.07,3.846,3.846,0,0,1,.461,2.789l-.117.813H48.707a3.355,3.355,0,0,0,.266,2.121,1.7,1.7,0,0,0,1.617.777,4.177,4.177,0,0,0,1.395-.227A3.661,3.661,0,0,0,53.1-1.875l.453,1a4.447,4.447,0,0,1-1.3.738A5.139,5.139,0,0,1,50.41.164ZM51.3-7.4a1.948,1.948,0,0,0-1.4.625A3.561,3.561,0,0,0,49-5.2l.016.047h3.8l.016-.125a2.257,2.257,0,0,0-.219-1.535A1.41,1.41,0,0,0,51.3-7.4ZM-53,18.969h-4.8L-58.551,24H-60.09l1.7-11.375h7.133l-.18,1.211h-5.594l-.594,3.922h4.8Zm1.648.727a5.387,5.387,0,0,1,1.473-3.125,4,4,0,0,1,2.941-1.18,2.942,2.942,0,0,1,2.559,1.223,4.1,4.1,0,0,1,.6,3.082l-.031.172A5.4,5.4,0,0,1-45.285,23a4.018,4.018,0,0,1-2.945,1.168,2.945,2.945,0,0,1-2.559-1.219,4.063,4.063,0,0,1-.59-3.078Zm1.508.172a3.681,3.681,0,0,0,.227,2.242,1.6,1.6,0,0,0,1.563.852,2.211,2.211,0,0,0,1.777-.887,4.5,4.5,0,0,0,.926-2.207l.031-.172a3.683,3.683,0,0,0-.238-2.234,1.6,1.6,0,0,0-1.559-.859A2.212,2.212,0,0,0-48.9,17.5a4.425,4.425,0,0,0-.91,2.2Zm12.359-2.961-.781-.047a1.9,1.9,0,0,0-1.062.3,2.49,2.49,0,0,0-.781.848L-41,24h-1.539l1.266-8.453H-39.9l-.031,1.2a3.552,3.552,0,0,1,1.031-1,2.384,2.384,0,0,1,1.273-.355,1.923,1.923,0,0,1,.324.027,1.787,1.787,0,0,1,.254.059Zm6.945,2.531L-31.215,24h-1.539l1.7-11.375H-26.7a3.5,3.5,0,0,1,2.652.945,2.794,2.794,0,0,1,.684,2.461,3.815,3.815,0,0,1-1.379,2.508,4.633,4.633,0,0,1-2.973.9Zm.18-1.2h2.82a2.558,2.558,0,0,0,1.8-.629,2.574,2.574,0,0,0,.828-1.559,2.042,2.042,0,0,0-.332-1.594,1.94,1.94,0,0,0-1.637-.617h-2.812Zm7.75,1.461a5.387,5.387,0,0,1,1.473-3.125,4,4,0,0,1,2.941-1.18,2.942,2.942,0,0,1,2.559,1.223,4.1,4.1,0,0,1,.6,3.082l-.031.172A5.4,5.4,0,0,1-16.543,23a4.018,4.018,0,0,1-2.945,1.168,2.945,2.945,0,0,1-2.559-1.219,4.063,4.063,0,0,1-.59-3.078Zm1.508.172a3.681,3.681,0,0,0,.227,2.242,1.6,1.6,0,0,0,1.563.852,2.211,2.211,0,0,0,1.777-.887,4.5,4.5,0,0,0,.926-2.207l.031-.172a3.683,3.683,0,0,0-.238-2.234,1.6,1.6,0,0,0-1.559-.859,2.212,2.212,0,0,0-1.785.895,4.425,4.425,0,0,0-.91,2.2Zm12.57,1.859a.908.908,0,0,0-.266-.836,3.27,3.27,0,0,0-1.391-.555,5.344,5.344,0,0,1-2.176-.9,1.562,1.562,0,0,1-.582-1.547A2.6,2.6,0,0,1-11.82,16.1a3.935,3.935,0,0,1,2.387-.711,3.006,3.006,0,0,1,2.188.789,1.943,1.943,0,0,1,.633,1.813l-.016.047H-8.105a1.162,1.162,0,0,0-.336-1A1.515,1.515,0,0,0-9.6,16.6a1.974,1.974,0,0,0-1.254.371,1.334,1.334,0,0,0-.543.871.821.821,0,0,0,.234.781,3.446,3.446,0,0,0,1.375.492,5.217,5.217,0,0,1,2.227.93,1.632,1.632,0,0,1,.586,1.57,2.62,2.62,0,0,1-1.164,1.855,4.265,4.265,0,0,1-2.484.691,3.283,3.283,0,0,1-2.395-.828,2.033,2.033,0,0,1-.652-1.906l.016-.047h1.477a1.245,1.245,0,0,0,.445,1.2,2.1,2.1,0,0,0,1.281.379,2.3,2.3,0,0,0,1.313-.352A1.3,1.3,0,0,0-8.527,21.727Zm6.8-8.219-.3,2.039h1.6L-.6,16.688H-2.2l-.766,5.133a1.052,1.052,0,0,0,.113.848.793.793,0,0,0,.621.23,1.571,1.571,0,0,0,.3-.035,2.1,2.1,0,0,0,.285-.074l.055,1.055a1.634,1.634,0,0,1-.543.23,2.7,2.7,0,0,1-.676.09,1.735,1.735,0,0,1-1.395-.57,2.153,2.153,0,0,1-.3-1.773l.766-5.133H-5.082l.172-1.141h1.344l.3-2.039ZM.293,19.93A6.411,6.411,0,0,1,1.652,16.6a3.326,3.326,0,0,1,2.625-1.211,2.589,2.589,0,0,1,1.352.336,2.364,2.364,0,0,1,.891.969l.359-1.148H8.105l-1.273,8.5a3.807,3.807,0,0,1-1.316,2.527,4.483,4.483,0,0,1-2.863.84,5.369,5.369,0,0,1-1.281-.172,4.632,4.632,0,0,1-1.187-.453l.414-1.2a3.921,3.921,0,0,0,1.02.379,5.216,5.216,0,0,0,1.215.145,2.536,2.536,0,0,0,1.691-.52,2.421,2.421,0,0,0,.77-1.551l.141-.961a3.351,3.351,0,0,1-1.113.8,3.366,3.366,0,0,1-1.371.273A2.466,2.466,0,0,1,.73,23.031,4.13,4.13,0,0,1,.27,20.094Zm1.516.164a3.283,3.283,0,0,0,.207,2.07,1.568,1.568,0,0,0,1.512.75,2.223,2.223,0,0,0,1.2-.324,3.092,3.092,0,0,0,.922-.91l.586-3.867a2.008,2.008,0,0,0-.652-.855,1.793,1.793,0,0,0-1.1-.316,2.1,2.1,0,0,0-1.746.93,5.147,5.147,0,0,0-.9,2.359Zm12.3-3.187-.781-.047a1.9,1.9,0,0,0-1.062.3,2.49,2.49,0,0,0-.781.848L10.59,24H9.051l1.266-8.453h1.375l-.031,1.2a3.552,3.552,0,0,1,1.031-1,2.384,2.384,0,0,1,1.273-.355,1.923,1.923,0,0,1,.324.027,1.787,1.787,0,0,1,.254.059Zm3.867,7.258a3.069,3.069,0,0,1-2.629-1.18,3.934,3.934,0,0,1-.6-3.047l.055-.344A5.061,5.061,0,0,1,16.3,16.547a3.89,3.89,0,0,1,2.754-1.156,2.624,2.624,0,0,1,2.352,1.07,3.846,3.846,0,0,1,.461,2.789l-.117.813H16.277a3.355,3.355,0,0,0,.266,2.121,1.7,1.7,0,0,0,1.617.777,4.177,4.177,0,0,0,1.395-.227,3.661,3.661,0,0,0,1.113-.609l.453,1a4.447,4.447,0,0,1-1.3.738A5.139,5.139,0,0,1,17.98,24.164Zm.891-7.562a1.948,1.948,0,0,0-1.4.625,3.561,3.561,0,0,0-.9,1.578l.016.047h3.8l.016-.125a2.257,2.257,0,0,0-.219-1.535A1.41,1.41,0,0,0,18.871,16.6Zm10.9,4.789a1.6,1.6,0,0,0-.4-1.414,5.115,5.115,0,0,0-2-1.023,6.163,6.163,0,0,1-2.605-1.367,2.6,2.6,0,0,1-.582-2.336,2.88,2.88,0,0,1,1.277-2.059,4.66,4.66,0,0,1,2.668-.73,4.1,4.1,0,0,1,2.859.93,2.609,2.609,0,0,1,.742,2.547l-.016.047H30.238a1.878,1.878,0,0,0-.477-1.668,2.421,2.421,0,0,0-1.82-.645,2.5,2.5,0,0,0-1.5.449,1.631,1.631,0,0,0-.715,1.113,1.6,1.6,0,0,0,.332,1.426A5.659,5.659,0,0,0,28.1,17.672a6.7,6.7,0,0,1,2.637,1.4,2.539,2.539,0,0,1,.574,2.3,2.857,2.857,0,0,1-1.316,2.086,5.067,5.067,0,0,1-2.77.7,5.32,5.32,0,0,1-3.066-.844,2.409,2.409,0,0,1-.934-2.625l.023-.047h1.469a1.64,1.64,0,0,0,.633,1.781,3.707,3.707,0,0,0,2.055.531,2.832,2.832,0,0,0,1.578-.441A1.632,1.632,0,0,0,29.77,21.391Zm12.422-2.062a6.458,6.458,0,0,1-.523,1.738,5.638,5.638,0,0,1-.937,1.418l1.43,1.625-1.2,1.008-1.469-1.641a4.962,4.962,0,0,1-1.27.516,5.667,5.667,0,0,1-1.4.172,3.575,3.575,0,0,1-3-1.387,4.337,4.337,0,0,1-.762-3.449l.3-2.023a5.782,5.782,0,0,1,1.758-3.5,4.886,4.886,0,0,1,3.453-1.34,3.767,3.767,0,0,1,3.1,1.395A4.257,4.257,0,0,1,42.5,17.3Zm-1.234-2.039A3.493,3.493,0,0,0,40.5,14.7a2.425,2.425,0,0,0-2.125-.973,3.07,3.07,0,0,0-2.27,1.012A4.5,4.5,0,0,0,34.9,17.289l-.3,2.039a3.608,3.608,0,0,0,.4,2.605A2.244,2.244,0,0,0,37,22.906,3.283,3.283,0,0,0,39.395,21.9a4.477,4.477,0,0,0,1.258-2.57ZM45.668,22.8h5.547l-.18,1.2H43.949l1.7-11.375h1.539Zm9.609-1.781.117.938.047.008.4-.945,4.2-8.391H61.7L55.77,24h-1.32L51.926,12.625H53.6Z" transform="translate(-10129 -9885)" fill="#12263f"/>
  </g>
</svg>
