<svg xmlns="http://www.w3.org/2000/svg" width="903" height="437" viewBox="0 0 903 437">
  <g id="Grupo_19" data-name="Grupo 19" transform="translate(10923 8923)">
    <path id="Trazado_106819" data-name="Trazado 106819" d="M0,0H163V163H0Z" transform="translate(-10557 -8923)" fill="#4dd0e1"/>
    <path id="Trazado_106582" data-name="Trazado 106582" d="M1340-9834.5H1048.672v192.516" transform="translate(-11899 993)" fill="none" stroke="#21214b" stroke-width="2"/>
    <path id="Trazado_106583" data-name="Trazado 106583" d="M1048.672-9834.5H1340v192.516" transform="translate(-11441.672 993)" fill="none" stroke="#21214b" stroke-width="2"/>
    <path id="Trazado_106821" data-name="Trazado 106821" d="M0,0H163V163H0Z" transform="translate(-10923 -8649)" fill="#4dd0e1"/>
    <path id="Trazado_106826" data-name="Trazado 106826" d="M0,0H163V163H0Z" transform="translate(-10183 -8649)" fill="#4dd0e1"/>
    <path id="Trazado_106818" data-name="Trazado 106818" d="M1.016,0V-11.375H5a5.232,5.232,0,0,1,3.141.793,2.712,2.712,0,0,1,1.07,2.324,2.57,2.57,0,0,1-.43,1.473,2.482,2.482,0,0,1-1.2.934,2.4,2.4,0,0,1,1.379.883,2.61,2.61,0,0,1,.5,1.625A3,3,0,0,1,8.422-.859,4.713,4.713,0,0,1,5.438,0ZM3.359-4.953v3.07H5.367A1.938,1.938,0,0,0,6.66-2.277a1.353,1.353,0,0,0,.465-1.09,1.428,1.428,0,0,0-.418-1.191,1.428,1.428,0,0,0-1.2-.395Zm0-1.656H5.094Q6.867-6.64,6.867-8.023a1.307,1.307,0,0,0-.449-1.113A2.363,2.363,0,0,0,5-9.477H3.359ZM16.141-.859A2.831,2.831,0,0,1,13.828.156a2.67,2.67,0,0,1-2.074-.781,3.335,3.335,0,0,1-.73-2.289V-8.453h2.258v5.461q0,1.32,1.2,1.32a1.631,1.631,0,0,0,1.578-.8V-8.453h2.266V0H16.2ZM15.133-12h2.461L15.43-9.578H13.594ZM24.61-2.336a.727.727,0,0,0-.41-.652,4.659,4.659,0,0,0-1.316-.426q-3.016-.633-3.016-2.562A2.323,2.323,0,0,1,20.8-7.855a3.766,3.766,0,0,1,2.441-.754,4.053,4.053,0,0,1,2.574.758,2.388,2.388,0,0,1,.965,1.969H24.523a1.092,1.092,0,0,0-.312-.8A1.322,1.322,0,0,0,23.234-7a1.351,1.351,0,0,0-.883.258.814.814,0,0,0-.312.656.7.7,0,0,0,.355.605,3.657,3.657,0,0,0,1.2.4,9.8,9.8,0,0,1,1.422.379A2.336,2.336,0,0,1,26.8-2.43a2.2,2.2,0,0,1-.992,1.871A4.28,4.28,0,0,1,23.25.156a4.47,4.47,0,0,1-1.887-.379A3.166,3.166,0,0,1,20.07-1.262a2.414,2.414,0,0,1-.47-1.425h2.141a1.179,1.179,0,0,0,.445.922,1.766,1.766,0,0,0,1.109.32,1.635,1.635,0,0,0,.98-.246.766.766,0,0,0,.334-.645Zm3.3-1.969A5.053,5.053,0,0,1,28.8-7.453a2.9,2.9,0,0,1,2.434-1.156,2.6,2.6,0,0,1,2.16,1.039l.148-.883h1.984V3.25H33.258V-.727a2.6,2.6,0,0,1-2.047.883A2.878,2.878,0,0,1,28.8-1.016,5.3,5.3,0,0,1,27.906-4.3Zm2.258.164A3.305,3.305,0,0,0,30.59-2.3a1.364,1.364,0,0,0,1.2.633,1.519,1.519,0,0,0,1.469-.828V-5.984a1.506,1.506,0,0,0-1.453-.8,1.38,1.38,0,0,0-1.211.633,3.65,3.65,0,0,0-.431,2.01ZM42.368-.86A2.831,2.831,0,0,1,40.047.156a2.67,2.67,0,0,1-2.074-.781,3.335,3.335,0,0,1-.73-2.289V-8.453H39.5v5.461q0,1.32,1.2,1.32a1.631,1.631,0,0,0,1.578-.8V-8.453h2.266V0H42.422ZM50.141.156a4.15,4.15,0,0,1-3.028-1.14,4.054,4.054,0,0,1-1.168-3.039v-.219a5.106,5.106,0,0,1,.492-2.277,3.612,3.612,0,0,1,1.4-1.547,3.914,3.914,0,0,1,2.059-.543,3.508,3.508,0,0,1,2.73,1.094,4.444,4.444,0,0,1,1,3.1v.922H48.234a2.1,2.1,0,0,0,.66,1.328,2,2,0,0,0,1.395.5,2.437,2.437,0,0,0,2.039-.945l1.109,1.242A3.389,3.389,0,0,1,52.063-.246a4.511,4.511,0,0,1-1.922.4Zm-.258-6.937a1.414,1.414,0,0,0-1.09.453,2.341,2.341,0,0,0-.535,1.3H51.4v-.18a1.669,1.669,0,0,0-.406-1.16,1.459,1.459,0,0,0-1.111-.413Zm4.664,2.492a5.094,5.094,0,0,1,.887-3.148A2.877,2.877,0,0,1,57.86-8.609a2.589,2.589,0,0,1,2.039.922V-12h2.266V0h-2.04l-.109-.9A2.657,2.657,0,0,1,57.844.156,2.869,2.869,0,0,1,55.449-1.02a5.258,5.258,0,0,1-.9-3.269Zm2.258.164a3.328,3.328,0,0,0,.414,1.82,1.349,1.349,0,0,0,1.2.633A1.511,1.511,0,0,0,59.9-2.555V-5.891a1.489,1.489,0,0,0-1.461-.883q-1.639,0-1.639,2.649ZM68.813,0a2.507,2.507,0,0,1-.227-.758,2.732,2.732,0,0,1-2.133.914,3,3,0,0,1-2.059-.719,2.312,2.312,0,0,1-.816-1.812,2.389,2.389,0,0,1,1-2.062,4.915,4.915,0,0,1,2.879-.727H68.5v-.484a1.393,1.393,0,0,0-.3-.937,1.183,1.183,0,0,0-.949-.352,1.345,1.345,0,0,0-.895.273.929.929,0,0,0-.324.75H63.766a2.268,2.268,0,0,1,.453-1.359,3,3,0,0,1,1.281-.98,4.669,4.669,0,0,1,1.859-.355,3.689,3.689,0,0,1,2.48.785,2.747,2.747,0,0,1,.918,2.207v3.664a4.041,4.041,0,0,0,.336,1.82V0ZM66.945-1.57a1.945,1.945,0,0,0,.922-.223,1.462,1.462,0,0,0,.625-.6V-3.844h-.844q-1.7,0-1.8,1.172l-.008.133a.9.9,0,0,0,.3.7,1.153,1.153,0,0,0,.805.269ZM4.758,24.156a4.15,4.15,0,0,1-3.028-1.14A4.054,4.054,0,0,1,.563,19.977v-.219a5.106,5.106,0,0,1,.492-2.277,3.612,3.612,0,0,1,1.4-1.547,3.914,3.914,0,0,1,2.059-.543,3.508,3.508,0,0,1,2.73,1.094,4.444,4.444,0,0,1,1,3.1v.922H2.852a2.1,2.1,0,0,0,.66,1.328,2,2,0,0,0,1.395.5,2.437,2.437,0,0,0,2.039-.945l1.109,1.242A3.389,3.389,0,0,1,6.68,23.754a4.511,4.511,0,0,1-1.922.4ZM4.5,17.219a1.414,1.414,0,0,0-1.09.453,2.341,2.341,0,0,0-.535,1.3H6.016v-.18a1.669,1.669,0,0,0-.406-1.16A1.459,1.459,0,0,0,4.5,17.219Zm7.094-1.672.07.977a2.951,2.951,0,0,1,2.43-1.133,2.453,2.453,0,0,1,2,.789,3.682,3.682,0,0,1,.672,2.359V24H14.508V18.594a1.465,1.465,0,0,0-.312-1.043,1.4,1.4,0,0,0-1.039-.324,1.553,1.553,0,0,0-1.43.813V24H9.469V15.547ZM24.844,24H22.578V12h2.266ZM31.6,24a2.507,2.507,0,0,1-.227-.758,2.732,2.732,0,0,1-2.133.914,3,3,0,0,1-2.059-.719,2.312,2.312,0,0,1-.816-1.812,2.389,2.389,0,0,1,1-2.062,4.915,4.915,0,0,1,2.879-.727h1.039v-.484a1.393,1.393,0,0,0-.3-.937,1.183,1.183,0,0,0-.949-.352,1.345,1.345,0,0,0-.895.273.929.929,0,0,0-.324.75h-2.26a2.268,2.268,0,0,1,.453-1.359,3,3,0,0,1,1.281-.98,4.669,4.669,0,0,1,1.859-.355,3.689,3.689,0,0,1,2.48.785,2.747,2.747,0,0,1,.918,2.207v3.664a4.041,4.041,0,0,0,.336,1.82V24Zm-1.867-1.57a1.945,1.945,0,0,0,.922-.223,1.462,1.462,0,0,0,.625-.6V20.156h-.844q-1.7,0-1.8,1.172l-.008.133a.9.9,0,0,0,.3.7,1.153,1.153,0,0,0,.806.269Zm18.289-9.8v7.492a3.836,3.836,0,0,1-1.168,2.953,4.5,4.5,0,0,1-3.191,1.086A4.553,4.553,0,0,1,40.5,23.1a3.77,3.77,0,0,1-1.2-2.9V12.625h2.344v7.508a2.167,2.167,0,0,0,.535,1.629,2.054,2.054,0,0,0,1.48.512q1.977,0,2.008-2.078v-7.57ZM49.945,24V12.625h3.5a5.315,5.315,0,0,1,2.684.676,4.712,4.712,0,0,1,1.848,1.922,5.928,5.928,0,0,1,.664,2.832v.523a5.945,5.945,0,0,1-.652,2.82,4.672,4.672,0,0,1-1.84,1.914,5.355,5.355,0,0,1-2.68.688Zm2.344-9.477v7.594h1.133a2.545,2.545,0,0,0,2.1-.9,4.06,4.06,0,0,0,.742-2.57v-.6a4.124,4.124,0,0,0-.719-2.629,2.537,2.537,0,0,0-2.1-.895ZM60.344,24V12.625h3.5a5.315,5.315,0,0,1,2.684.676,4.712,4.712,0,0,1,1.848,1.922,5.928,5.928,0,0,1,.664,2.832v.523a5.945,5.945,0,0,1-.652,2.82,4.672,4.672,0,0,1-1.84,1.914,5.355,5.355,0,0,1-2.68.688Zm2.344-9.477v7.594H63.82a2.545,2.545,0,0,0,2.1-.9,4.06,4.06,0,0,0,.742-2.57v-.6a4.124,4.124,0,0,0-.719-2.629,2.537,2.537,0,0,0-2.1-.9ZM73.234,24H70.891V12.625h2.344Z" transform="translate(-10811 -8724)" fill="#12263f"/>
    <path id="Trazado_106825" data-name="Trazado 106825" d="M3.359-4.008V0H1.016V-11.375H5.453a5.134,5.134,0,0,1,2.254.469A3.454,3.454,0,0,1,9.2-9.574a3.714,3.714,0,0,1,.523,1.965A3.266,3.266,0,0,1,8.582-4.973a4.767,4.767,0,0,1-3.168.965Zm0-1.9H5.453a2.059,2.059,0,0,0,1.418-.437,1.591,1.591,0,0,0,.488-1.25,1.876,1.876,0,0,0-.492-1.352,1.839,1.839,0,0,0-1.359-.531H3.359ZM16.25-.859A2.831,2.831,0,0,1,13.938.156a2.67,2.67,0,0,1-2.074-.781,3.335,3.335,0,0,1-.73-2.289V-8.453h2.258v5.461q0,1.32,1.2,1.32a1.631,1.631,0,0,0,1.578-.8V-8.453h2.266V0H16.313ZM27.758-4.148A5.119,5.119,0,0,1,26.891-.98,2.872,2.872,0,0,1,24.469.156,2.639,2.639,0,0,1,22.273-.9l-.1.9H20.141V-12H22.4v4.3a2.571,2.571,0,0,1,2.055-.914,2.9,2.9,0,0,1,2.426,1.137,5.126,5.126,0,0,1,.879,3.2ZM25.5-4.312a3.363,3.363,0,0,0-.406-1.871,1.374,1.374,0,0,0-1.211-.59A1.489,1.489,0,0,0,22.4-5.89v3.336a1.509,1.509,0,0,0,1.5.891,1.394,1.394,0,0,0,1.438-1.078A5.562,5.562,0,0,0,25.5-4.312ZM31.531,0H29.266V-12h2.266Zm4.242,0H33.508V-8.453h2.266Zm-2.4-10.641a1.112,1.112,0,0,1,.34-.836,1.277,1.277,0,0,1,.926-.328,1.28,1.28,0,0,1,.922.328,1.105,1.105,0,0,1,.344.836,1.108,1.108,0,0,1-.348.844,1.283,1.283,0,0,1-.918.328,1.283,1.283,0,0,1-.918-.328,1.108,1.108,0,0,1-.346-.844Zm7.773,8.977a1.481,1.481,0,0,0,1.016-.344,1.2,1.2,0,0,0,.406-.914h2.117a2.9,2.9,0,0,1-.469,1.574,3.093,3.093,0,0,1-1.259,1.11,3.949,3.949,0,0,1-1.77.395A3.67,3.67,0,0,1,38.328-1a4.56,4.56,0,0,1-1.047-3.18v-.148A4.508,4.508,0,0,1,38.32-7.445a3.627,3.627,0,0,1,2.852-1.164,3.555,3.555,0,0,1,2.543.9,3.2,3.2,0,0,1,.973,2.4H42.57a1.539,1.539,0,0,0-.406-1.066,1.358,1.358,0,0,0-1.031-.41,1.361,1.361,0,0,0-1.191.574,3.324,3.324,0,0,0-.4,1.863v.234a3.366,3.366,0,0,0,.4,1.875,1.378,1.378,0,0,0,1.206.575ZM50.875,0a2.507,2.507,0,0,1-.227-.758,2.732,2.732,0,0,1-2.133.914,3,3,0,0,1-2.059-.719,2.312,2.312,0,0,1-.816-1.812,2.389,2.389,0,0,1,1-2.062,4.915,4.915,0,0,1,2.879-.727h1.039v-.484a1.393,1.393,0,0,0-.3-.937,1.183,1.183,0,0,0-.949-.352,1.345,1.345,0,0,0-.9.273.929.929,0,0,0-.324.75H45.828a2.268,2.268,0,0,1,.453-1.359,3,3,0,0,1,1.281-.98,4.669,4.669,0,0,1,1.859-.355,3.689,3.689,0,0,1,2.48.785,2.747,2.747,0,0,1,.918,2.207v3.664a4.041,4.041,0,0,0,.336,1.82V0ZM49.008-1.57a1.945,1.945,0,0,0,.922-.223,1.462,1.462,0,0,0,.625-.6V-3.844h-.844q-1.7,0-1.8,1.172l-.008.133a.9.9,0,0,0,.3.7,1.153,1.153,0,0,0,.805.269Zm9.063-.094a1.481,1.481,0,0,0,1.016-.344,1.2,1.2,0,0,0,.406-.914H61.61a2.9,2.9,0,0,1-.469,1.574,3.093,3.093,0,0,1-1.262,1.11,3.949,3.949,0,0,1-1.77.395A3.67,3.67,0,0,1,55.25-1,4.56,4.56,0,0,1,54.2-4.18v-.148a4.508,4.508,0,0,1,1.039-3.117,3.627,3.627,0,0,1,2.852-1.164,3.555,3.555,0,0,1,2.543.9,3.2,3.2,0,0,1,.973,2.4H59.492a1.539,1.539,0,0,0-.406-1.066,1.358,1.358,0,0,0-1.031-.41,1.361,1.361,0,0,0-1.191.574,3.324,3.324,0,0,0-.4,1.863v.234a3.366,3.366,0,0,0,.4,1.875,1.378,1.378,0,0,0,1.206.575ZM65.281,0H63.016V-8.453h2.266Zm-2.4-10.641a1.112,1.112,0,0,1,.34-.836,1.277,1.277,0,0,1,.926-.328,1.28,1.28,0,0,1,.922.328,1.105,1.105,0,0,1,.344.836,1.108,1.108,0,0,1-.348.844,1.283,1.283,0,0,1-.918.328A1.283,1.283,0,0,1,63.23-9.8a1.108,1.108,0,0,1-.347-.841ZM66.789-4.3a5.013,5.013,0,0,1,.484-2.242A3.546,3.546,0,0,1,68.668-8.07a4.069,4.069,0,0,1,2.113-.539,3.849,3.849,0,0,1,2.793,1.047,4.2,4.2,0,0,1,1.207,2.844l.016.578a4.418,4.418,0,0,1-1.086,3.12A3.775,3.775,0,0,1,70.8.156a3.793,3.793,0,0,1-2.918-1.172A4.5,4.5,0,0,1,66.789-4.2Zm2.258.164A3.151,3.151,0,0,0,69.5-2.3a1.5,1.5,0,0,0,1.3.637,1.5,1.5,0,0,0,1.281-.629A3.448,3.448,0,0,0,72.539-4.3a3.12,3.12,0,0,0-.461-1.828,1.5,1.5,0,0,0-1.3-.648,1.475,1.475,0,0,0-1.281.645,3.506,3.506,0,0,0-.45,1.99ZM71.227-12h2.461L71.523-9.578H69.688Zm7.039,3.547.07.977a2.951,2.951,0,0,1,2.43-1.133,2.453,2.453,0,0,1,2,.789,3.682,3.682,0,0,1,.672,2.359V0H81.18V-5.406a1.465,1.465,0,0,0-.312-1.043,1.4,1.4,0,0,0-1.039-.324,1.553,1.553,0,0,0-1.43.813V0H76.141V-8.453ZM4.758,24.156a4.15,4.15,0,0,1-3.028-1.14A4.054,4.054,0,0,1,.563,19.977v-.219a5.106,5.106,0,0,1,.492-2.277,3.612,3.612,0,0,1,1.4-1.547,3.914,3.914,0,0,1,2.059-.543,3.508,3.508,0,0,1,2.73,1.094,4.444,4.444,0,0,1,1,3.1v.922H2.852a2.1,2.1,0,0,0,.66,1.328,2,2,0,0,0,1.395.5,2.437,2.437,0,0,0,2.039-.945l1.109,1.242A3.389,3.389,0,0,1,6.68,23.754a4.511,4.511,0,0,1-1.922.4ZM4.5,17.219a1.414,1.414,0,0,0-1.09.453,2.341,2.341,0,0,0-.535,1.3H6.016v-.18a1.669,1.669,0,0,0-.406-1.16A1.459,1.459,0,0,0,4.5,17.219Zm7.094-1.672.07.977a2.951,2.951,0,0,1,2.43-1.133,2.453,2.453,0,0,1,2,.789,3.682,3.682,0,0,1,.672,2.359V24H14.508V18.594a1.465,1.465,0,0,0-.312-1.043,1.4,1.4,0,0,0-1.039-.324,1.553,1.553,0,0,0-1.43.813V24H9.469V15.547Zm14.758,8.609a4.15,4.15,0,0,1-3.027-1.141,4.054,4.054,0,0,1-1.168-3.039v-.219a5.106,5.106,0,0,1,.492-2.277,3.612,3.612,0,0,1,1.4-1.547A3.914,3.914,0,0,1,26.1,15.39a3.508,3.508,0,0,1,2.73,1.094,4.444,4.444,0,0,1,1,3.1v.922H24.445a2.1,2.1,0,0,0,.66,1.328,2,2,0,0,0,1.395.5,2.437,2.437,0,0,0,2.039-.945l1.109,1.242a3.389,3.389,0,0,1-1.375,1.121,4.511,4.511,0,0,1-1.921.4Zm-.258-6.937a1.414,1.414,0,0,0-1.09.453,2.341,2.341,0,0,0-.535,1.3H27.61v-.18a1.669,1.669,0,0,0-.406-1.16A1.459,1.459,0,0,0,26.094,17.219ZM33.492,24H31.227V12h2.266Zm14.6-11.375v7.492a3.836,3.836,0,0,1-1.168,2.953,4.5,4.5,0,0,1-3.191,1.086A4.553,4.553,0,0,1,40.57,23.1a3.77,3.77,0,0,1-1.2-2.9V12.625h2.344v7.508a2.167,2.167,0,0,0,.535,1.629,2.054,2.054,0,0,0,1.48.512q1.977,0,2.008-2.078v-7.57ZM50.016,24V12.625h3.5A5.315,5.315,0,0,1,56.2,13.3a4.712,4.712,0,0,1,1.848,1.922,5.928,5.928,0,0,1,.664,2.832v.523a5.945,5.945,0,0,1-.652,2.82,4.672,4.672,0,0,1-1.84,1.914A5.355,5.355,0,0,1,53.54,24Zm2.344-9.477v7.594h1.133a2.545,2.545,0,0,0,2.1-.9,4.06,4.06,0,0,0,.742-2.57v-.6a4.124,4.124,0,0,0-.719-2.629,2.537,2.537,0,0,0-2.1-.9ZM60.414,24V12.625h3.5A5.315,5.315,0,0,1,66.6,13.3a4.712,4.712,0,0,1,1.848,1.922,5.928,5.928,0,0,1,.664,2.832v.523a5.945,5.945,0,0,1-.652,2.82,4.672,4.672,0,0,1-1.84,1.914A5.355,5.355,0,0,1,63.94,24Zm2.344-9.477v7.594h1.133a2.545,2.545,0,0,0,2.1-.9,4.06,4.06,0,0,0,.742-2.57v-.6a4.124,4.124,0,0,0-.719-2.629,2.537,2.537,0,0,0-2.1-.895ZM73.3,24H70.961V12.625H73.3Z" transform="translate(-10206 -8724)" fill="#12263f"/>
    <path id="Trazado_106823" data-name="Trazado 106823" d="M25,0,50,43H0Z" transform="translate(-10726.164 -8539) rotate(-90)" fill="#ffca28"/>
    <path id="Trazado_106824" data-name="Trazado 106824" d="M25,0,50,43H0Z" transform="translate(-10225.836 -8589) rotate(90)" fill="#ffca28"/>
    <path id="Trazado_106584" data-name="Trazado 106584" d="M1237.117-9557h365.117" transform="translate(-11895.617 993)" fill="none" stroke="#ffca28" stroke-width="2"/>
    <path id="Trazado_106816" data-name="Trazado 106816" d="M-36.927-3.4a1.268,1.268,0,0,0-.479-1.055,5.954,5.954,0,0,0-1.683-.782,16.147,16.147,0,0,1-1.969-.782q-2.487-1.222-2.487-3.357a3.011,3.011,0,0,1,.62-1.876,4.008,4.008,0,0,1,1.753-1.266,6.823,6.823,0,0,1,2.549-.453,5.969,5.969,0,0,1,2.474.492,3.917,3.917,0,0,1,1.7,1.4A3.661,3.661,0,0,1-33.842-9h-3.076a1.547,1.547,0,0,0-.479-1.213,1.867,1.867,0,0,0-1.3-.431,2.106,2.106,0,0,0-1.3.365,1.119,1.119,0,0,0-.479.927,1.127,1.127,0,0,0,.527.892,6.65,6.65,0,0,0,1.854.826,11.36,11.36,0,0,1,2.18.918,3.663,3.663,0,0,1,2.074,3.3A3.125,3.125,0,0,1-35.108-.782,5.629,5.629,0,0,1-38.58.176,6.888,6.888,0,0,1-41.4-.382a4.247,4.247,0,0,1-1.9-1.529,3.985,3.985,0,0,1-.637-2.237h3.094a1.963,1.963,0,0,0,.532,1.516,2.513,2.513,0,0,0,1.727.488,1.985,1.985,0,0,0,1.208-.33,1.088,1.088,0,0,0,.449-.926Zm15.5-2.733a7.546,7.546,0,0,1-.694,3.313A5.132,5.132,0,0,1-24.091-.6,5.494,5.494,0,0,1-27,.176a5.572,5.572,0,0,1-2.9-.751,5.123,5.123,0,0,1-1.973-2.149,7.329,7.329,0,0,1-.743-3.208v-.721a7.58,7.58,0,0,1,.69-3.318,5.119,5.119,0,0,1,1.978-2.219,5.533,5.533,0,0,1,2.931-.782,5.479,5.479,0,0,1,2.9.773A5.211,5.211,0,0,1-22.14-10a7.362,7.362,0,0,1,.716,3.274Zm-3.138-.536a5.381,5.381,0,0,0-.637-2.9,2.044,2.044,0,0,0-1.824-.989q-2.32,0-2.452,3.48l-.009.94a5.535,5.535,0,0,0,.624,2.892A2.041,2.041,0,0,0-27-2.232a2.016,2.016,0,0,0,1.8-.993,5.383,5.383,0,0,0,.642-2.856Zm11.813,4.28H-16.98L-17.714,0h-3.3l4.693-12.8h2.9L-8.688,0H-12Zm-3.489-2.382h2.751l-1.38-4.438Zm11.566.431V0H-7.756V-12.8H-2.65a5.948,5.948,0,0,1,2.6.541A4.074,4.074,0,0,1,1.7-10.718a4.2,4.2,0,0,1,.62,2.263A3.7,3.7,0,0,1,.976-5.462,5.561,5.561,0,0,1-2.7-4.342Zm0-2.382H-2.65A1.906,1.906,0,0,0-1.283-7.17a1.665,1.665,0,0,0,.47-1.266A2.059,2.059,0,0,0-1.3-9.87a1.712,1.712,0,0,0-1.318-.545H-4.671ZM13.214-8.543,15.306-12.8H18.83L15.253-6.451,18.927,0h-3.56L13.214-4.333,11.061,0H7.51l3.665-6.451L7.607-12.8h3.516ZM23.981-12.8l2.856,8.9,2.848-8.9h4.061V0H30.652V-2.988l.3-6.117L27.857,0H25.818l-3.1-9.114.3,6.126V0H19.929V-12.8ZM38.791-2.373h5.37V0H35.706V-12.8h3.085Z" transform="translate(-10471 -8536)" fill="#12263f"/>
    <path id="Trazado_106817" data-name="Trazado 106817" d="M-79.7-5.01V0h-1.687V-12.8h4.72a4.742,4.742,0,0,1,3.292,1.072,3.635,3.635,0,0,1,1.191,2.839,3.587,3.587,0,0,1-1.165,2.87,4.954,4.954,0,0,1-3.34,1.009Zm0-1.38h3.032A3.035,3.035,0,0,0-74.6-7.027a2.328,2.328,0,0,0,.721-1.841A2.4,2.4,0,0,0-74.6-10.7a2.843,2.843,0,0,0-1.978-.712H-79.7ZM-66.458.176A4.155,4.155,0,0,1-69.6-1.094a4.714,4.714,0,0,1-1.213-3.4v-.3a5.707,5.707,0,0,1,.541-2.527,4.217,4.217,0,0,1,1.512-1.74,3.8,3.8,0,0,1,2.1-.628,3.562,3.562,0,0,1,2.883,1.222,5.289,5.289,0,0,1,1.028,3.5v.677h-6.442a3.38,3.38,0,0,0,.822,2.272,2.583,2.583,0,0,0,2,.866A2.832,2.832,0,0,0-64.912-1.5a3.666,3.666,0,0,0,1.046-.932l.993.773A3.993,3.993,0,0,1-66.458.176Zm-.2-8.525a2.169,2.169,0,0,0-1.652.716,3.482,3.482,0,0,0-.826,2.008h4.764v-.123a3.1,3.1,0,0,0-.668-1.92,2.042,2.042,0,0,0-1.621-.682Zm8-3.463v2.3h1.775v1.257h-1.775v5.9a1.317,1.317,0,0,0,.237.857,1,1,0,0,0,.809.286,3.937,3.937,0,0,0,.773-.105V0a4.714,4.714,0,0,1-1.248.176,2.025,2.025,0,0,1-1.644-.659,2.832,2.832,0,0,1-.554-1.872v-5.9H-62.02V-9.51h1.731v-2.3ZM-53.222,0h-1.626V-9.51h1.626ZM-54.98-12.032a.971.971,0,0,1,.242-.668.907.907,0,0,1,.716-.272.922.922,0,0,1,.721.272.96.96,0,0,1,.246.668.929.929,0,0,1-.246.659.938.938,0,0,1-.721.264.924.924,0,0,1-.716-.264A.938.938,0,0,1-54.98-12.032Zm8.174,10.881a2.342,2.342,0,0,0,1.521-.527A1.855,1.855,0,0,0-44.565-3h1.538a2.949,2.949,0,0,1-.562,1.556,3.7,3.7,0,0,1-1.385,1.18,3.994,3.994,0,0,1-1.833.439,3.918,3.918,0,0,1-3.089-1.3,5.163,5.163,0,0,1-1.147-3.546v-.272a5.725,5.725,0,0,1,.51-2.47A3.883,3.883,0,0,1-49.07-9.092a4.157,4.157,0,0,1,2.254-.6,3.814,3.814,0,0,1,2.659.958,3.424,3.424,0,0,1,1.13,2.494h-1.538a2.241,2.241,0,0,0-.7-1.516,2.174,2.174,0,0,0-1.551-.593,2.276,2.276,0,0,0-1.92.892,4.19,4.19,0,0,0-.681,2.58v.308a4.106,4.106,0,0,0,.677,2.531,2.287,2.287,0,0,0,1.934.887ZM-39.432,0h-1.626V-9.51h1.626ZM-41.19-12.032a.971.971,0,0,1,.242-.668.907.907,0,0,1,.716-.272.922.922,0,0,1,.721.272.96.96,0,0,1,.246.668.929.929,0,0,1-.246.659.938.938,0,0,1-.721.264.924.924,0,0,1-.716-.264.938.938,0,0,1-.242-.659Zm3.929,7.189a5.617,5.617,0,0,1,.549-2.514A4.1,4.1,0,0,1-35.183-9.08a4.163,4.163,0,0,1,2.237-.606A4.01,4.01,0,0,1-29.8-8.341a5.174,5.174,0,0,1,1.2,3.577v.114a5.666,5.666,0,0,1-.532,2.492A4.038,4.038,0,0,1-30.656-.439a4.211,4.211,0,0,1-2.272.615,4,4,0,0,1-3.133-1.345,5.147,5.147,0,0,1-1.2-3.56Zm1.635.193a4.068,4.068,0,0,0,.734,2.54,2.349,2.349,0,0,0,1.964.958,2.335,2.335,0,0,0,1.969-.971,4.449,4.449,0,0,0,.729-2.72,4.061,4.061,0,0,0-.743-2.536,2.361,2.361,0,0,0-1.973-.971,2.335,2.335,0,0,0-1.942.958,4.416,4.416,0,0,0-.738,2.743Zm3.419-8.851h1.969l-2.355,2.584H-33.9Zm7.181,3.99.053,1.2a3.465,3.465,0,0,1,2.848-1.371q3.015,0,3.041,3.4V0H-20.71V-6.293a2.189,2.189,0,0,0-.47-1.521,1.884,1.884,0,0,0-1.437-.492,2.347,2.347,0,0,0-1.389.422,2.865,2.865,0,0,0-.932,1.107V0h-1.626V-9.51ZM-11.852,1.1h-1.4l5.344-13.9h1.389Zm16.5-6.275H1.639V0h-1.7V-12.8h4.24a5.014,5.014,0,0,1,3.327.984A3.542,3.542,0,0,1,8.67-8.947a3.445,3.445,0,0,1-.646,2.083,3.856,3.856,0,0,1-1.8,1.327L9.233-.1V0H7.422ZM1.639-6.557H4.232a2.928,2.928,0,0,0,2-.65,2.2,2.2,0,0,0,.743-1.74,2.314,2.314,0,0,0-.708-1.819,3,3,0,0,0-2.043-.642H1.639ZM14.726.176a4.155,4.155,0,0,1-3.146-1.27,4.714,4.714,0,0,1-1.213-3.4v-.3a5.707,5.707,0,0,1,.541-2.527,4.217,4.217,0,0,1,1.512-1.74,3.8,3.8,0,0,1,2.1-.628A3.562,3.562,0,0,1,17.4-8.467a5.289,5.289,0,0,1,1.028,3.5v.677H11.993a3.38,3.38,0,0,0,.822,2.272,2.583,2.583,0,0,0,2,.866A2.832,2.832,0,0,0,16.273-1.5a3.666,3.666,0,0,0,1.046-.932l.993.773A3.993,3.993,0,0,1,14.726.176Zm-.2-8.525a2.169,2.169,0,0,0-1.652.716,3.482,3.482,0,0,0-.826,2.008h4.764v-.123a3.1,3.1,0,0,0-.668-1.92,2.042,2.042,0,0,0-1.62-.682ZM25.853-2.522a1.2,1.2,0,0,0-.5-1.024,4.78,4.78,0,0,0-1.731-.628,8.186,8.186,0,0,1-1.96-.633,2.788,2.788,0,0,1-1.072-.879A2.1,2.1,0,0,1,20.246-6.9a2.467,2.467,0,0,1,.989-1.978,3.861,3.861,0,0,1,2.527-.809,3.974,3.974,0,0,1,2.624.835,2.652,2.652,0,0,1,1.006,2.136H25.756a1.468,1.468,0,0,0-.567-1.151,2.124,2.124,0,0,0-1.428-.483,2.223,2.223,0,0,0-1.389.387,1.217,1.217,0,0,0-.5,1.011.986.986,0,0,0,.466.888,5.731,5.731,0,0,0,1.683.571,8.77,8.77,0,0,1,1.973.65,2.878,2.878,0,0,1,1.121.91,2.237,2.237,0,0,1,.365,1.3A2.434,2.434,0,0,1,26.46-.59a4.277,4.277,0,0,1-2.646.769,4.789,4.789,0,0,1-2.021-.4A3.288,3.288,0,0,1,20.418-1.35a2.722,2.722,0,0,1-.5-1.569h1.626a1.683,1.683,0,0,0,.655,1.3,2.54,2.54,0,0,0,1.613.479,2.622,2.622,0,0,0,1.481-.374A1.148,1.148,0,0,0,25.853-2.522ZM37.63-4.649a5.694,5.694,0,0,1-.993,3.5A3.183,3.183,0,0,1,33.948.176a3.488,3.488,0,0,1-2.725-1.1v4.58H29.6V-9.51h1.485l.079,1.055a3.35,3.35,0,0,1,2.76-1.23,3.243,3.243,0,0,1,2.711,1.292,5.756,5.756,0,0,1,1,3.6ZM36-4.834a4.2,4.2,0,0,0-.686-2.54,2.208,2.208,0,0,0-1.881-.932A2.39,2.39,0,0,0,31.223-7v4.544a2.4,2.4,0,0,0,2.232,1.3,2.2,2.2,0,0,0,1.859-.927A4.587,4.587,0,0,0,36-4.834ZM45.567-.94A3.454,3.454,0,0,1,42.781.176a2.956,2.956,0,0,1-2.316-.883,3.823,3.823,0,0,1-.8-2.615V-9.51h1.626v6.144q0,2.162,1.758,2.162a2.434,2.434,0,0,0,2.479-1.389V-9.51h1.626V0H45.6Zm8,1.116a4.155,4.155,0,0,1-3.146-1.27,4.714,4.714,0,0,1-1.213-3.4v-.3a5.707,5.707,0,0,1,.541-2.527,4.217,4.217,0,0,1,1.512-1.74,3.8,3.8,0,0,1,2.1-.628,3.562,3.562,0,0,1,2.883,1.222,5.289,5.289,0,0,1,1.028,3.5v.677h-6.44a3.38,3.38,0,0,0,.822,2.272,2.583,2.583,0,0,0,2,.866A2.832,2.832,0,0,0,55.112-1.5a3.666,3.666,0,0,0,1.046-.932l.993.773A3.993,3.993,0,0,1,53.565.176Zm-.2-8.525a2.169,2.169,0,0,0-1.652.716,3.482,3.482,0,0,0-.826,2.008h4.764v-.123a3.1,3.1,0,0,0-.668-1.92,2.042,2.042,0,0,0-1.622-.682ZM64.692-2.522a1.2,1.2,0,0,0-.5-1.024,4.78,4.78,0,0,0-1.731-.628,8.186,8.186,0,0,1-1.96-.633,2.788,2.788,0,0,1-1.072-.879A2.1,2.1,0,0,1,59.084-6.9a2.467,2.467,0,0,1,.989-1.978A3.861,3.861,0,0,1,62.6-9.686a3.974,3.974,0,0,1,2.624.835A2.652,2.652,0,0,1,66.23-6.715H64.6a1.468,1.468,0,0,0-.567-1.151A2.124,2.124,0,0,0,62.6-8.35a2.223,2.223,0,0,0-1.389.387,1.217,1.217,0,0,0-.5,1.011.986.986,0,0,0,.466.888,5.731,5.731,0,0,0,1.683.571,8.77,8.77,0,0,1,1.973.65,2.878,2.878,0,0,1,1.121.91,2.237,2.237,0,0,1,.365,1.3A2.434,2.434,0,0,1,65.3-.593a4.277,4.277,0,0,1-2.646.769,4.789,4.789,0,0,1-2.021-.4,3.288,3.288,0,0,1-1.375-1.129,2.722,2.722,0,0,1-.5-1.569h1.626a1.683,1.683,0,0,0,.655,1.3,2.54,2.54,0,0,0,1.613.479,2.622,2.622,0,0,0,1.481-.374A1.148,1.148,0,0,0,64.692-2.522Zm5.95-9.29v2.3h1.775v1.257H70.642v5.9a1.317,1.317,0,0,0,.237.857,1,1,0,0,0,.809.286,3.937,3.937,0,0,0,.773-.105V0a4.714,4.714,0,0,1-1.248.176A2.025,2.025,0,0,1,69.57-.483a2.832,2.832,0,0,1-.554-1.872v-5.9H67.285V-9.51h1.731v-2.3ZM80.187,0a3.416,3.416,0,0,1-.229-1A3.628,3.628,0,0,1,77.251.176a3.357,3.357,0,0,1-2.307-.8,2.573,2.573,0,0,1-.9-2.017,2.688,2.688,0,0,1,1.129-2.307A5.325,5.325,0,0,1,78.35-5.77h1.582v-.747a1.826,1.826,0,0,0-.51-1.358,2.049,2.049,0,0,0-1.5-.505,2.371,2.371,0,0,0-1.459.439,1.3,1.3,0,0,0-.589,1.063H74.237a2.244,2.244,0,0,1,.505-1.375A3.449,3.449,0,0,1,76.113-9.3a4.613,4.613,0,0,1,1.9-.387,3.759,3.759,0,0,1,2.575.822,2.964,2.964,0,0,1,.97,2.265v4.377A5.351,5.351,0,0,0,81.892-.14V0Zm-2.7-1.239a2.858,2.858,0,0,0,1.45-.4,2.392,2.392,0,0,0,.993-1.028V-4.614H78.658q-2.988,0-2.988,1.749a1.48,1.48,0,0,0,.51,1.2,1.959,1.959,0,0,0,1.309.426Z" transform="translate(-10471 -8511)" fill="#12263f"/>
    <path id="Trazado_24" data-name="Trazado 24" d="M-8.367-11.375V-3.93A3.741,3.741,0,0,1-9.641-.922a4.916,4.916,0,0,1-3.3,1.086A4.858,4.858,0,0,1-16.23-.922,3.757,3.757,0,0,1-17.492-3.93v-7.445H-15.2V-3.93a2.341,2.341,0,0,0,.609,1.742,2.244,2.244,0,0,0,1.648.6,2.293,2.293,0,0,0,1.672-.6,2.324,2.324,0,0,0,.617-1.742v-7.445ZM-6.391,0V-11.375h3.969a4.693,4.693,0,0,1,3.438,1.332A4.592,4.592,0,0,1,2.367-6.625v1.883A4.575,4.575,0,0,1,1.016-1.324,4.708,4.708,0,0,1-2.422,0Zm2.281-9.617V-1.75h1.688A2.227,2.227,0,0,0-.609-2.59,3.287,3.287,0,0,0,.078-4.742v-1.9A3.259,3.259,0,0,0-.609-8.781a2.231,2.231,0,0,0-1.812-.836ZM4.2,0V-11.375H8.164A4.693,4.693,0,0,1,11.6-10.043a4.592,4.592,0,0,1,1.352,3.418v1.883A4.575,4.575,0,0,1,11.6-1.324,4.708,4.708,0,0,1,8.164,0ZM6.477-9.617V-1.75H8.164a2.227,2.227,0,0,0,1.813-.84,3.287,3.287,0,0,0,.688-2.152v-1.9a3.259,3.259,0,0,0-.687-2.141,2.231,2.231,0,0,0-1.812-.836ZM17.219,0H14.938V-11.375h2.281ZM-62.859,19.375a11.773,11.773,0,0,1,1.91-5.254,7.318,7.318,0,0,1,3.082-2.715l.047.008.25,1.133a6.907,6.907,0,0,0-2.066,2.469,12.687,12.687,0,0,0-1.3,4.344l-.023.2a11.182,11.182,0,0,0,.063,4.4A4.809,4.809,0,0,0-59.508,26.4l-.578,1.117h-.039a4.87,4.87,0,0,1-2.3-2.766,9.829,9.829,0,0,1-.453-5.2Zm11.492,1.867a1.236,1.236,0,0,0-.336-1.16,5.284,5.284,0,0,0-1.687-.855,7.56,7.56,0,0,1-2.895-1.5,2.477,2.477,0,0,1-.723-2.32,3.009,3.009,0,0,1,1.406-2.16,5.231,5.231,0,0,1,2.922-.785,4.423,4.423,0,0,1,2.984.93,2.563,2.563,0,0,1,.8,2.555l-.016.047h-2.211a1.417,1.417,0,0,0-.395-1.281,1.955,1.955,0,0,0-1.426-.492,2.121,2.121,0,0,0-1.191.336,1.191,1.191,0,0,0-.582.836,1.115,1.115,0,0,0,.352,1.109,7.077,7.077,0,0,0,1.93.875,6.668,6.668,0,0,1,2.707,1.48,2.647,2.647,0,0,1,.645,2.371A2.992,2.992,0,0,1-50.5,23.414a5.485,5.485,0,0,1-2.969.75,5.567,5.567,0,0,1-3.141-.848,2.388,2.388,0,0,1-.969-2.637l.016-.047h2.211a1.242,1.242,0,0,0,.512,1.379,3.077,3.077,0,0,0,1.629.4,2.291,2.291,0,0,0,1.227-.332A1.2,1.2,0,0,0-51.367,21.242Zm6.758,2.922a3.285,3.285,0,0,1-2.742-1.176A3.672,3.672,0,0,1-48,20.016l.047-.312a5.343,5.343,0,0,1,1.488-3.145,4.111,4.111,0,0,1,3.02-1.168,2.826,2.826,0,0,1,2.426,1.055,3.614,3.614,0,0,1,.52,2.8l-.172,1.18h-5.047l-.016.039a1.983,1.983,0,0,0,.3,1.426,1.546,1.546,0,0,0,1.328.527,5.011,5.011,0,0,0,1.32-.16,6.029,6.029,0,0,0,1.188-.473l.406,1.406a5.183,5.183,0,0,1-1.484.7A6.475,6.475,0,0,1-44.609,24.164Zm.906-7.016a1.459,1.459,0,0,0-1.105.477,2.831,2.831,0,0,0-.652,1.242l.016.047h2.766l.023-.172a1.824,1.824,0,0,0-.121-1.18A.975.975,0,0,0-43.7,17.148Zm9.242.359-.836-.023a1.625,1.625,0,0,0-.859.223,1.789,1.789,0,0,0-.609.629L-37.609,24h-2.273l1.266-8.453H-36.5l-.078,1.211a3.127,3.127,0,0,1,.914-1.012,2,2,0,0,1,1.148-.355,1.788,1.788,0,0,1,.316.027,2.705,2.705,0,0,1,.285.066Zm3.875,3.344.031.773.047.008.273-.781,2.188-5.3h2.383L-29.8,24h-2.18l-1.609-8.453h2.383ZM-23.539,24H-25.82l1.266-8.453h2.281Zm1.57-10.477H-24.25l.258-1.711h2.281Zm4.07,8.891a1.467,1.467,0,0,0,.988-.359,1.519,1.519,0,0,0,.512-.945h2.07l.016.047a3.149,3.149,0,0,1-1.27,2.168,4.116,4.116,0,0,1-2.574.84,3.092,3.092,0,0,1-2.684-1.215,3.985,3.985,0,0,1-.6-3.051l.031-.234a5.322,5.322,0,0,1,1.477-3.1,4.185,4.185,0,0,1,3.07-1.172,3.036,3.036,0,0,1,2.332.9,2.6,2.6,0,0,1,.59,2.344l-.016.039h-2.086a1.538,1.538,0,0,0-.176-1.1,1,1,0,0,0-.9-.426,1.555,1.555,0,0,0-1.348.719,4.247,4.247,0,0,0-.66,1.8l-.031.234a3.629,3.629,0,0,0,.086,1.84A1.119,1.119,0,0,0-17.9,22.414Zm8.125,1.75a3.285,3.285,0,0,1-2.742-1.176,3.672,3.672,0,0,1-.648-2.973l.047-.312a5.343,5.343,0,0,1,1.488-3.145,4.111,4.111,0,0,1,3.02-1.168,2.826,2.826,0,0,1,2.426,1.055,3.614,3.614,0,0,1,.52,2.8l-.172,1.18h-5.047l-.016.039a1.983,1.983,0,0,0,.3,1.426,1.546,1.546,0,0,0,1.328.527,5.011,5.011,0,0,0,1.32-.16,6.028,6.028,0,0,0,1.188-.473l.406,1.406a5.183,5.183,0,0,1-1.484.7A6.475,6.475,0,0,1-9.773,24.164Zm.906-7.016a1.459,1.459,0,0,0-1.105.477,2.831,2.831,0,0,0-.652,1.242l.016.047h2.766l.023-.172a1.824,1.824,0,0,0-.121-1.18A.975.975,0,0,0-8.867,17.148Zm10.938,2.3L1.391,24H-.891l1.7-11.375H4.75a4.177,4.177,0,0,1,2.871.895,2.577,2.577,0,0,1,.77,2.465,2.94,2.94,0,0,1-.7,1.547,3.917,3.917,0,0,1-1.523,1.008,2.11,2.11,0,0,1,1.293,1.008,2.75,2.75,0,0,1,.207,1.688l-.125.836a4.166,4.166,0,0,0-.02,1,1.144,1.144,0,0,0,.324.762L7.828,24H5.477a1.1,1.1,0,0,1-.273-.816,7.448,7.448,0,0,1,.07-1.129l.125-.8a1.621,1.621,0,0,0-.258-1.34,1.57,1.57,0,0,0-1.258-.457ZM2.336,17.7H3.953a2.392,2.392,0,0,0,1.469-.41,1.774,1.774,0,0,0,.672-1.2,1.483,1.483,0,0,0-.281-1.254,1.688,1.688,0,0,0-1.32-.449H2.836Zm10.438,6.469a3.285,3.285,0,0,1-2.742-1.176,3.672,3.672,0,0,1-.648-2.973L9.43,19.7a5.343,5.343,0,0,1,1.488-3.145,4.111,4.111,0,0,1,3.02-1.168,2.826,2.826,0,0,1,2.426,1.055,3.614,3.614,0,0,1,.52,2.8l-.172,1.18H11.664l-.016.039a1.983,1.983,0,0,0,.3,1.426,1.546,1.546,0,0,0,1.328.527,5.011,5.011,0,0,0,1.32-.16,6.028,6.028,0,0,0,1.188-.473l.406,1.406a5.183,5.183,0,0,1-1.484.7A6.475,6.475,0,0,1,12.773,24.164Zm.906-7.016a1.459,1.459,0,0,0-1.105.477,2.831,2.831,0,0,0-.652,1.242l.016.047H14.7l.023-.172a1.824,1.824,0,0,0-.121-1.18A.975.975,0,0,0,13.68,17.148Zm4.109,2.7a6.217,6.217,0,0,1,1.344-3.266,3.338,3.338,0,0,1,2.625-1.187,2.042,2.042,0,0,1,1.18.336,2.428,2.428,0,0,1,.8.945l.352-1.125h1.961l-1.258,8.414a3.745,3.745,0,0,1-1.461,2.582,5.224,5.224,0,0,1-3.148.871,5.345,5.345,0,0,1-1.32-.18,5.757,5.757,0,0,1-1.266-.477l.641-1.7a4.509,4.509,0,0,0,1.023.379,5.107,5.107,0,0,0,1.188.129,2.292,2.292,0,0,0,1.418-.395,1.786,1.786,0,0,0,.645-1.215l.109-.766a3.153,3.153,0,0,1-.992.73,2.845,2.845,0,0,1-1.2.246,2.44,2.44,0,0,1-2.219-1.156,4.3,4.3,0,0,1-.445-3Zm2.258.164a3.217,3.217,0,0,0,.1,1.766,1.11,1.11,0,0,0,1.129.617,1.906,1.906,0,0,0,1.586-.773l.547-3.633a1.272,1.272,0,0,0-.5-.609,1.6,1.6,0,0,0-2.152.543,4.541,4.541,0,0,0-.687,1.926ZM28.93,24H26.648l1.266-8.453H30.2ZM30.5,13.523H28.219l.258-1.711h2.281Zm5.242,8.133a.665.665,0,0,0-.27-.648,3.443,3.443,0,0,0-1.285-.469,4.649,4.649,0,0,1-2.125-.9,1.721,1.721,0,0,1-.547-1.633,2.733,2.733,0,0,1,1.176-1.871,4.231,4.231,0,0,1,2.566-.746,3.565,3.565,0,0,1,2.426.773,1.937,1.937,0,0,1,.691,1.9l-.016.047h-2.2a.992.992,0,0,0-.211-.836,1.165,1.165,0,0,0-.906-.312,1.466,1.466,0,0,0-.895.273.987.987,0,0,0-.426.672.653.653,0,0,0,.238.641,3.46,3.46,0,0,0,1.293.438,4.721,4.721,0,0,1,2.184.918,1.784,1.784,0,0,1,.535,1.668,2.645,2.645,0,0,1-1.238,1.891,4.778,4.778,0,0,1-2.684.7,3.456,3.456,0,0,1-2.516-.867,2.076,2.076,0,0,1-.7-1.937l.023-.047h2.086a1.041,1.041,0,0,0,.309.984,1.648,1.648,0,0,0,1.059.3,1.728,1.728,0,0,0,.984-.258A.971.971,0,0,0,35.742,21.656Zm7.625-8.18-.312,2.07h1.43l-.234,1.6H42.813l-.641,4.3a.9.9,0,0,0,.094.715.644.644,0,0,0,.516.2,2.371,2.371,0,0,0,.316-.02,2.468,2.468,0,0,0,.316-.066l-.062,1.648a5.086,5.086,0,0,1-.691.176,4.116,4.116,0,0,1-.715.059,2.108,2.108,0,0,1-1.7-.656,2.509,2.509,0,0,1-.348-2.047l.641-4.312H39.313l.234-1.6h1.234l.313-2.07Zm6.68,4.031-.836-.023a1.625,1.625,0,0,0-.859.223,1.789,1.789,0,0,0-.609.629L46.9,24H44.625l1.266-8.453h2.117l-.078,1.211a3.127,3.127,0,0,1,.914-1.012,2,2,0,0,1,1.148-.355,1.788,1.788,0,0,1,.316.027,2.705,2.705,0,0,1,.285.066Zm3.93,2.945.016.461.047.008,2.43-5.375h2.453l-4.883,9.719a5.432,5.432,0,0,1-1.207,1.527,2.871,2.871,0,0,1-1.949.621,2.773,2.773,0,0,1-.52-.047q-.246-.047-.582-.133L50.3,25.57q.094.016.211.031a1.611,1.611,0,0,0,.211.016,1.4,1.4,0,0,0,.9-.285,2.344,2.344,0,0,0,.586-.684L52.563,24l-1.734-8.453h2.453Zm9.086-.906a11.565,11.565,0,0,1-1.953,5.227,7.439,7.439,0,0,1-3.156,2.75l-.047-.008L57.641,26.4A7.043,7.043,0,0,0,59.7,23.922a12.77,12.77,0,0,0,1.316-4.359l.023-.2a11.084,11.084,0,0,0-.082-4.395,4.917,4.917,0,0,0-1.371-2.449l.586-1.109h.047a4.95,4.95,0,0,1,2.355,2.8,9.67,9.67,0,0,1,.512,5.164Z" transform="translate(-10475 -8848)" fill="#12263f"/>
    <path id="Trazado_22" data-name="Trazado 22" d="M-16.419-4l.017.05a3.783,3.783,0,0,1-1.179,3.03,4.806,4.806,0,0,1-3.345,1.1,4.634,4.634,0,0,1-3.511-1.4,5.017,5.017,0,0,1-1.336-3.615v-2.4a5.11,5.11,0,0,1,1.3-3.615,4.443,4.443,0,0,1,3.42-1.407A5.1,5.1,0,0,1-17.6-11.181a3.715,3.715,0,0,1,1.212,3.038l-.017.05H-18.76a2.376,2.376,0,0,0-.56-1.731,2.337,2.337,0,0,0-1.731-.569,1.954,1.954,0,0,0-1.7.876,3.873,3.873,0,0,0-.61,2.262v2.416a3.759,3.759,0,0,0,.643,2.274,2.091,2.091,0,0,0,1.789.88A2.128,2.128,0,0,0-19.3-2.254,2.474,2.474,0,0,0-18.768-4ZM-12.3,0h-2.424V-12.949H-12.3Zm4.541,0h-2.424V-8.981h2.424Zm0-11.131h-2.424v-1.818h2.424ZM-1.876.174A4.041,4.041,0,0,1-5.014-1.058,4.518,4.518,0,0,1-6.143-4.233v-.332a4.917,4.917,0,0,1,1.1-3.3A3.725,3.725,0,0,1-2.034-9.147,3.487,3.487,0,0,1,.743-8.039,4.379,4.379,0,0,1,1.71-5.055V-3.8H-3.644l-.025.05a2.426,2.426,0,0,0,.56,1.494,1.876,1.876,0,0,0,1.49.573A4.986,4.986,0,0,0-.237-1.851,5.639,5.639,0,0,0,.938-2.357L1.594-.863A4.5,4.5,0,0,1,.133-.125,6.479,6.479,0,0,1-1.876.174ZM-2.034-7.28a1.346,1.346,0,0,0-1.125.5,2.519,2.519,0,0,0-.477,1.332l.017.042H-.664v-.183A2.1,2.1,0,0,0-.988-6.827,1.2,1.2,0,0,0-2.034-7.28Zm7.371-1.7.108,1.287a3.285,3.285,0,0,1,1.1-1.071,2.866,2.866,0,0,1,1.469-.382,2.671,2.671,0,0,1,2.125.876A4.152,4.152,0,0,1,10.907-5.5V0H8.475V-5.5a2.15,2.15,0,0,0-.336-1.365,1.239,1.239,0,0,0-1.009-.4,2.116,2.116,0,0,0-.95.2A1.855,1.855,0,0,0,5.5-6.5V0H3.08V-8.981Zm10.285-2.2v2.2h1.519v1.7H15.622v4.574a1.044,1.044,0,0,0,.22.747.772.772,0,0,0,.577.224,2.314,2.314,0,0,0,.332-.021,2.8,2.8,0,0,0,.324-.071l.2,1.751a4.907,4.907,0,0,1-.71.187,4.231,4.231,0,0,1-.751.062,2.583,2.583,0,0,1-1.93-.689A3.021,3.021,0,0,1,13.207-2.7V-7.28H11.9v-1.7h1.312v-2.2ZM22.528.174a4.041,4.041,0,0,1-3.138-1.233,4.518,4.518,0,0,1-1.129-3.175v-.332a4.917,4.917,0,0,1,1.1-3.3,3.725,3.725,0,0,1,3.013-1.278,3.487,3.487,0,0,1,2.777,1.108,4.379,4.379,0,0,1,.967,2.984V-3.8H20.76l-.025.05a2.426,2.426,0,0,0,.56,1.494,1.876,1.876,0,0,0,1.49.573,4.986,4.986,0,0,0,1.382-.166,5.639,5.639,0,0,0,1.175-.506L26-.863a4.5,4.5,0,0,1-1.461.739A6.479,6.479,0,0,1,22.528.174ZM22.371-7.28a1.346,1.346,0,0,0-1.125.5,2.519,2.519,0,0,0-.477,1.332l.017.042H23.74v-.183a2.1,2.1,0,0,0-.324-1.241A1.2,1.2,0,0,0,22.371-7.28ZM-66.4,21.086a12.509,12.509,0,0,1,2.03-5.582,7.775,7.775,0,0,1,3.275-2.885l.05.008.266,1.2a7.338,7.338,0,0,0-2.2,2.623,13.48,13.48,0,0,0-1.382,4.615l-.025.216a11.88,11.88,0,0,0,.066,4.673,5.109,5.109,0,0,0,1.478,2.59l-.614,1.187h-.042A5.174,5.174,0,0,1-65.941,26.8a10.444,10.444,0,0,1-.481-5.528Zm12.21,1.984a1.313,1.313,0,0,0-.357-1.233,5.614,5.614,0,0,0-1.793-.909,8.032,8.032,0,0,1-3.075-1.594,2.631,2.631,0,0,1-.768-2.465,3.2,3.2,0,0,1,1.494-2.3,5.557,5.557,0,0,1,3.1-.834,4.7,4.7,0,0,1,3.171.988,2.723,2.723,0,0,1,.847,2.714l-.017.05H-53.93a1.505,1.505,0,0,0-.419-1.361,2.078,2.078,0,0,0-1.515-.523,2.254,2.254,0,0,0-1.266.357,1.266,1.266,0,0,0-.618.888,1.185,1.185,0,0,0,.374,1.179,7.52,7.52,0,0,0,2.05.93,7.084,7.084,0,0,1,2.876,1.573,2.813,2.813,0,0,1,.685,2.519,3.179,3.179,0,0,1-1.5,2.324,5.828,5.828,0,0,1-3.154.8,5.915,5.915,0,0,1-3.337-.9,2.538,2.538,0,0,1-1.029-2.8l.017-.05h2.349a1.32,1.32,0,0,0,.544,1.465,3.269,3.269,0,0,0,1.731.427,2.434,2.434,0,0,0,1.3-.353A1.272,1.272,0,0,0-54.187,23.07Zm7.18,3.1a3.49,3.49,0,0,1-2.914-1.249,3.9,3.9,0,0,1-.689-3.158l.05-.332a5.677,5.677,0,0,1,1.581-3.341,4.367,4.367,0,0,1,3.208-1.241,3,3,0,0,1,2.577,1.121,3.84,3.84,0,0,1,.552,2.972l-.183,1.253h-5.362l-.017.042a2.107,2.107,0,0,0,.315,1.515,1.643,1.643,0,0,0,1.411.56,5.324,5.324,0,0,0,1.4-.17,6.405,6.405,0,0,0,1.262-.5l.432,1.494a5.506,5.506,0,0,1-1.577.739A6.88,6.88,0,0,1-47.007,26.174Zm.963-7.454a1.551,1.551,0,0,0-1.175.506,3.008,3.008,0,0,0-.693,1.32l.017.05h2.938l.025-.183a1.938,1.938,0,0,0-.129-1.253A1.036,1.036,0,0,0-46.044,18.72Zm9.82.382-.888-.025a1.726,1.726,0,0,0-.913.237,1.9,1.9,0,0,0-.647.668L-39.57,26h-2.416l1.345-8.981h2.25l-.083,1.287A3.322,3.322,0,0,1-37.5,17.23a2.126,2.126,0,0,1,1.22-.378,1.9,1.9,0,0,1,.336.029,2.874,2.874,0,0,1,.3.071Zm4.117,3.553.033.822.05.008.291-.83,2.324-5.636h2.532L-31.277,26h-2.316l-1.71-8.981h2.532ZM-24.62,26h-2.424l1.345-8.981h2.424Zm1.668-11.131h-2.424l.274-1.818h2.424Zm4.325,9.446a1.559,1.559,0,0,0,1.05-.382,1.614,1.614,0,0,0,.544-1h2.2l.017.05a3.345,3.345,0,0,1-1.349,2.3,4.373,4.373,0,0,1-2.735.892,3.285,3.285,0,0,1-2.851-1.291,4.234,4.234,0,0,1-.635-3.241l.033-.249a5.655,5.655,0,0,1,1.569-3.3,4.446,4.446,0,0,1,3.262-1.245,3.226,3.226,0,0,1,2.478.955,2.758,2.758,0,0,1,.627,2.49l-.017.042h-2.216a1.634,1.634,0,0,0-.187-1.166,1.059,1.059,0,0,0-.959-.452,1.653,1.653,0,0,0-1.432.764,4.512,4.512,0,0,0-.7,1.909l-.033.249a3.856,3.856,0,0,0,.091,1.955A1.188,1.188,0,0,0-18.627,24.315Zm8.633,1.859a3.49,3.49,0,0,1-2.914-1.249,3.9,3.9,0,0,1-.689-3.158l.05-.332a5.677,5.677,0,0,1,1.581-3.341,4.367,4.367,0,0,1,3.208-1.241A3,3,0,0,1-6.18,17.973a3.84,3.84,0,0,1,.552,2.972L-5.811,22.2h-5.362l-.017.042a2.107,2.107,0,0,0,.315,1.515,1.643,1.643,0,0,0,1.411.56,5.324,5.324,0,0,0,1.4-.17,6.405,6.405,0,0,0,1.262-.5l.432,1.494a5.506,5.506,0,0,1-1.577.739A6.88,6.88,0,0,1-9.994,26.174Zm.963-7.454a1.551,1.551,0,0,0-1.175.506,3.008,3.008,0,0,0-.693,1.32l.017.05h2.938l.025-.183a1.938,1.938,0,0,0-.129-1.253A1.036,1.036,0,0,0-9.031,18.72ZM8,21.758A5.972,5.972,0,0,1,6.6,25a3.593,3.593,0,0,1-2.756,1.175,2.47,2.47,0,0,1-1.2-.278,2.2,2.2,0,0,1-.834-.809l-.647,4.366H-1.253L.606,17.019H2.789l-.017,1.063a3.526,3.526,0,0,1,1.1-.913,2.886,2.886,0,0,1,1.353-.315,2.528,2.528,0,0,1,2.357,1.316,5.238,5.238,0,0,1,.448,3.416Zm-2.4-.174a4.145,4.145,0,0,0-.112-2.075,1.157,1.157,0,0,0-1.183-.772,1.923,1.923,0,0,0-.955.237,2.153,2.153,0,0,0-.722.668l-.589,3.885a1.185,1.185,0,0,0,.523.589,1.879,1.879,0,0,0,.921.2,1.655,1.655,0,0,0,1.378-.7,4.069,4.069,0,0,0,.714-1.859ZM14.618,19.1l-.888-.025a1.726,1.726,0,0,0-.913.237,1.9,1.9,0,0,0-.647.668L11.272,26H8.857L10.2,17.019h2.25l-.083,1.287a3.322,3.322,0,0,1,.971-1.075,2.126,2.126,0,0,1,1.22-.378,1.9,1.9,0,0,1,.336.029,2.874,2.874,0,0,1,.3.071Zm.374,2.324A5.578,5.578,0,0,1,16.6,18.1a4.575,4.575,0,0,1,3.3-1.245,3.382,3.382,0,0,1,2.889,1.295,4.234,4.234,0,0,1,.681,3.279l-.025.174a5.644,5.644,0,0,1-1.619,3.337,4.589,4.589,0,0,1-3.3,1.237,3.387,3.387,0,0,1-2.889-1.291,4.188,4.188,0,0,1-.664-3.283Zm2.391.174a3.6,3.6,0,0,0,.125,1.992,1.268,1.268,0,0,0,1.287.722,1.767,1.767,0,0,0,1.469-.755,4.244,4.244,0,0,0,.755-1.959l.025-.174a3.707,3.707,0,0,0-.145-1.971,1.25,1.25,0,0,0-1.274-.735,1.765,1.765,0,0,0-1.478.768,4.163,4.163,0,0,0-.739,1.938Zm10.509,1.054.033.822.05.008.291-.83,2.324-5.636H33.12L28.721,26H26.4l-1.71-8.981h2.532ZM35.378,26H32.954L34.3,17.019h2.424Zm1.668-11.131H34.623l.274-1.818H37.32Zm.614,6.715a6.64,6.64,0,0,1,1.424-3.466,3.53,3.53,0,0,1,2.785-1.266,2.154,2.154,0,0,1,1.15.3,2.514,2.514,0,0,1,.834.867l.747-4.972h2.432L45.09,26H43.023l-.042-1.1a3.714,3.714,0,0,1-1.146.95,2.943,2.943,0,0,1-1.378.328A2.583,2.583,0,0,1,38.1,24.946a4.581,4.581,0,0,1-.469-3.187Zm2.391.174a3.385,3.385,0,0,0,.108,1.876,1.188,1.188,0,0,0,1.2.656,2.028,2.028,0,0,0,.942-.22,2.111,2.111,0,0,0,.735-.635l.573-3.8a1.476,1.476,0,0,0-.535-.66,1.522,1.522,0,0,0-.867-.237,1.646,1.646,0,0,0-1.4.8,4.789,4.789,0,0,0-.735,2.046Zm10.783,4.416a3.49,3.49,0,0,1-2.914-1.249,3.9,3.9,0,0,1-.689-3.158l.05-.332a5.677,5.677,0,0,1,1.581-3.341,4.367,4.367,0,0,1,3.208-1.241,3,3,0,0,1,2.577,1.121,3.84,3.84,0,0,1,.552,2.972L55.018,22.2H49.655l-.017.042a2.107,2.107,0,0,0,.315,1.515,1.643,1.643,0,0,0,1.411.56,5.324,5.324,0,0,0,1.4-.17,6.405,6.405,0,0,0,1.262-.5l.432,1.494a5.506,5.506,0,0,1-1.577.739A6.88,6.88,0,0,1,50.834,26.174ZM51.8,18.72a1.551,1.551,0,0,0-1.175.506,3.008,3.008,0,0,0-.693,1.32l.017.05h2.938l.025-.183a1.938,1.938,0,0,0-.129-1.253A1.036,1.036,0,0,0,51.8,18.72Zm9.82.382-.888-.025a1.726,1.726,0,0,0-.913.237,1.9,1.9,0,0,0-.647.668L58.271,26H55.856L57.2,17.019h2.25l-.083,1.287a3.322,3.322,0,0,1,.971-1.075,2.126,2.126,0,0,1,1.22-.378,1.9,1.9,0,0,1,.336.029,2.874,2.874,0,0,1,.3.071Zm5,2.167a12.287,12.287,0,0,1-2.075,5.553,7.9,7.9,0,0,1-3.354,2.922l-.05-.008-.282-1.187a7.483,7.483,0,0,0,2.187-2.631,13.568,13.568,0,0,0,1.4-4.632l.025-.216a11.777,11.777,0,0,0-.087-4.669,5.224,5.224,0,0,0-1.457-2.6l.623-1.179h.05a5.26,5.26,0,0,1,2.5,2.98,10.274,10.274,0,0,1,.544,5.487Z" transform="translate(-10101 -8574)" fill="#12263f"/>
    <path id="Trazado_23" data-name="Trazado 23" d="M-15.453-3.766l.016.047A3.561,3.561,0,0,1-16.547-.867,4.523,4.523,0,0,1-19.7.164,4.361,4.361,0,0,1-23-1.152a4.722,4.722,0,0,1-1.258-3.4V-6.812a4.809,4.809,0,0,1,1.227-3.4,4.182,4.182,0,0,1,3.219-1.324,4.8,4.8,0,0,1,3.25,1.016,3.5,3.5,0,0,1,1.141,2.859l-.016.047h-2.219a2.236,2.236,0,0,0-.527-1.629,2.2,2.2,0,0,0-1.629-.535,1.839,1.839,0,0,0-1.6.824,3.645,3.645,0,0,0-.574,2.129v2.273a3.538,3.538,0,0,0,.605,2.141,1.968,1.968,0,0,0,1.684.828,2,2,0,0,0,1.527-.535,2.328,2.328,0,0,0,.5-1.645ZM-11.578,0h-2.281V-12.187h2.281ZM-7.3,0H-9.586V-8.453H-7.3Zm0-10.477H-9.586v-1.711H-7.3ZM-1.766.164A3.8,3.8,0,0,1-4.719-1,4.252,4.252,0,0,1-5.781-3.984V-4.3A4.628,4.628,0,0,1-4.75-7.406a3.506,3.506,0,0,1,2.836-1.2A3.282,3.282,0,0,1,.7-7.566a4.122,4.122,0,0,1,.91,2.809v1.18H-3.43l-.023.047a2.284,2.284,0,0,0,.527,1.406,1.766,1.766,0,0,0,1.4.539,4.692,4.692,0,0,0,1.3-.156A5.307,5.307,0,0,0,.883-2.219L1.5-.812a4.234,4.234,0,0,1-1.375.7A6.1,6.1,0,0,1-1.766.164Zm-.148-7.016a1.267,1.267,0,0,0-1.059.473,2.371,2.371,0,0,0-.449,1.254l.016.039H-.625v-.172a1.974,1.974,0,0,0-.3-1.168A1.127,1.127,0,0,0-1.914-6.852Zm6.938-1.6.1,1.211A3.092,3.092,0,0,1,6.164-8.25a2.7,2.7,0,0,1,1.383-.359,2.513,2.513,0,0,1,2,.824,3.908,3.908,0,0,1,.719,2.605V0H7.977V-5.172A2.024,2.024,0,0,0,7.66-6.457a1.166,1.166,0,0,0-.949-.379,1.992,1.992,0,0,0-.895.191,1.746,1.746,0,0,0-.637.527V0H2.9V-8.453Zm9.68-2.07v2.07h1.43v1.6H14.7v4.3a.982.982,0,0,0,.207.7.727.727,0,0,0,.543.211,2.178,2.178,0,0,0,.313-.02,2.632,2.632,0,0,0,.3-.066L16.258-.07a4.618,4.618,0,0,1-.668.176,3.982,3.982,0,0,1-.707.059,2.431,2.431,0,0,1-1.816-.648,2.843,2.843,0,0,1-.637-2.055V-6.852H11.2v-1.6H12.43v-2.07ZM21.2.164A3.8,3.8,0,0,1,18.25-1a4.252,4.252,0,0,1-1.062-2.988V-4.3a4.628,4.628,0,0,1,1.031-3.109,3.506,3.506,0,0,1,2.836-1.2,3.282,3.282,0,0,1,2.613,1.043,4.122,4.122,0,0,1,.91,2.809v1.18H19.539l-.023.047a2.284,2.284,0,0,0,.527,1.406,1.766,1.766,0,0,0,1.4.539,4.692,4.692,0,0,0,1.3-.156,5.307,5.307,0,0,0,1.105-.477l.617,1.406a4.234,4.234,0,0,1-1.375.7A6.1,6.1,0,0,1,21.2.164Zm-.148-7.016A1.267,1.267,0,0,0,20-6.379a2.371,2.371,0,0,0-.449,1.254l.016.039h2.781v-.172a1.974,1.974,0,0,0-.3-1.168A1.127,1.127,0,0,0,21.055-6.852ZM-69.781,19.375a11.773,11.773,0,0,1,1.91-5.254,7.318,7.318,0,0,1,3.082-2.715l.047.008.25,1.133a6.907,6.907,0,0,0-2.066,2.469,12.687,12.687,0,0,0-1.3,4.344l-.023.2a11.182,11.182,0,0,0,.063,4.4A4.809,4.809,0,0,0-66.43,26.4l-.578,1.117h-.039a4.87,4.87,0,0,1-2.3-2.766,9.829,9.829,0,0,1-.453-5.2Zm11.492,1.867a1.236,1.236,0,0,0-.336-1.16,5.284,5.284,0,0,0-1.687-.855,7.56,7.56,0,0,1-2.895-1.5,2.477,2.477,0,0,1-.723-2.32,3.009,3.009,0,0,1,1.406-2.16,5.231,5.231,0,0,1,2.922-.785,4.423,4.423,0,0,1,2.984.93,2.563,2.563,0,0,1,.8,2.555l-.016.047h-2.211a1.417,1.417,0,0,0-.395-1.281,1.955,1.955,0,0,0-1.426-.492,2.121,2.121,0,0,0-1.191.336,1.191,1.191,0,0,0-.582.836,1.115,1.115,0,0,0,.352,1.109,7.077,7.077,0,0,0,1.93.875,6.668,6.668,0,0,1,2.707,1.48,2.647,2.647,0,0,1,.645,2.371,2.992,2.992,0,0,1-1.414,2.188,5.485,5.485,0,0,1-2.969.75,5.567,5.567,0,0,1-3.141-.848A2.388,2.388,0,0,1-64.5,20.68l.016-.047h2.211a1.242,1.242,0,0,0,.512,1.379,3.077,3.077,0,0,0,1.629.4,2.291,2.291,0,0,0,1.227-.332A1.2,1.2,0,0,0-58.289,21.242Zm6.758,2.922a3.285,3.285,0,0,1-2.742-1.176,3.672,3.672,0,0,1-.648-2.973l.047-.312a5.343,5.343,0,0,1,1.488-3.145,4.111,4.111,0,0,1,3.02-1.168,2.826,2.826,0,0,1,2.426,1.055,3.614,3.614,0,0,1,.52,2.8l-.172,1.18h-5.047l-.016.039a1.983,1.983,0,0,0,.3,1.426,1.546,1.546,0,0,0,1.328.527,5.011,5.011,0,0,0,1.32-.16,6.029,6.029,0,0,0,1.188-.473l.406,1.406a5.183,5.183,0,0,1-1.484.7A6.475,6.475,0,0,1-51.531,24.164Zm.906-7.016a1.459,1.459,0,0,0-1.105.477,2.831,2.831,0,0,0-.652,1.242l.016.047H-49.6l.023-.172a1.824,1.824,0,0,0-.121-1.18A.975.975,0,0,0-50.625,17.148Zm9.242.359-.836-.023a1.625,1.625,0,0,0-.859.223,1.789,1.789,0,0,0-.609.629L-44.531,24H-46.8l1.266-8.453h2.117l-.078,1.211a3.127,3.127,0,0,1,.914-1.012,2,2,0,0,1,1.148-.355,1.788,1.788,0,0,1,.316.027,2.705,2.705,0,0,1,.285.066Zm3.875,3.344.031.773.047.008.273-.781,2.188-5.3h2.383L-36.727,24h-2.18l-1.609-8.453h2.383ZM-30.461,24h-2.281l1.266-8.453H-29.2Zm1.57-10.477h-2.281l.258-1.711h2.281Zm4.07,8.891a1.467,1.467,0,0,0,.988-.359,1.519,1.519,0,0,0,.512-.945h2.07l.016.047a3.149,3.149,0,0,1-1.27,2.168,4.116,4.116,0,0,1-2.574.84,3.092,3.092,0,0,1-2.684-1.215,3.985,3.985,0,0,1-.6-3.051l.031-.234a5.322,5.322,0,0,1,1.477-3.1,4.185,4.185,0,0,1,3.07-1.172,3.036,3.036,0,0,1,2.332.9,2.6,2.6,0,0,1,.59,2.344l-.016.039h-2.086a1.538,1.538,0,0,0-.176-1.1,1,1,0,0,0-.9-.426,1.555,1.555,0,0,0-1.348.719,4.247,4.247,0,0,0-.66,1.8l-.031.234a3.629,3.629,0,0,0,.086,1.84A1.119,1.119,0,0,0-24.82,22.414Zm8.125,1.75a3.285,3.285,0,0,1-2.742-1.176,3.672,3.672,0,0,1-.648-2.973l.047-.312a5.343,5.343,0,0,1,1.488-3.145,4.111,4.111,0,0,1,3.02-1.168,2.826,2.826,0,0,1,2.426,1.055,3.614,3.614,0,0,1,.52,2.8l-.172,1.18H-17.8l-.016.039a1.983,1.983,0,0,0,.3,1.426,1.546,1.546,0,0,0,1.328.527,5.011,5.011,0,0,0,1.32-.16,6.028,6.028,0,0,0,1.188-.473l.406,1.406a5.183,5.183,0,0,1-1.484.7A6.475,6.475,0,0,1-16.7,24.164Zm.906-7.016a1.459,1.459,0,0,0-1.105.477,2.831,2.831,0,0,0-.652,1.242l.016.047h2.766l.023-.172a1.824,1.824,0,0,0-.121-1.18A.975.975,0,0,0-15.789,17.148Zm10.938,2.3L-5.531,24H-7.812l1.7-11.375h3.938A4.177,4.177,0,0,1,.7,13.52a2.577,2.577,0,0,1,.77,2.465,2.94,2.94,0,0,1-.7,1.547A3.917,3.917,0,0,1-.75,18.539,2.11,2.11,0,0,1,.543,19.547,2.75,2.75,0,0,1,.75,21.234l-.125.836a4.166,4.166,0,0,0-.02,1,1.144,1.144,0,0,0,.324.762L.906,24H-1.445a1.1,1.1,0,0,1-.273-.816,7.448,7.448,0,0,1,.07-1.129l.125-.8a1.621,1.621,0,0,0-.258-1.34,1.57,1.57,0,0,0-1.258-.457Zm.266-1.758h1.617a2.392,2.392,0,0,0,1.469-.41,1.774,1.774,0,0,0,.672-1.2,1.483,1.483,0,0,0-.281-1.254,1.688,1.688,0,0,0-1.32-.449H-4.086ZM5.852,24.164a3.285,3.285,0,0,1-2.742-1.176,3.672,3.672,0,0,1-.648-2.973l.047-.312A5.343,5.343,0,0,1,4,16.559a4.111,4.111,0,0,1,3.02-1.168,2.826,2.826,0,0,1,2.426,1.055,3.614,3.614,0,0,1,.52,2.8l-.172,1.18H4.742l-.016.039a1.983,1.983,0,0,0,.3,1.426,1.546,1.546,0,0,0,1.328.527,5.011,5.011,0,0,0,1.32-.16,6.028,6.028,0,0,0,1.188-.473l.406,1.406a5.183,5.183,0,0,1-1.484.7A6.475,6.475,0,0,1,5.852,24.164Zm.906-7.016a1.459,1.459,0,0,0-1.105.477A2.831,2.831,0,0,0,5,18.867l.016.047H7.781l.023-.172a1.824,1.824,0,0,0-.121-1.18A.975.975,0,0,0,6.758,17.148Zm4.094,2.7a6.25,6.25,0,0,1,1.34-3.262,3.322,3.322,0,0,1,2.621-1.191,2.081,2.081,0,0,1,1.168.32,2.34,2.34,0,0,1,.793.914l.375-1.078h1.938l-1.75,11.7H15.055l.6-4.039a3.118,3.118,0,0,1-.984.711,2.865,2.865,0,0,1-1.187.242,2.431,2.431,0,0,1-2.215-1.156,4.311,4.311,0,0,1-.441-3Zm2.25.164a3.268,3.268,0,0,0,.1,1.777,1.106,1.106,0,0,0,1.129.629,1.883,1.883,0,0,0,1.563-.766l.555-3.719a1.256,1.256,0,0,0-.488-.578,1.512,1.512,0,0,0-.816-.2,1.555,1.555,0,0,0-1.32.762,4.536,4.536,0,0,0-.7,1.934Zm11.875,2.781a3.366,3.366,0,0,1-1.141,1.023,3.044,3.044,0,0,1-1.461.352,2.2,2.2,0,0,1-1.93-.914,3.9,3.9,0,0,1-.359-2.8l.734-4.9h2.273l-.734,4.914A2.589,2.589,0,0,0,22.426,22a.945.945,0,0,0,.879.391,2.351,2.351,0,0,0,.957-.187,2.046,2.046,0,0,0,.73-.539l.914-6.117h2.281L26.922,24H25.031Zm7.3,1.375a3.285,3.285,0,0,1-2.742-1.176,3.672,3.672,0,0,1-.648-2.973l.047-.312a5.343,5.343,0,0,1,1.488-3.145,4.111,4.111,0,0,1,3.02-1.168,2.826,2.826,0,0,1,2.426,1.055,3.614,3.614,0,0,1,.52,2.8l-.172,1.18H31.172l-.016.039a1.983,1.983,0,0,0,.3,1.426,1.546,1.546,0,0,0,1.328.527,5.011,5.011,0,0,0,1.32-.16,6.029,6.029,0,0,0,1.188-.473l.406,1.406a5.183,5.183,0,0,1-1.484.7A6.475,6.475,0,0,1,32.281,24.164Zm.906-7.016a1.459,1.459,0,0,0-1.105.477,2.831,2.831,0,0,0-.652,1.242l.016.047h2.766l.023-.172a1.824,1.824,0,0,0-.121-1.18A.975.975,0,0,0,33.188,17.148Zm8.758,4.508a.665.665,0,0,0-.27-.648,3.443,3.443,0,0,0-1.285-.469,4.649,4.649,0,0,1-2.125-.9,1.721,1.721,0,0,1-.547-1.633,2.733,2.733,0,0,1,1.176-1.871,4.231,4.231,0,0,1,2.566-.746,3.565,3.565,0,0,1,2.426.773,1.937,1.937,0,0,1,.691,1.9l-.016.047h-2.2a.992.992,0,0,0-.211-.836,1.165,1.165,0,0,0-.906-.312,1.466,1.466,0,0,0-.895.273.987.987,0,0,0-.426.672.653.653,0,0,0,.238.641,3.46,3.46,0,0,0,1.293.438,4.721,4.721,0,0,1,2.184.918,1.784,1.784,0,0,1,.535,1.668,2.645,2.645,0,0,1-1.238,1.891,4.778,4.778,0,0,1-2.684.7,3.456,3.456,0,0,1-2.516-.867,2.076,2.076,0,0,1-.7-1.937l.023-.047h2.086a1.041,1.041,0,0,0,.309.984,1.648,1.648,0,0,0,1.059.3,1.728,1.728,0,0,0,.984-.258A.971.971,0,0,0,41.945,21.656Zm7.625-8.18-.312,2.07h1.43l-.234,1.6H49.016l-.641,4.3a.9.9,0,0,0,.094.715.644.644,0,0,0,.516.2,2.371,2.371,0,0,0,.316-.02,2.468,2.468,0,0,0,.316-.066l-.062,1.648a5.086,5.086,0,0,1-.691.176,4.116,4.116,0,0,1-.715.059,2.108,2.108,0,0,1-1.7-.656,2.509,2.509,0,0,1-.348-2.047l.641-4.312H45.516l.234-1.6h1.234l.313-2.07ZM51.125,19.7a5.25,5.25,0,0,1,1.512-3.133,4.306,4.306,0,0,1,3.105-1.172,3.183,3.183,0,0,1,2.719,1.219A3.985,3.985,0,0,1,59.1,19.7l-.023.164A5.312,5.312,0,0,1,57.555,23a4.319,4.319,0,0,1-3.109,1.164,3.188,3.188,0,0,1-2.719-1.215,3.942,3.942,0,0,1-.625-3.09Zm2.25.164a3.383,3.383,0,0,0,.117,1.875,1.193,1.193,0,0,0,1.211.68,1.663,1.663,0,0,0,1.383-.711,3.994,3.994,0,0,0,.711-1.844l.023-.164a3.489,3.489,0,0,0-.137-1.855,1.176,1.176,0,0,0-1.2-.691,1.661,1.661,0,0,0-1.391.723,3.918,3.918,0,0,0-.7,1.824Zm11.906-2.352-.836-.023a1.625,1.625,0,0,0-.859.223,1.789,1.789,0,0,0-.609.629L62.133,24H59.859l1.266-8.453h2.117l-.078,1.211a3.127,3.127,0,0,1,.914-1.012,2,2,0,0,1,1.148-.355,1.788,1.788,0,0,1,.316.027,2.705,2.705,0,0,1,.285.066Zm4.7,2.039a11.565,11.565,0,0,1-1.953,5.227,7.439,7.439,0,0,1-3.156,2.75l-.047-.008L64.563,26.4a7.043,7.043,0,0,0,2.059-2.477,12.77,12.77,0,0,0,1.316-4.359l.023-.2a11.084,11.084,0,0,0-.082-4.395,4.917,4.917,0,0,0-1.371-2.449l.586-1.109h.047a4.95,4.95,0,0,1,2.355,2.8,9.67,9.67,0,0,1,.512,5.164Z" transform="translate(-10841 -8574)" fill="#12263f"/>
  </g>
</svg>
