<svg xmlns="http://www.w3.org/2000/svg" width="124" height="124" viewBox="0 0 124 124">
  <g id="Grupo_99738" data-name="Grupo 99738" transform="translate(-388 -884)">
    <rect id="Rectángulo_33878" data-name="Rectángulo 33878" width="124" height="124" rx="17" transform="translate(388 884)" fill="#a9ebf4"/>
    <g id="escritorio" transform="translate(410 888.701)">
      <g id="Grupo_99737" data-name="Grupo 99737" transform="translate(0 20.299)">
        <rect id="Rectángulo_33887" data-name="Rectángulo 33887" width="18.924" height="8.603" transform="translate(30.909 54.485)" fill="#9facba"/>
        <rect id="Rectángulo_33888" data-name="Rectángulo 33888" width="6.308" height="8.603" transform="translate(30.909 54.485)" fill="#8d9ca8"/>
        <path id="Rectángulo_33889" data-name="Rectángulo 33889" d="M-6.317-7.5H12.607a1.183,1.183,0,0,1,1.183,1.183v8.6a1.183,1.183,0,0,1-1.183,1.183H-6.317A1.183,1.183,0,0,1-7.5,2.286v-8.6A1.183,1.183,0,0,1-6.317-7.5ZM11.424-5.135H-5.135V1.1H11.424Z" transform="translate(37.226 60.802)"/>
        <path id="Trazado_106868" data-name="Trazado 106868" d="M7.5,317.161a3.154,3.154,0,0,0,3.154,3.154H82.723a3.154,3.154,0,0,0,3.154-3.154V311.8H7.5Z" transform="translate(-6.317 -265.83)" fill="#c5d3dd"/>
        <path id="Trazado_106869" data-name="Trazado 106869" d="M13.887,317.161V311.8H7.5v5.362a3.154,3.154,0,0,0,3.154,3.154h6.387A3.154,3.154,0,0,1,13.887,317.161Z" transform="translate(-6.317 -265.83)" fill="#b6c4cf"/>
        <path id="Trazado_106870" data-name="Trazado 106870" d="M76.405,315.18H71.122a1.183,1.183,0,1,1,0-2.365h5.283a1.973,1.973,0,0,0,1.971-1.971v-4.179H2.365v4.179a1.973,1.973,0,0,0,1.971,1.971H65.6a1.183,1.183,0,1,1,0,2.365H4.337A4.342,4.342,0,0,1,0,310.844v-5.362A1.183,1.183,0,0,1,1.183,304.3H79.559a1.183,1.183,0,0,1,1.183,1.183v5.362A4.342,4.342,0,0,1,76.405,315.18Z" transform="translate(0 -259.512)"/>
        <path id="Línea_107" data-name="Línea 107" d="M39.731-5.135H-6.317A1.183,1.183,0,0,1-7.5-6.317,1.183,1.183,0,0,1-6.317-7.5H39.731a1.183,1.183,0,0,1,1.183,1.183A1.183,1.183,0,0,1,39.731-5.135Z" transform="translate(23.664 69.405)"/>
        <rect id="Rectángulo_33890" data-name="Rectángulo 33890" width="78.377" height="38.759" transform="translate(1.183 7.21)" fill="#dff6fd"/>
        <rect id="Rectángulo_33891" data-name="Rectángulo 33891" width="6.387" height="38.759" transform="translate(1.183 7.21)" fill="#c8effe"/>
        <path id="Rectángulo_33892" data-name="Rectángulo 33892" d="M-6.317-7.5H72.059a1.183,1.183,0,0,1,1.183,1.183V32.442a1.183,1.183,0,0,1-1.183,1.183H-6.317A1.183,1.183,0,0,1-7.5,32.442V-6.317A1.183,1.183,0,0,1-6.317-7.5ZM70.877-5.135H-5.135V31.259H70.877Z" transform="translate(7.5 13.527)"/>
        <path id="Trazado_106871" data-name="Trazado 106871" d="M82.723,27.8H10.654A3.154,3.154,0,0,0,7.5,30.953v2.873H85.877V30.953A3.154,3.154,0,0,0,82.723,27.8Z" transform="translate(-6.317 -26.616)" fill="#6bd9e7"/>
        <path id="Trazado_106872" data-name="Trazado 106872" d="M79.559,28.692H1.183A1.183,1.183,0,0,1,0,27.509V24.636A4.342,4.342,0,0,1,4.337,20.3h14.43a1.183,1.183,0,0,1,0,2.365H4.337a1.973,1.973,0,0,0-1.971,1.971v1.691H78.377V24.636a1.973,1.973,0,0,0-1.971-1.971H24.286a1.183,1.183,0,0,1,0-2.365h52.12a4.342,4.342,0,0,1,4.337,4.337v2.873A1.183,1.183,0,0,1,79.559,28.692Z" transform="translate(0 -20.299)"/>
        <path id="Trazado_106873" data-name="Trazado 106873" d="M10.654,27.8A3.154,3.154,0,0,0,7.5,30.953v2.873H20.129V27.8Z" transform="translate(-6.317 -26.616)" fill="#6bd9e7"/>
        <path id="Trazado_106874" data-name="Trazado 106874" d="M17.041,27.8H10.654A3.154,3.154,0,0,0,7.5,30.953v2.873h6.387V30.953A3.154,3.154,0,0,1,17.041,27.8Z" transform="translate(-6.317 -26.616)" fill="#2ed1e2"/>
        <path id="Trazado_106875" data-name="Trazado 106875" d="M4.337,20.3h9.475a1.183,1.183,0,0,1,1.183,1.183v6.027a1.183,1.183,0,0,1-1.183,1.183H1.183A1.183,1.183,0,0,1,0,27.509V24.636A4.342,4.342,0,0,1,4.337,20.3Zm8.293,2.365H4.337a1.973,1.973,0,0,0-1.971,1.971v1.691H12.629Z" transform="translate(0 -20.299)"/>
        <g id="Grupo_99736" data-name="Grupo 99736" transform="translate(7.058 11.512)">
          <path id="Trazado_106876" data-name="Trazado 106876" d="M358.462,100.8v27.487h15.184a.788.788,0,0,0,.789-.788v-25.91a.788.788,0,0,0-.789-.788Z" transform="translate(-308.99 -99.616)" fill="#fea613"/>
          <rect id="Rectángulo_33893" data-name="Rectángulo 33893" width="5.289" height="27.488" transform="translate(49.472 1.183)" fill="#fe9901"/>
          <path id="Trazado_106877" data-name="Trazado 106877" d="M352.145,93.3h15.184A1.973,1.973,0,0,1,369.3,95.27v25.91a1.973,1.973,0,0,1-1.971,1.971H352.145a1.183,1.183,0,0,1-1.183-1.183V94.482A1.183,1.183,0,0,1,352.145,93.3Zm14.79,2.365H353.327v25.122h13.607Z" transform="translate(-302.673 -93.299)"/>
          <path id="Trazado_106878" data-name="Trazado 106878" d="M387.905,139.055v-8.34a.473.473,0,0,1,.473-.473h5.74a.473.473,0,0,1,.473.473v8.34a.473.473,0,0,1-.473.473h-5.74A.473.473,0,0,1,387.905,139.055Z" transform="translate(-333.79 -124.416)" fill="#fff"/>
          <path id="Trazado_106878_-_Contorno" data-name="Trazado 106878 - Contorno" d="M387.8,134.394h-5.74a1.658,1.658,0,0,1-1.656-1.656V124.4a1.658,1.658,0,0,1,1.656-1.656h5.74a1.658,1.658,0,0,1,1.656,1.656v8.34A1.658,1.658,0,0,1,387.8,134.394Zm-5.03-2.365h4.321v-6.921h-4.321Z" transform="translate(-327.473 -118.099)"/>
          <g id="Grupo_99734" data-name="Grupo 99734" transform="translate(1.183 1.183)">
            <path id="Trazado_106879" data-name="Trazado 106879" d="M57.037,106.371H53.042a.788.788,0,0,1-.788-.788v-3.995a.788.788,0,0,1,.788-.788h3.995a.789.789,0,0,1,.788.788v3.995A.789.789,0,0,1,57.037,106.371Z" transform="translate(-52.254 -100.799)" fill="#fed402"/>
            <path id="Trazado_106880" data-name="Trazado 106880" d="M54.895,105.582v-3.995a.789.789,0,0,1,.788-.788H53.042a.788.788,0,0,0-.788.788v3.995a.788.788,0,0,0,.788.788h2.641A.789.789,0,0,1,54.895,105.582Z" transform="translate(-52.254 -100.799)" fill="#fac600"/>
            <path id="Trazado_106881" data-name="Trazado 106881" d="M57.037,175.857H53.042a.788.788,0,0,1-.788-.788v-3.995a.788.788,0,0,1,.788-.788h3.995a.788.788,0,0,1,.788.788v3.995A.789.789,0,0,1,57.037,175.857Z" transform="translate(-52.254 -159.327)" fill="#00f2a6"/>
            <path id="Trazado_106882" data-name="Trazado 106882" d="M54.895,175.067v-3.995a.789.789,0,0,1,.788-.788H53.042a.788.788,0,0,0-.788.788v3.995a.788.788,0,0,0,.788.788h2.641A.788.788,0,0,1,54.895,175.067Z" transform="translate(-52.254 -159.326)" fill="#05e39c"/>
            <path id="Trazado_106883" data-name="Trazado 106883" d="M57.037,245.342H53.042a.788.788,0,0,1-.788-.788v-3.995a.788.788,0,0,1,.788-.788h3.995a.789.789,0,0,1,.788.788v3.995A.789.789,0,0,1,57.037,245.342Z" transform="translate(-52.254 -217.854)" fill="#6bd9e7"/>
            <path id="Trazado_106884" data-name="Trazado 106884" d="M54.895,244.553v-3.995a.789.789,0,0,1,.788-.788H53.042a.788.788,0,0,0-.788.788v3.995a.788.788,0,0,0,.788.788h2.641A.788.788,0,0,1,54.895,244.553Z" transform="translate(-52.254 -217.854)" fill="#2ed1e2"/>
          </g>
          <g id="Grupo_99735" data-name="Grupo 99735">
            <path id="Trazado_106885" data-name="Trazado 106885" d="M50.72,101.236H46.725a1.973,1.973,0,0,1-1.971-1.971V95.27A1.973,1.973,0,0,1,46.725,93.3H50.72a1.973,1.973,0,0,1,1.971,1.971v3.995A1.974,1.974,0,0,1,50.72,101.236Zm-3.6-2.365h3.206V95.664H47.119Z" transform="translate(-44.754 -93.299)"/>
            <path id="Trazado_106886" data-name="Trazado 106886" d="M50.72,170.722H46.725a1.973,1.973,0,0,1-1.971-1.971v-3.995a1.973,1.973,0,0,1,1.971-1.971H50.72a1.973,1.973,0,0,1,1.971,1.971v3.995A1.974,1.974,0,0,1,50.72,170.722Zm-3.6-2.365h3.206V165.15H47.119Z" transform="translate(-44.754 -151.827)"/>
            <path id="Trazado_106887" data-name="Trazado 106887" d="M50.72,240.207H46.725a1.973,1.973,0,0,1-1.971-1.971v-3.995a1.973,1.973,0,0,1,1.971-1.971H50.72a1.973,1.973,0,0,1,1.971,1.971v3.995A1.974,1.974,0,0,1,50.72,240.207Zm-3.6-2.365h3.206v-3.206H47.119Z" transform="translate(-44.754 -210.354)"/>
          </g>
          <path id="Trazado_106888" data-name="Trazado 106888" d="M168,128.286H133.128a.788.788,0,0,1-.788-.788v-25.91a.788.788,0,0,1,.788-.788H168Z" transform="translate(-118.527 -99.616)" fill="#fff"/>
          <path id="Trazado_106889" data-name="Trazado 106889" d="M161.681,123.152H126.81a1.973,1.973,0,0,1-1.971-1.971V95.27A1.973,1.973,0,0,1,126.81,93.3h34.871a1.183,1.183,0,0,1,1.183,1.183v27.488A1.183,1.183,0,0,1,161.681,123.152ZM127.2,120.786H160.5V95.664H127.2Z" transform="translate(-112.21 -93.299)"/>
          <path id="Línea_108" data-name="Línea 108" d="M13.63-5.135H-6.317A1.183,1.183,0,0,1-7.5-6.317,1.183,1.183,0,0,1-6.317-7.5H13.63a1.183,1.183,0,0,1,1.183,1.183A1.183,1.183,0,0,1,13.63-5.135Z" transform="translate(30.642 19.386)"/>
          <path id="Línea_109" data-name="Línea 109" d="M-4.948-5.135h-1.37A1.183,1.183,0,0,1-7.5-6.317,1.183,1.183,0,0,1-6.317-7.5h1.37A1.183,1.183,0,0,1-3.765-6.317,1.183,1.183,0,0,1-4.948-5.135Z" transform="translate(25.33 19.386)"/>
          <path id="Línea_110" data-name="Línea 110" d="M18.942-5.135H-6.317A1.183,1.183,0,0,1-7.5-6.317,1.183,1.183,0,0,1-6.317-7.5H18.942a1.183,1.183,0,0,1,1.183,1.183A1.183,1.183,0,0,1,18.942-5.135Z" transform="translate(25.33 24.215)"/>
          <path id="Línea_111" data-name="Línea 111" d="M7.055-5.135H-6.317A1.183,1.183,0,0,1-7.5-6.317,1.183,1.183,0,0,1-6.317-7.5H7.055A1.183,1.183,0,0,1,8.238-6.317,1.183,1.183,0,0,1,7.055-5.135Z" transform="translate(25.33 29.044)"/>
          <path id="Trazado_106890" data-name="Trazado 106890" d="M168,107.485h-35.66v-5.9a.788.788,0,0,1,.788-.788H168Z" transform="translate(-118.527 -99.616)" fill="#4f66d0"/>
          <path id="Trazado_106891" data-name="Trazado 106891" d="M161.681,102.351H126.022a1.183,1.183,0,0,1-1.183-1.183v-5.9A1.973,1.973,0,0,1,126.81,93.3h34.871a1.183,1.183,0,0,1,1.183,1.183v6.686A1.183,1.183,0,0,1,161.681,102.351ZM127.2,99.985H160.5V95.665H127.2Z" transform="translate(-112.21 -93.299)"/>
          <path id="Trazado_106892" data-name="Trazado 106892" d="M139.025,107.485h-6.686v-5.9a.788.788,0,0,1,.788-.788h5.9Z" transform="translate(-118.527 -99.616)" fill="#314dc9"/>
          <path id="Trazado_106893" data-name="Trazado 106893" d="M132.708,102.351h-6.686a1.183,1.183,0,0,1-1.183-1.183v-5.9A1.973,1.973,0,0,1,126.81,93.3h5.9a1.183,1.183,0,0,1,1.183,1.183v6.686A1.183,1.183,0,0,1,132.708,102.351Zm-5.5-2.365h4.321V95.665H127.2Z" transform="translate(-112.21 -93.299)"/>
          <path id="Línea_112" data-name="Línea 112" d="M.369-5.135H-6.317A1.183,1.183,0,0,1-7.5-6.317,1.183,1.183,0,0,1-6.317-7.5H.369A1.183,1.183,0,0,1,1.552-6.317,1.183,1.183,0,0,1,.369-5.135Z" transform="translate(60.432 30.344)"/>
          <path id="Línea_113" data-name="Línea 113" d="M.369-5.135H-6.317A1.183,1.183,0,0,1-7.5-6.317,1.183,1.183,0,0,1-6.317-7.5H.369A1.183,1.183,0,0,1,1.552-6.317,1.183,1.183,0,0,1,.369-5.135Z" transform="translate(60.432 25.887)"/>
        </g>
      </g>
      <path id="Trazado_106894" data-name="Trazado 106894" d="M65.139,458.593H8.288A.789.789,0,0,1,7.5,457.8v-3.217a.789.789,0,0,1,.788-.789H65.139a.789.789,0,0,1,.788.789V457.8A.789.789,0,0,1,65.139,458.593Z" transform="translate(-6.317 -365.137)" fill="#c5d3dd"/>
      <path id="Trazado_106895" data-name="Trazado 106895" d="M15.543,457.8v-3.217a.789.789,0,0,1,.788-.789H8.288a.789.789,0,0,0-.788.789V457.8a.789.789,0,0,0,.788.788h8.043A.789.789,0,0,1,15.543,457.8Z" transform="translate(-6.317 -365.137)" fill="#b6c4cf"/>
      <path id="Trazado_106896" data-name="Trazado 106896" d="M58.822,453.459H1.971A1.973,1.973,0,0,1,0,451.488V448.27A1.973,1.973,0,0,1,1.971,446.3H14.035a1.183,1.183,0,0,1,0,2.366H2.365v2.429H58.428v-2.429H19.555a1.183,1.183,0,0,1,0-2.366H58.822a1.973,1.973,0,0,1,1.971,1.971v3.217A1.973,1.973,0,0,1,58.822,453.459Z" transform="translate(0 -358.82)"/>
      <path id="Trazado_106897" data-name="Trazado 106897" d="M424.481,441.936H410.288a.789.789,0,0,1-.788-.789V439.38a5.357,5.357,0,0,1,5.357-5.357h4.267a5.357,5.357,0,0,1,5.357,5.357v2.556Z" transform="translate(-344.922 -348.48)" fill="#c5d3dd"/>
      <path id="Trazado_106898" data-name="Trazado 106898" d="M414.624,441.148V439.38a5.357,5.357,0,0,1,4.928-5.339c-.142-.011-.285-.019-.429-.019h-4.267a5.357,5.357,0,0,0-5.357,5.357v1.767a.789.789,0,0,0,.788.789h5.125A.789.789,0,0,1,414.624,441.148Z" transform="translate(-344.921 -348.48)" fill="#b6c4cf"/>
      <path id="Trazado_106899" data-name="Trazado 106899" d="M418.164,436.8H403.971A1.973,1.973,0,0,1,402,434.83v-1.767a6.547,6.547,0,0,1,6.54-6.54h4.267a6.547,6.547,0,0,1,6.54,6.54v2.556A1.183,1.183,0,0,1,418.164,436.8Zm-13.8-2.365h12.616v-1.373a4.179,4.179,0,0,0-4.174-4.174H408.54a4.179,4.179,0,0,0-4.174,4.174Z" transform="translate(-338.605 -342.163)"/>
    </g>
  </g>
</svg>
