<svg xmlns="http://www.w3.org/2000/svg" width="124" height="124" viewBox="0 0 124 124">
  <g id="Grupo_99775" data-name="Grupo 99775" transform="translate(-1116 -1537)">
    <rect id="Rectángulo_33882" data-name="Rectángulo 33882" width="124" height="124" rx="17" transform="translate(1116 1537)" fill="#a9ebf4"/>
    <g id="servidor" transform="translate(1138 1543.613)">
      <g id="Grupo_99772" data-name="Grupo 99772" transform="translate(1.181 18.572)">
        <g id="Grupo_99771" data-name="Grupo 99771" transform="translate(0 0)">
          <g id="Grupo_99768" data-name="Grupo 99768">
            <g id="Grupo_99767" data-name="Grupo 99767">
              <g id="Grupo_99765" data-name="Grupo 99765">
                <path id="Trazado_106918" data-name="Trazado 106918" d="M0,0H21.809V6.98H0Z" transform="translate(40.431 46.597) rotate(90)" fill="#dbe8f9"/>
                <path id="Trazado_106919" data-name="Trazado 106919" d="M64.489,442.359v-3.842a1.568,1.568,0,0,1,1.569-1.569H118.85a1.568,1.568,0,0,1,1.569,1.569v3.842a1.568,1.568,0,0,1-1.569,1.569H66.057A1.568,1.568,0,0,1,64.489,442.359Z" transform="translate(-55.513 -372.047)" fill="#dbe8f9"/>
                <g id="Grupo_99764" data-name="Grupo 99764">
                  <g id="Grupo_99763" data-name="Grupo 99763">
                    <path id="Trazado_106920" data-name="Trazado 106920" d="M77.226,42.55H11.656A4.156,4.156,0,0,1,7.5,38.394v-9.33a4.156,4.156,0,0,1,4.156-4.156h65.57a4.156,4.156,0,0,1,4.156,4.156v9.33A4.156,4.156,0,0,1,77.226,42.55Z" transform="translate(-7.5 -24.908)" fill="#c9e0fd"/>
                    <path id="Trazado_106921" data-name="Trazado 106921" d="M77.226,154.553H11.656A4.156,4.156,0,0,1,7.5,150.4v-9.33a4.156,4.156,0,0,1,4.156-4.156h65.57a4.156,4.156,0,0,1,4.156,4.156v9.33A4.156,4.156,0,0,1,77.226,154.553Z" transform="translate(-7.5 -119.269)" fill="#eaf2ff"/>
                    <path id="Trazado_106922" data-name="Trazado 106922" d="M404.555,24.908h-8.529a2.4,2.4,0,0,1,2.4,2.4V40.151a2.4,2.4,0,0,1-2.4,2.4h8.529a4.156,4.156,0,0,0,4.156-4.156v-9.33A4.156,4.156,0,0,0,404.555,24.908Z" transform="translate(-334.828 -24.908)" fill="#bcd6f9"/>
                    <path id="Trazado_106923" data-name="Trazado 106923" d="M404.546,136.91h-8.53a2.4,2.4,0,0,1,2.4,2.4v12.844a2.4,2.4,0,0,1-2.4,2.4h8.529A4.156,4.156,0,0,0,408.7,150.4v-9.33A4.155,4.155,0,0,0,404.546,136.91Z" transform="translate(-334.82 -119.268)" fill="#dbe8f9"/>
                    <path id="Trazado_106924" data-name="Trazado 106924" d="M77.226,266.556H11.656A4.156,4.156,0,0,1,7.5,262.4v-9.33a4.156,4.156,0,0,1,4.156-4.156h65.57a4.156,4.156,0,0,1,4.156,4.156v9.33A4.156,4.156,0,0,1,77.226,266.556Z" transform="translate(-7.5 -213.63)" fill="#c9e0fd"/>
                  </g>
                </g>
                <path id="Trazado_106925" data-name="Trazado 106925" d="M177.038,439.932H195a1.491,1.491,0,0,0,1.491-1.492v-5.834A1.491,1.491,0,0,0,195,431.115H177.038a1.491,1.491,0,0,0-1.491,1.491v5.834A1.491,1.491,0,0,0,177.038,439.932Z" transform="translate(-149.077 -367.132)" fill="#9bc4f9"/>
              </g>
              <g id="Grupo_99766" data-name="Grupo 99766" transform="translate(7.281 5.444)">
                <circle id="Elipse_5" data-name="Elipse 5" cx="3.376" cy="3.376" r="3.376" fill="#a8dbb2"/>
                <circle id="Elipse_6" data-name="Elipse 6" cx="3.376" cy="3.376" r="3.376" transform="translate(0 17.642)" fill="#a8dbb2"/>
                <circle id="Elipse_7" data-name="Elipse 7" cx="3.376" cy="3.376" r="3.376" transform="translate(0 35.284)" fill="#a8dbb2"/>
              </g>
            </g>
          </g>
          <g id="Grupo_99769" data-name="Grupo 99769" transform="translate(35.773 5.274)">
            <path id="Trazado_106926" data-name="Trazado 106926" d="M265.319,65.486H236.14a1.529,1.529,0,0,1-1.529-1.529V59.922a1.529,1.529,0,0,1,1.529-1.529h29.178a1.529,1.529,0,0,1,1.529,1.529v4.034A1.529,1.529,0,0,1,265.319,65.486Z" transform="translate(-234.611 -58.393)" fill="#ffe07d"/>
            <path id="Trazado_106927" data-name="Trazado 106927" d="M414.132,58.393h-2.885v7.093h2.885a1.529,1.529,0,0,0,1.529-1.529V59.922a1.529,1.529,0,0,0-1.529-1.529Z" transform="translate(-383.425 -58.393)" fill="#ffd064"/>
            <path id="Trazado_106928" data-name="Trazado 106928" d="M265.319,177.488H236.14a1.529,1.529,0,0,1-1.529-1.529v-4.034a1.529,1.529,0,0,1,1.529-1.529h29.178a1.529,1.529,0,0,1,1.529,1.529v4.034A1.529,1.529,0,0,1,265.319,177.488Z" transform="translate(-234.611 -152.753)" fill="#ffe07d"/>
            <path id="Trazado_106929" data-name="Trazado 106929" d="M414.132,170.395h-2.885v7.093h2.885a1.529,1.529,0,0,0,1.529-1.529v-4.034A1.529,1.529,0,0,0,414.132,170.395Z" transform="translate(-383.425 -152.753)" fill="#ffd064"/>
            <path id="Trazado_106930" data-name="Trazado 106930" d="M265.319,289.491H236.14a1.529,1.529,0,0,1-1.529-1.529v-4.034a1.529,1.529,0,0,1,1.529-1.529h29.178a1.529,1.529,0,0,1,1.529,1.529v4.034A1.529,1.529,0,0,1,265.319,289.491Z" transform="translate(-234.611 -247.114)" fill="#ffe07d"/>
          </g>
          <g id="Grupo_99770" data-name="Grupo 99770" transform="translate(47.48 27.415)">
            <circle id="Elipse_8" data-name="Elipse 8" cx="15.402" cy="15.402" r="15.402" fill="#eaf2ff"/>
            <path id="Trazado_106931" data-name="Trazado 106931" d="M390.086,203.476a15.4,15.4,0,0,0-16.036-3.629,15.407,15.407,0,0,1,0,29.039,15.4,15.4,0,0,0,16.036-25.411Z" transform="translate(-363.793 -198.965)" fill="#dbe8f9"/>
            <path id="Trazado_106932" data-name="Trazado 106932" d="M344.185,251.034a.95.95,0,0,0-1.6-.464l-4.155,4.155a1.9,1.9,0,0,1-2.694,0l-1.656-1.656a1.9,1.9,0,0,1,0-2.694l4.155-4.155a.95.95,0,0,0-.464-1.6,8.436,8.436,0,0,0-10.247,7.761c0,.018,0,.036,0,.055a9.856,9.856,0,0,1-2.862,6.46l-1.713,1.713a15.427,15.427,0,0,0,5.248,5.248l1.713-1.713a9.792,9.792,0,0,1,6.43-2.861l.085,0a8.437,8.437,0,0,0,7.762-10.247Z" transform="translate(-320.741 -237.262)" fill="#7fb2f9"/>
          </g>
        </g>
      </g>
      <g id="Grupo_99774" data-name="Grupo 99774" transform="translate(0 17.387)">
        <g id="Grupo_99773" data-name="Grupo 99773" transform="translate(0 0)">
          <path id="Trazado_106933" data-name="Trazado 106933" d="M259.024,50.873H229.843a2.714,2.714,0,0,0-2.711,2.711v4.035a2.714,2.714,0,0,0,2.711,2.711h29.181a2.714,2.714,0,0,0,2.711-2.711V53.584A2.714,2.714,0,0,0,259.024,50.873Zm.348,6.746a.349.349,0,0,1-.348.348H229.843a.349.349,0,0,1-.348-.348V53.584a.349.349,0,0,1,.348-.348h29.181a.349.349,0,0,1,.348.348Z" transform="translate(-191.356 -45.599)"/>
          <path id="Trazado_106934" data-name="Trazado 106934" d="M38.487,57.948a2.714,2.714,0,0,0-2.711,2.711v4.035a2.714,2.714,0,0,0,2.711,2.711H48.6A16.59,16.59,0,1,0,70.38,46.052V43.016A2.714,2.714,0,0,0,67.668,40.3H38.487a2.714,2.714,0,0,0-2.711,2.711v4.035a2.714,2.714,0,0,0,2.711,2.711H52.243a16.71,16.71,0,0,0-2.291,2.912H5.338A2.978,2.978,0,0,1,2.363,49.7V40.368a2.978,2.978,0,0,1,2.975-2.975H70.914a2.978,2.978,0,0,1,2.975,2.975v4.259a1.182,1.182,0,0,0,2.363,0V40.368a5.33,5.33,0,0,0-1.992-4.156,5.33,5.33,0,0,0,1.992-4.156V22.725a5.344,5.344,0,0,0-5.338-5.338H5.338A5.343,5.343,0,0,0,0,22.724v9.331a5.33,5.33,0,0,0,1.992,4.156A5.331,5.331,0,0,0,0,40.368V49.7a5.33,5.33,0,0,0,1.992,4.156A5.33,5.33,0,0,0,0,58.011v9.331A5.344,5.344,0,0,0,5.338,72.68H33.455v8.7h-4.31a2.667,2.667,0,0,0-2.015.919h-15.4a2.753,2.753,0,0,0-2.75,2.75v3.843a2.753,2.753,0,0,0,2.75,2.75h15.4a2.668,2.668,0,0,0,2.015.919H47.107a2.667,2.667,0,0,0,2.015-.919h15.4a2.753,2.753,0,0,0,2.75-2.75V85.045a2.753,2.753,0,0,0-2.75-2.75h-15.4a2.668,2.668,0,0,0-2.015-.919H42.8v-8.7h3.811a1.182,1.182,0,0,0,0-2.363H5.338a2.978,2.978,0,0,1-2.975-2.975V58.011a2.978,2.978,0,0,1,2.975-2.975h43.4a16.389,16.389,0,0,0-.9,2.912H38.487ZM2.363,32.055V22.724A2.978,2.978,0,0,1,5.338,19.75H70.914a2.978,2.978,0,0,1,2.975,2.975v9.331a2.978,2.978,0,0,1-2.975,2.975H5.338a2.978,2.978,0,0,1-2.975-2.975ZM11.34,88.887V85.044a.388.388,0,0,1,.387-.387H26.472v4.617H11.727a.388.388,0,0,1-.387-.387Zm53.572-3.843v3.843a.388.388,0,0,1-.387.387H49.78V84.657H64.525A.387.387,0,0,1,64.912,85.044Zm-17.494-1v5.835a.31.31,0,0,1-.31.31H29.145a.311.311,0,0,1-.31-.31V84.048a.311.311,0,0,1,.31-.31H47.107A.31.31,0,0,1,47.417,84.048Zm-6.983-2.673H35.817v-8.7h4.617ZM38.487,65.042a.348.348,0,0,1-.348-.348V60.659a.348.348,0,0,1,.348-.348h9.031a16.8,16.8,0,0,0,.367,4.731ZM52.381,69.5l1.04-1.04a11.462,11.462,0,0,0,3.21-7.284,7.256,7.256,0,0,1,8.388-6.756l-3.846,3.846a3.085,3.085,0,0,0,0,4.365l1.656,1.656a3.084,3.084,0,0,0,4.365,0L71.04,60.44A7.226,7.226,0,0,1,69,66.714a7.469,7.469,0,0,1-4.8,2.117A10.955,10.955,0,0,0,57,72.038l-1.04,1.04A14.46,14.46,0,0,1,52.381,69.5Zm21.744,1.946A14.23,14.23,0,0,1,58.081,74.3l.59-.59a8.594,8.594,0,0,1,5.653-2.517A9.619,9.619,0,0,0,73.266,59.5a2.133,2.133,0,0,0-3.588-1.045l-4.155,4.155a.723.723,0,0,1-1.023,0L62.843,60.96a.723.723,0,0,1,0-1.023L67,55.781a2.133,2.133,0,0,0-1.044-3.588A9.619,9.619,0,0,0,54.272,61.04a8.944,8.944,0,0,1-2.522,5.749l-.59.59a14.225,14.225,0,1,1,22.965,4.068Zm-35.987-24.4V43.016a.349.349,0,0,1,.348-.348H67.668a.349.349,0,0,1,.348.348v2.269A16.641,16.641,0,0,0,55.159,47.4H38.487A.348.348,0,0,1,38.139,47.051Z" transform="translate(0 -17.387)"/>
          <path id="Trazado_106935" data-name="Trazado 106935" d="M50.789,51.954a4.558,4.558,0,1,0,4.558,4.558A4.563,4.563,0,0,0,50.789,51.954Zm0,6.753a2.2,2.2,0,1,1,2.2-2.2A2.2,2.2,0,0,1,50.789,58.707Z" transform="translate(-38.949 -46.509)"/>
          <path id="Trazado_106936" data-name="Trazado 106936" d="M46.231,168.526a4.558,4.558,0,1,0,4.558-4.558A4.563,4.563,0,0,0,46.231,168.526Zm6.754,0a2.2,2.2,0,1,1-2.2-2.2A2.2,2.2,0,0,1,52.985,168.526Z" transform="translate(-38.949 -140.88)"/>
          <path id="Trazado_106937" data-name="Trazado 106937" d="M46.231,280.539a4.558,4.558,0,1,0,4.558-4.558A4.563,4.563,0,0,0,46.231,280.539Zm6.754,0a2.2,2.2,0,1,1-2.2-2.2A2.2,2.2,0,0,1,52.985,280.539Z" transform="translate(-38.949 -235.249)"/>
        </g>
      </g>
    </g>
  </g>
</svg>
