<svg xmlns="http://www.w3.org/2000/svg" width="124" height="124" viewBox="0 0 124 124">
  <g id="Grupo_99777" data-name="Grupo 99777" transform="translate(-1116 -1948)">
    <rect id="Rectángulo_33884" data-name="Rectángulo 33884" width="124" height="124" rx="17" transform="translate(1116 1948)" fill="#a9ebf4"/>
    <g id="_08_Server_Database_Hosting_" data-name="08 Server, Database, Hosting," transform="translate(1131 1964)">
      <path id="Trazado_106938" data-name="Trazado 106938" d="M54.412,55.556v3.037a4.556,4.556,0,0,1-4.556,4.556h-24.3A4.556,4.556,0,0,1,21,58.594V55.556A4.556,4.556,0,0,1,25.556,51h24.3A4.556,4.556,0,0,1,54.412,55.556Z" transform="translate(8.819 23.862)" fill="#55ace3"/>
      <path id="Trazado_106939" data-name="Trazado 106939" d="M54.412,9.556V64.231a4.556,4.556,0,0,1-4.556,4.556h-24.3A4.556,4.556,0,0,1,21,64.231V9.556A4.556,4.556,0,0,1,25.556,5h24.3A4.556,4.556,0,0,1,54.412,9.556Z" transform="translate(8.819)" fill="#55ace3"/>
      <path id="Trazado_106940" data-name="Trazado 106940" d="M46.262,10.519v12.15a1.519,1.519,0,0,1-1.519,1.519H26.519A1.519,1.519,0,0,1,25,22.669V10.519A1.519,1.519,0,0,1,26.519,9H44.744A1.519,1.519,0,0,1,46.262,10.519ZM44.744,39.375H26.519A1.519,1.519,0,0,0,25,40.894v6.075a1.519,1.519,0,0,0,1.519,1.519H44.744a1.519,1.519,0,0,0,1.519-1.519V40.894A1.519,1.519,0,0,0,44.744,39.375Z" transform="translate(10.894 2.075)" fill="#ffc10e"/>
      <path id="Trazado_106941" data-name="Trazado 106941" d="M22.225,34.519v12.15a1.519,1.519,0,0,1-1.519,1.519H5.519A1.519,1.519,0,0,1,4,46.669V34.519A1.519,1.519,0,0,1,5.519,33H20.706A1.519,1.519,0,0,1,22.225,34.519ZM87.531,33H72.344a1.519,1.519,0,0,0-1.519,1.519v12.15a1.519,1.519,0,0,0,1.519,1.519H87.531a1.519,1.519,0,0,0,1.519-1.519V34.519A1.519,1.519,0,0,0,87.531,33Z" transform="translate(0 14.525)" fill="#ffc10e"/>
      <path id="Trazado_106942" data-name="Trazado 106942" d="M37.412,26.262H55.637a1.519,1.519,0,0,0,1.519-1.519V12.594a1.519,1.519,0,0,0-1.519-1.519H37.412a1.519,1.519,0,0,0-1.519,1.519v12.15A1.519,1.519,0,0,0,37.412,26.262Zm1.519-12.15H54.119v9.112H38.931ZM57.156,32.337H35.894V29.3H57.156Zm0,6.075H35.894V35.375H57.156Zm0,18.225H35.894V53.6H57.156Zm0,6.075H35.894V59.675H57.156ZM37.412,50.562H55.637a1.519,1.519,0,0,0,1.519-1.519V42.969a1.519,1.519,0,0,0-1.519-1.519H37.412a1.519,1.519,0,0,0-1.519,1.519v6.075A1.519,1.519,0,0,0,37.412,50.562Zm1.519-6.075H54.119v3.037H38.931Zm48.6,3.037H81.456V39.931A4.556,4.556,0,0,0,76.9,35.375H63.231V9.556A4.556,4.556,0,0,0,58.675,5h-24.3a4.556,4.556,0,0,0-4.556,4.556V35.375H16.15a4.556,4.556,0,0,0-4.556,4.556v7.594H5.519A1.519,1.519,0,0,0,4,49.044v12.15a1.519,1.519,0,0,0,1.519,1.519h6.075V77.9a4.556,4.556,0,0,0,4.556,4.556H29.819a4.556,4.556,0,0,0,4.556,4.556h24.3a4.556,4.556,0,0,0,4.556-4.556H76.9A4.556,4.556,0,0,0,81.456,77.9V62.712h6.075a1.519,1.519,0,0,0,1.519-1.519V49.044A1.519,1.519,0,0,0,87.531,47.525ZM32.856,9.556a1.519,1.519,0,0,1,1.519-1.519h24.3a1.519,1.519,0,0,1,1.519,1.519V64.231a1.519,1.519,0,0,1-1.519,1.519h-24.3a1.519,1.519,0,0,1-1.519-1.519ZM7.037,50.562h12.15v9.112H7.037ZM16.15,79.419A1.519,1.519,0,0,1,14.631,77.9V62.712h6.075a1.519,1.519,0,0,0,1.519-1.519V49.044a1.519,1.519,0,0,0-1.519-1.519H14.631V39.931a1.519,1.519,0,0,1,1.519-1.519H29.819V64.231a4.556,4.556,0,0,0,4.556,4.556H45.006v6.075H34.375a4.556,4.556,0,0,0-4.556,4.556Zm44.044,3.037a1.519,1.519,0,0,1-1.519,1.519h-24.3a1.519,1.519,0,0,1-1.519-1.519V79.419A1.519,1.519,0,0,1,34.375,77.9h24.3a1.519,1.519,0,0,1,1.519,1.519ZM78.419,77.9A1.519,1.519,0,0,1,76.9,79.419H63.231a4.556,4.556,0,0,0-4.556-4.556H48.044V68.787H58.675a4.556,4.556,0,0,0,4.556-4.556V38.412H76.9a1.519,1.519,0,0,1,1.519,1.519v7.594H72.344a1.519,1.519,0,0,0-1.519,1.519v12.15a1.519,1.519,0,0,0,1.519,1.519h6.075Zm7.594-18.225H73.862V50.562h12.15ZM35.894,79.419h3.037v3.037H35.894Zm6.075,0h3.037v3.037H41.969Zm7.594,0h7.594v3.037H49.562Z"/>
    </g>
  </g>
</svg>
