<svg xmlns="http://www.w3.org/2000/svg" width="124" height="124" viewBox="0 0 124 124">
  <g id="Grupo_99733" data-name="Grupo 99733" transform="translate(-1116 -688)">
    <rect id="Rectángulo_33879" data-name="Rectángulo 33879" width="124" height="124" rx="17" transform="translate(1116 688)" fill="#a9ebf4"/>
    <g id="database" transform="translate(1138 710)">
      <path id="Trazado_106833" data-name="Trazado 106833" d="M48.461,28V40.628c0,3.485-10.178,6.314-22.73,6.314S3,44.113,3,40.628V28c0,3.485,10.178,6.314,22.73,6.314S48.461,31.485,48.461,28Z" transform="translate(0.263 6.833)" fill="#c0ab91"/>
      <path id="Trazado_106834" data-name="Trazado 106834" d="M66.781,33.679v7.577l-5.758.96a16.524,16.524,0,0,1-1.238,3.005l3.384,4.748-5.354,5.354-4.028-2.867A2.543,2.543,0,0,0,55.416,50.1v-10.1a2.488,2.488,0,0,0-.139-.821,10.834,10.834,0,0,0,.139-1.7A10.1,10.1,0,0,0,39,29.588V22.314a16.428,16.428,0,0,1,1.566-.556L41.526,16H49.1l.96,5.758A16.525,16.525,0,0,1,53.068,23l4.748-3.384,5.354,5.354-3.384,4.748a16.525,16.525,0,0,1,1.238,3.005Z" transform="translate(9.723 3.679)" fill="#ffeb99"/>
      <rect id="Rectángulo_33885" data-name="Rectángulo 33885" width="50" height="16" rx="2" transform="translate(15 61)" fill="#57a4ff"/>
      <path id="Trazado_106835" data-name="Trazado 106835" d="M53.577,51.526v10.1a2.533,2.533,0,0,1-2.526,2.526H46a2.533,2.533,0,0,0,2.526-2.526v-10.1A2.533,2.533,0,0,0,46,49h5.051A2.533,2.533,0,0,1,53.577,51.526Z" transform="translate(11.563 12.351)" fill="#2488ff"/>
      <path id="Trazado_106836" data-name="Trazado 106836" d="M55.416,35.1a10.834,10.834,0,0,1-.139,1.7,2.542,2.542,0,0,0-2.387-1.7H39v-7.88A10.1,10.1,0,0,1,55.416,35.1Z" transform="translate(9.723 6.046)" fill="#c6c5ca"/>
      <path id="Trazado_106837" data-name="Trazado 106837" d="M54.623,35.1a10.834,10.834,0,0,1-.139,1.7A2.542,2.542,0,0,0,52.1,35.1H49.571a10.124,10.124,0,0,0-7.551-9.787,10.1,10.1,0,0,1,12.6,9.787Z" transform="translate(10.517 6.045)" fill="#acabb1"/>
      <path id="Trazado_106838" data-name="Trazado 106838" d="M42,45h7.577v5.051H42Z" transform="translate(10.512 11.3)" fill="#c6c5ca"/>
      <path id="Trazado_106839" data-name="Trazado 106839" d="M48.461,18V30.628c0,3.485-10.178,6.314-22.73,6.314S3,34.113,3,30.628V18c0,3.485,10.178,6.314,22.73,6.314S48.461,21.485,48.461,18Z" transform="translate(0.263 4.205)" fill="#c0ab91"/>
      <path id="Trazado_106840" data-name="Trazado 106840" d="M48.461,8V20.628c0,3.485-10.178,6.314-22.73,6.314S3,24.113,3,20.628V8c0,3.485,10.178,6.314,22.73,6.314S48.461,11.485,48.461,8Z" transform="translate(0.263 1.577)" fill="#c0ab91"/>
      <ellipse id="Elipse_1" data-name="Elipse 1" cx="23" cy="6.5" rx="23" ry="6.5" transform="translate(3 3)" fill="#ffcd00"/>
      <g id="Grupo_99732" data-name="Grupo 99732" transform="translate(23.467 9.577)">
        <path id="Trazado_106841" data-name="Trazado 106841" d="M44.256,28V40.628c0,3.485-10.178,6.314-22.73,6.314-.859,0-1.692-.013-2.526-.051,11.365-.341,20.2-3.018,20.2-6.263V31.965C42.362,30.879,44.256,29.5,44.256,28Z" transform="translate(-19 -2.744)" fill="#b39a7c"/>
        <path id="Trazado_106842" data-name="Trazado 106842" d="M40.051,18V30.628c0,1.5-1.894,2.879-5.051,3.965V21.965C38.157,20.879,40.051,19.5,40.051,18Z" transform="translate(-14.795 -5.372)" fill="#b39a7c"/>
        <path id="Trazado_106843" data-name="Trazado 106843" d="M40.051,8V20.628c0,1.5-1.894,2.879-5.051,3.965V11.965C38.157,10.879,40.051,9.5,40.051,8Z" transform="translate(-14.795 -8)" fill="#b39a7c"/>
      </g>
      <path id="Trazado_106844" data-name="Trazado 106844" d="M44.256,9.314c0,3.485-10.178,6.314-22.73,6.314-.859,0-1.692-.013-2.526-.051,11.365-.341,20.2-3.018,20.2-6.263S30.365,3.391,19,3.051C19.833,3.013,20.667,3,21.526,3,34.078,3,44.256,5.829,44.256,9.314Z" transform="translate(4.467 0.263)" fill="#ebbf00"/>
      <path id="Trazado_106845" data-name="Trazado 106845" d="M24,53h5.051v5.051H24Z" transform="translate(5.781 13.402)" fill="#ffeb99"/>
      <rect id="Rectángulo_33886" data-name="Rectángulo 33886" width="50" height="15" rx="2" transform="translate(15 41)" fill="#57a4ff"/>
      <path id="Trazado_106846" data-name="Trazado 106846" d="M53.577,35.526v10.1a2.533,2.533,0,0,1-2.526,2.526H46a2.533,2.533,0,0,0,2.526-2.526v-10.1A2.533,2.533,0,0,0,46,33h5.051A2.533,2.533,0,0,1,53.577,35.526Z" transform="translate(11.563 8.147)" fill="#2488ff"/>
      <path id="Trazado_106847" data-name="Trazado 106847" d="M24,37h5.051v5.051H24Z" transform="translate(5.781 9.198)" fill="#ffeb99"/>
      <path id="Trazado_106848" data-name="Trazado 106848" d="M16,45h7.577v5.051H16Z" transform="translate(3.679 11.3)" fill="#c6c5ca"/>
      <path id="Trazado_106849" data-name="Trazado 106849" d="M16,53h5.051v5.051H16Z" transform="translate(3.679 13.402)" fill="#ffeb99"/>
      <path id="Trazado_106850" data-name="Trazado 106850" d="M16,37h5.051v5.051H16Z" transform="translate(3.679 9.198)" fill="#ffeb99"/>
      <path id="Trazado_106851" data-name="Trazado 106851" d="M21.314,36H16.263A1.263,1.263,0,0,0,15,37.263v5.051a1.263,1.263,0,0,0,1.263,1.263h5.051a1.263,1.263,0,0,0,1.263-1.263V37.263A1.263,1.263,0,0,0,21.314,36Zm-1.263,5.051H17.526V38.526h2.526Z" transform="translate(3.416 8.935)"/>
      <path id="Trazado_106852" data-name="Trazado 106852" d="M29.314,36H24.263A1.263,1.263,0,0,0,23,37.263v5.051a1.263,1.263,0,0,0,1.263,1.263h5.051a1.263,1.263,0,0,0,1.263-1.263V37.263A1.263,1.263,0,0,0,29.314,36Zm-1.263,5.051H25.526V38.526h2.526Z" transform="translate(5.519 8.935)"/>
      <path id="Trazado_106853" data-name="Trazado 106853" d="M31,36H48.679v2.526H31Z" transform="translate(7.621 8.935)"/>
      <path id="Trazado_106854" data-name="Trazado 106854" d="M47,36h2.526v2.526H47Z" transform="translate(11.826 8.935)"/>
      <path id="Trazado_106855" data-name="Trazado 106855" d="M31,40H48.679v2.526H31Z" transform="translate(7.621 9.986)"/>
      <path id="Trazado_106856" data-name="Trazado 106856" d="M47,40h2.526v2.526H47Z" transform="translate(11.826 9.986)"/>
      <path id="Trazado_106857" data-name="Trazado 106857" d="M16.263,59.577h5.051a1.263,1.263,0,0,0,1.263-1.263V53.263A1.263,1.263,0,0,0,21.314,52H16.263A1.263,1.263,0,0,0,15,53.263v5.051A1.263,1.263,0,0,0,16.263,59.577Zm1.263-5.051h2.526v2.526H17.526Z" transform="translate(3.416 13.14)"/>
      <path id="Trazado_106858" data-name="Trazado 106858" d="M24.263,59.577h5.051a1.263,1.263,0,0,0,1.263-1.263V53.263A1.263,1.263,0,0,0,29.314,52H24.263A1.263,1.263,0,0,0,23,53.263v5.051A1.263,1.263,0,0,0,24.263,59.577Zm1.263-5.051h2.526v2.526H25.526Z" transform="translate(5.519 13.14)"/>
      <path id="Trazado_106859" data-name="Trazado 106859" d="M31,52H48.679v2.526H31Z" transform="translate(7.621 13.14)"/>
      <path id="Trazado_106860" data-name="Trazado 106860" d="M47,52h2.526v2.526H47Z" transform="translate(11.826 13.14)"/>
      <path id="Trazado_106861" data-name="Trazado 106861" d="M31,56H48.679v2.526H31Z" transform="translate(7.621 14.191)"/>
      <path id="Trazado_106862" data-name="Trazado 106862" d="M47,56h2.526v2.526H47Z" transform="translate(11.826 14.191)"/>
      <path id="Trazado_106863" data-name="Trazado 106863" d="M76.707,36.108l-5-.833a14.46,14.46,0,0,0-.732-1.768l2.942-4.129a1.263,1.263,0,0,0-.126-1.629l-5.354-5.354a1.263,1.263,0,0,0-1.629-.126L62.677,25.21a17.966,17.966,0,0,0-1.768-.732l-.833-5a1.263,1.263,0,0,0-1.25-1.061H51.249A1.263,1.263,0,0,0,50,19.477l-.013.1v-10C49.986,4.6,37.914,2,25.993,2S2,4.6,2,9.577V47.461c0,3.826,6.718,5.7,11.39,6.541a3.777,3.777,0,0,0,3.763,3.561h1.263v2.526H17.154a3.8,3.8,0,0,0-3.788,3.788v10.1a3.8,3.8,0,0,0,3.788,3.788H62.614A3.8,3.8,0,0,0,66.4,73.979v-10.1a3.8,3.8,0,0,0-3.788-3.788H61.351V57.563h1.263a3.452,3.452,0,0,0,.631-.063l3.561,2.538a1.316,1.316,0,0,0,.732.227,1.293,1.293,0,0,0,.9-.366l5.354-5.354a1.263,1.263,0,0,0,.126-1.629l-2.942-4.129a14.46,14.46,0,0,0,.732-1.768l5-.833a1.263,1.263,0,0,0,1.061-1.25V37.358a1.263,1.263,0,0,0-1.061-1.25ZM49.986,33.936A8.788,8.788,0,0,1,63.814,40.1a3.8,3.8,0,0,0-1.2-.215H49.986ZM25.993,4.526c13.891,0,21.467,3.334,21.467,5.051s-7.577,5.051-21.467,5.051S4.526,11.294,4.526,9.577,12.1,4.526,25.993,4.526ZM4.526,13.138c4.155,2.639,12.83,4.016,21.467,4.016s17.313-1.376,21.467-4.016V22.2c0,1.717-7.577,5.051-21.467,5.051S4.526,23.922,4.526,22.2Zm8.84,30.534v7.754c-6.4-1.212-8.84-3.043-8.84-3.965V38.394a27.127,27.127,0,0,0,9.547,3.081,3.769,3.769,0,0,0-.707,2.2Zm-8.84-8.84V25.766c4.155,2.639,12.83,4.016,21.467,4.016s17.313-1.376,21.467-4.016v9.067c0,1.717-7.577,5.051-21.467,5.051S4.526,36.55,4.526,34.833Zm42.935,3.561v1.49H44.329a15.745,15.745,0,0,0,3.132-1.49Zm15.154,24.22a1.263,1.263,0,0,1,1.263,1.263v10.1a1.263,1.263,0,0,1-1.263,1.263H17.154a1.263,1.263,0,0,1-1.263-1.263v-10.1a1.263,1.263,0,0,1,1.263-1.263ZM20.942,60.088V57.563h5.051v2.526Zm7.577,0V57.563h22.73v2.526Zm25.256,0V57.563h5.051v2.526Zm10.1-6.314a1.263,1.263,0,0,1-1.263,1.263H17.154a1.263,1.263,0,0,1-1.263-1.263v-10.1a1.263,1.263,0,0,1,1.263-1.263H62.614a1.263,1.263,0,0,1,1.263,1.263Zm11.365-9.913-4.7.783a1.294,1.294,0,0,0-1.01.884A14.913,14.913,0,0,1,68.4,48.307a1.232,1.232,0,0,0,.088,1.326l2.753,3.877L67.4,57.348l-1.793-1.275a3.753,3.753,0,0,0,.8-2.3v-10.1a3.591,3.591,0,0,0-.126-.909,11.766,11.766,0,0,0,.126-1.616A11.34,11.34,0,0,0,49.986,30.981V26.89a6.224,6.224,0,0,1,.682-.24,1.3,1.3,0,0,0,.871-1.01l.783-4.7h5.43l.783,4.7a1.294,1.294,0,0,0,.884,1.01A15.28,15.28,0,0,1,62.2,27.786a1.263,1.263,0,0,0,1.326-.088L67.4,24.945l3.839,3.839-2.753,3.877a1.232,1.232,0,0,0-.088,1.326,14.914,14.914,0,0,1,1.137,2.778,1.294,1.294,0,0,0,1.01.884l4.7.783Z"/>
      <path id="Trazado_106864" data-name="Trazado 106864" d="M6.526,48H4V58.1a1.263,1.263,0,0,0,1.263,1.263h5.051V56.84H6.526Z" transform="translate(0.526 12.088)"/>
      <path id="Trazado_106865" data-name="Trazado 106865" d="M65.2,4H45V6.526H63.942V18.631l-3.418,3.418,1.786,1.786L66.1,20.046a1.263,1.263,0,0,0,.37-.893V5.263A1.263,1.263,0,0,0,65.2,4Z" transform="translate(11.3 0.526)"/>
      <path id="Trazado_106866" data-name="Trazado 106866" d="M41,4h2.526V6.526H41Z" transform="translate(10.249 0.526)"/>
      <path id="Trazado_106867" data-name="Trazado 106867" d="M4,44H6.526v2.526H4Z" transform="translate(0.526 11.037)"/>
    </g>
  </g>
</svg>
